<svg width="800" height="600" viewBox="0 0 800 600" fill="none" xmlns="http://www.w3.org/2000/svg">
<rect width="800" height="600" fill="white"/>
<path d="M3.5 3.5H796.5V596.5H3.5V3.5Z" fill="#01D5E1" stroke="#F5EACA" stroke-width="7"/>
<path d="M203.099 203.948C189.275 211.983 172.096 216 151.558 216C128.783 216 110.813 209.659 97.6483 196.975C84.5494 184.225 78 166.694 78 144.382C78 121.936 85.1748 103.641 99.5248 89.4965C113.874 75.3522 132.964 68.2795 156.791 68.2795C171.799 68.2795 185.03 70.3715 196.483 74.5556V104.736C185.557 98.3614 172.195 95.1739 156.397 95.1739C143.166 95.1739 132.371 99.5241 124.011 108.223C115.717 116.856 111.571 128.411 111.571 142.887C111.571 157.563 115.289 168.919 122.728 176.953C130.232 184.989 140.335 189.007 153.039 189.007C160.675 189.007 166.731 187.91 171.207 185.719V157.828H142.87V132.129H203.099V203.948ZM318.423 171.475H252.467C253.52 186.283 262.768 193.688 280.212 193.688C291.336 193.688 301.111 191.031 309.536 185.719V208.431C300.19 213.477 288.045 216 273.102 216C256.778 216 244.107 211.452 235.09 202.353C226.071 193.19 221.563 180.44 221.563 164.103C221.563 147.17 226.433 133.756 236.175 123.861C245.917 113.967 257.897 109.02 272.115 109.02C286.86 109.02 298.247 113.436 306.278 122.268C314.375 131.1 318.423 143.086 318.423 158.227V171.475ZM289.493 152.151C289.493 137.542 283.634 130.236 271.917 130.236C266.916 130.236 262.571 132.328 258.885 136.512C255.264 140.695 253.059 145.909 252.269 152.151H289.493ZM434.635 213.51H403.533V156.833C403.533 141.028 397.938 133.125 386.748 133.125C381.35 133.125 376.908 135.217 373.418 139.401C369.93 143.584 368.185 148.897 368.185 155.339V213.51H336.985V111.51H368.185V127.647H368.581C376.019 115.229 386.846 109.02 401.065 109.02C423.445 109.02 434.635 123.032 434.635 151.056V213.51ZM475.216 95.3738C469.949 95.3738 465.638 93.8132 462.281 90.692C458.924 87.5045 457.245 83.6193 457.245 79.0375C457.245 74.323 458.924 70.4715 462.281 67.4829C465.638 64.4943 469.949 63 475.216 63C480.547 63 484.858 64.4943 488.15 67.4829C491.507 70.4715 493.185 74.323 493.185 79.0375C493.185 83.8192 491.507 87.737 488.15 90.7919C484.858 93.8458 480.547 95.3738 475.216 95.3738ZM490.618 213.51H459.418V111.51H490.618V213.51ZM578 212.315C573.393 214.772 566.448 216 557.166 216C535.182 216 524.188 204.479 524.188 181.436V134.719H507.798V111.51H524.188V89.4965L555.291 80.5318V111.51H578V134.719H555.291V175.958C555.291 186.582 559.47 191.895 567.83 191.895C571.121 191.895 574.511 190.932 578 189.007V212.315Z" fill="#F5EACA"/>
<g filter="url(#filter0_d)">
<rect x="328" y="467" width="395" height="65" rx="8" fill="#F5EACA"/>
</g>
<path d="M418.404 489.456V501.496C418.404 503.157 418.721 504.408 419.356 505.248C419.991 506.088 421.073 506.508 422.604 506.508C424.135 506.508 425.217 506.088 425.852 505.248C426.487 504.408 426.804 503.157 426.804 501.496V489.456H429.912V500.992C429.912 502.429 429.781 503.671 429.52 504.716C429.259 505.761 428.839 506.629 428.26 507.32C427.681 507.992 426.925 508.496 425.992 508.832C425.077 509.168 423.948 509.336 422.604 509.336C421.26 509.336 420.121 509.168 419.188 508.832C418.273 508.496 417.527 507.992 416.948 507.32C416.369 506.629 415.949 505.761 415.688 504.716C415.427 503.671 415.296 502.429 415.296 500.992V489.456H418.404ZM434.379 494.44H437.431V496.848H437.571C437.889 495.971 438.402 495.299 439.111 494.832C439.839 494.347 440.689 494.104 441.659 494.104C443.507 494.104 444.935 494.776 445.943 496.12C446.951 497.445 447.455 499.312 447.455 501.72C447.455 504.128 446.951 506.004 445.943 507.348C444.935 508.673 443.507 509.336 441.659 509.336C440.689 509.336 439.839 509.093 439.111 508.608C438.402 508.123 437.889 507.451 437.571 506.592H437.431V514.6H434.379V494.44ZM440.735 506.704C441.799 506.704 442.649 506.368 443.283 505.696C443.918 505.005 444.235 504.1 444.235 502.98V500.46C444.235 499.34 443.918 498.444 443.283 497.772C442.649 497.081 441.799 496.736 440.735 496.736C439.802 496.736 439.018 496.969 438.383 497.436C437.749 497.884 437.431 498.481 437.431 499.228V504.212C437.431 504.959 437.749 505.565 438.383 506.032C439.018 506.48 439.802 506.704 440.735 506.704ZM460.106 506.592H459.966C459.648 507.451 459.126 508.123 458.398 508.608C457.688 509.093 456.848 509.336 455.878 509.336C454.03 509.336 452.602 508.673 451.594 507.348C450.586 506.004 450.082 504.128 450.082 501.72C450.082 499.312 450.586 497.445 451.594 496.12C452.602 494.776 454.03 494.104 455.878 494.104C456.848 494.104 457.688 494.347 458.398 494.832C459.126 495.299 459.648 495.971 459.966 496.848H460.106V488.28H463.158V509H460.106V506.592ZM456.802 506.704C457.735 506.704 458.519 506.48 459.154 506.032C459.788 505.565 460.106 504.959 460.106 504.212V499.228C460.106 498.481 459.788 497.884 459.154 497.436C458.519 496.969 457.735 496.736 456.802 496.736C455.738 496.736 454.888 497.081 454.254 497.772C453.619 498.444 453.302 499.34 453.302 500.46V502.98C453.302 504.1 453.619 505.005 454.254 505.696C454.888 506.368 455.738 506.704 456.802 506.704ZM478.188 509C477.385 509 476.769 508.776 476.34 508.328C475.911 507.861 475.649 507.273 475.556 506.564H475.416C475.136 507.479 474.623 508.169 473.876 508.636C473.129 509.103 472.224 509.336 471.16 509.336C469.648 509.336 468.481 508.944 467.66 508.16C466.857 507.376 466.456 506.321 466.456 504.996C466.456 503.54 466.979 502.448 468.024 501.72C469.088 500.992 470.637 500.628 472.672 500.628H475.304V499.396C475.304 498.5 475.061 497.809 474.576 497.324C474.091 496.839 473.335 496.596 472.308 496.596C471.449 496.596 470.749 496.783 470.208 497.156C469.667 497.529 469.209 498.005 468.836 498.584L467.016 496.932C467.501 496.111 468.183 495.439 469.06 494.916C469.937 494.375 471.085 494.104 472.504 494.104C474.389 494.104 475.836 494.543 476.844 495.42C477.852 496.297 478.356 497.557 478.356 499.2V506.508H479.896V509H478.188ZM472.028 507.012C472.98 507.012 473.764 506.807 474.38 506.396C474.996 505.967 475.304 505.397 475.304 504.688V502.588H472.728C470.619 502.588 469.564 503.241 469.564 504.548V505.052C469.564 505.705 469.779 506.2 470.208 506.536C470.656 506.853 471.263 507.012 472.028 507.012ZM486.837 509C485.773 509 484.97 508.729 484.429 508.188C483.888 507.628 483.617 506.844 483.617 505.836V496.932H481.349V494.44H482.581C483.085 494.44 483.43 494.328 483.617 494.104C483.822 493.88 483.925 493.516 483.925 493.012V490.464H486.669V494.44H489.721V496.932H486.669V506.508H489.497V509H486.837ZM498.634 509.336C497.589 509.336 496.656 509.159 495.834 508.804C495.013 508.449 494.313 507.945 493.734 507.292C493.156 506.62 492.708 505.817 492.39 504.884C492.092 503.932 491.942 502.877 491.942 501.72C491.942 500.563 492.092 499.517 492.39 498.584C492.708 497.632 493.156 496.829 493.734 496.176C494.313 495.504 495.013 494.991 495.834 494.636C496.656 494.281 497.589 494.104 498.634 494.104C499.698 494.104 500.632 494.291 501.434 494.664C502.256 495.037 502.937 495.56 503.478 496.232C504.02 496.885 504.421 497.651 504.682 498.528C504.962 499.405 505.102 500.348 505.102 501.356V502.504H495.106V502.98C495.106 504.1 495.433 505.024 496.086 505.752C496.758 506.461 497.71 506.816 498.942 506.816C499.838 506.816 500.594 506.62 501.21 506.228C501.826 505.836 502.349 505.304 502.778 504.632L504.57 506.396C504.029 507.292 503.245 508.011 502.218 508.552C501.192 509.075 499.997 509.336 498.634 509.336ZM498.634 496.484C498.112 496.484 497.626 496.577 497.178 496.764C496.749 496.951 496.376 497.212 496.058 497.548C495.76 497.884 495.526 498.285 495.358 498.752C495.19 499.219 495.106 499.732 495.106 500.292V500.488H501.882V500.208C501.882 499.088 501.593 498.192 501.014 497.52C500.436 496.829 499.642 496.484 498.634 496.484ZM515.098 494.44H518.15V496.848H518.29C518.607 495.971 519.121 495.299 519.83 494.832C520.558 494.347 521.407 494.104 522.378 494.104C524.226 494.104 525.654 494.776 526.662 496.12C527.67 497.445 528.174 499.312 528.174 501.72C528.174 504.128 527.67 506.004 526.662 507.348C525.654 508.673 524.226 509.336 522.378 509.336C521.407 509.336 520.558 509.093 519.83 508.608C519.121 508.123 518.607 507.451 518.29 506.592H518.15V514.6H515.098V494.44ZM521.454 506.704C522.518 506.704 523.367 506.368 524.002 505.696C524.637 505.005 524.954 504.1 524.954 502.98V500.46C524.954 499.34 524.637 498.444 524.002 497.772C523.367 497.081 522.518 496.736 521.454 496.736C520.521 496.736 519.737 496.969 519.102 497.436C518.467 497.884 518.15 498.481 518.15 499.228V504.212C518.15 504.959 518.467 505.565 519.102 506.032C519.737 506.48 520.521 506.704 521.454 506.704ZM542.336 509C541.534 509 540.918 508.776 540.488 508.328C540.059 507.861 539.798 507.273 539.704 506.564H539.564C539.284 507.479 538.771 508.169 538.024 508.636C537.278 509.103 536.372 509.336 535.308 509.336C533.796 509.336 532.63 508.944 531.808 508.16C531.006 507.376 530.604 506.321 530.604 504.996C530.604 503.54 531.127 502.448 532.172 501.72C533.236 500.992 534.786 500.628 536.82 500.628H539.452V499.396C539.452 498.5 539.21 497.809 538.724 497.324C538.239 496.839 537.483 496.596 536.456 496.596C535.598 496.596 534.898 496.783 534.356 497.156C533.815 497.529 533.358 498.005 532.984 498.584L531.164 496.932C531.65 496.111 532.331 495.439 533.208 494.916C534.086 494.375 535.234 494.104 536.652 494.104C538.538 494.104 539.984 494.543 540.992 495.42C542 496.297 542.504 497.557 542.504 499.2V506.508H544.044V509H542.336ZM536.176 507.012C537.128 507.012 537.912 506.807 538.528 506.396C539.144 505.967 539.452 505.397 539.452 504.688V502.588H536.876C534.767 502.588 533.712 503.241 533.712 504.548V505.052C533.712 505.705 533.927 506.2 534.356 506.536C534.804 506.853 535.411 507.012 536.176 507.012ZM551.656 509.336C550.274 509.336 549.117 509.093 548.184 508.608C547.25 508.123 546.438 507.451 545.748 506.592L547.708 504.8C548.249 505.453 548.846 505.967 549.5 506.34C550.172 506.695 550.946 506.872 551.824 506.872C552.72 506.872 553.382 506.704 553.812 506.368C554.26 506.013 554.484 505.528 554.484 504.912C554.484 504.445 554.325 504.053 554.008 503.736C553.709 503.4 553.177 503.185 552.412 503.092L551.068 502.924C549.574 502.737 548.398 502.308 547.54 501.636C546.7 500.945 546.28 499.928 546.28 498.584C546.28 497.875 546.41 497.249 546.672 496.708C546.933 496.148 547.297 495.681 547.764 495.308C548.249 494.916 548.818 494.617 549.472 494.412C550.144 494.207 550.881 494.104 551.684 494.104C552.99 494.104 554.054 494.309 554.876 494.72C555.716 495.131 556.462 495.7 557.116 496.428L555.24 498.22C554.866 497.772 554.372 497.389 553.756 497.072C553.158 496.736 552.468 496.568 551.684 496.568C550.844 496.568 550.218 496.736 549.808 497.072C549.416 497.408 549.22 497.847 549.22 498.388C549.22 498.948 549.397 499.368 549.752 499.648C550.106 499.928 550.676 500.133 551.46 500.264L552.804 500.432C554.409 500.675 555.576 501.151 556.304 501.86C557.05 502.551 557.424 503.484 557.424 504.66C557.424 505.369 557.284 506.013 557.004 506.592C556.742 507.152 556.36 507.637 555.856 508.048C555.352 508.459 554.745 508.776 554.036 509C553.326 509.224 552.533 509.336 551.656 509.336ZM565.327 509.336C563.946 509.336 562.789 509.093 561.855 508.608C560.922 508.123 560.11 507.451 559.419 506.592L561.379 504.8C561.921 505.453 562.518 505.967 563.171 506.34C563.843 506.695 564.618 506.872 565.495 506.872C566.391 506.872 567.054 506.704 567.483 506.368C567.931 506.013 568.155 505.528 568.155 504.912C568.155 504.445 567.997 504.053 567.679 503.736C567.381 503.4 566.849 503.185 566.083 503.092L564.739 502.924C563.246 502.737 562.07 502.308 561.211 501.636C560.371 500.945 559.951 499.928 559.951 498.584C559.951 497.875 560.082 497.249 560.343 496.708C560.605 496.148 560.969 495.681 561.435 495.308C561.921 494.916 562.49 494.617 563.143 494.412C563.815 494.207 564.553 494.104 565.355 494.104C566.662 494.104 567.726 494.309 568.547 494.72C569.387 495.131 570.134 495.7 570.787 496.428L568.911 498.22C568.538 497.772 568.043 497.389 567.427 497.072C566.83 496.736 566.139 496.568 565.355 496.568C564.515 496.568 563.89 496.736 563.479 497.072C563.087 497.408 562.891 497.847 562.891 498.388C562.891 498.948 563.069 499.368 563.423 499.648C563.778 499.928 564.347 500.133 565.131 500.264L566.475 500.432C568.081 500.675 569.247 501.151 569.975 501.86C570.722 502.551 571.095 503.484 571.095 504.66C571.095 505.369 570.955 506.013 570.675 506.592C570.414 507.152 570.031 507.637 569.527 508.048C569.023 508.459 568.417 508.776 567.707 509C566.998 509.224 566.205 509.336 565.327 509.336ZM572.841 494.44H575.809L577.293 500.544L578.609 506.06H578.693L580.205 500.544L581.969 494.44H584.713L586.505 500.544L588.045 506.06H588.129L589.417 500.544L590.929 494.44H593.757L589.837 509H586.393L584.489 502.364L583.313 498.276H583.257L582.109 502.364L580.177 509H576.817L572.841 494.44ZM602.185 509.336C601.177 509.336 600.253 509.159 599.413 508.804C598.592 508.449 597.892 507.945 597.313 507.292C596.734 506.62 596.286 505.817 595.969 504.884C595.652 503.932 595.493 502.877 595.493 501.72C595.493 500.563 595.652 499.517 595.969 498.584C596.286 497.632 596.734 496.829 597.313 496.176C597.892 495.504 598.592 494.991 599.413 494.636C600.253 494.281 601.177 494.104 602.185 494.104C603.193 494.104 604.108 494.281 604.929 494.636C605.769 494.991 606.478 495.504 607.057 496.176C607.636 496.829 608.084 497.632 608.401 498.584C608.718 499.517 608.877 500.563 608.877 501.72C608.877 502.877 608.718 503.932 608.401 504.884C608.084 505.817 607.636 506.62 607.057 507.292C606.478 507.945 605.769 508.449 604.929 508.804C604.108 509.159 603.193 509.336 602.185 509.336ZM602.185 506.816C603.23 506.816 604.07 506.499 604.705 505.864C605.34 505.211 605.657 504.24 605.657 502.952V500.488C605.657 499.2 605.34 498.239 604.705 497.604C604.07 496.951 603.23 496.624 602.185 496.624C601.14 496.624 600.3 496.951 599.665 497.604C599.03 498.239 598.713 499.2 598.713 500.488V502.952C598.713 504.24 599.03 505.211 599.665 505.864C600.3 506.499 601.14 506.816 602.185 506.816ZM612.278 509V494.44H615.33V497.24H615.47C615.675 496.493 616.104 495.84 616.758 495.28C617.411 494.72 618.316 494.44 619.474 494.44H620.286V497.38H619.082C617.868 497.38 616.935 497.576 616.282 497.968C615.647 498.36 615.33 498.939 615.33 499.704V509H612.278ZM632.016 506.592H631.876C631.558 507.451 631.036 508.123 630.308 508.608C629.598 509.093 628.758 509.336 627.788 509.336C625.94 509.336 624.512 508.673 623.504 507.348C622.496 506.004 621.992 504.128 621.992 501.72C621.992 499.312 622.496 497.445 623.504 496.12C624.512 494.776 625.94 494.104 627.788 494.104C628.758 494.104 629.598 494.347 630.308 494.832C631.036 495.299 631.558 495.971 631.876 496.848H632.016V488.28H635.068V509H632.016V506.592ZM628.712 506.704C629.645 506.704 630.429 506.48 631.064 506.032C631.698 505.565 632.016 504.959 632.016 504.212V499.228C632.016 498.481 631.698 497.884 631.064 497.436C630.429 496.969 629.645 496.736 628.712 496.736C627.648 496.736 626.798 497.081 626.164 497.772C625.529 498.444 625.212 499.34 625.212 500.46V502.98C625.212 504.1 625.529 505.005 626.164 505.696C626.798 506.368 627.648 506.704 628.712 506.704Z" fill="#01D5E1"/>
<rect x="80.5" y="279.5" width="208" height="256" rx="7.5" stroke="#F5EACA" stroke-width="7"/>
<path d="M112.46 314.728V317.68C115.304 317.896 118.364 318.076 121.964 318.076C125.312 318.076 129.236 317.824 131.684 317.644V314.692C129.092 314.944 125.42 315.196 121.964 315.196C118.364 315.196 115.052 315.052 112.46 314.728ZM113.9 329.236L110.984 328.948C110.66 330.424 110.228 332.116 110.228 333.952C110.228 338.488 114.476 340.9 121.784 340.9C126.896 340.9 131.468 340.36 134.06 339.64L134.024 336.544C131.324 337.444 126.68 337.984 121.712 337.984C115.952 337.984 113.144 336.076 113.144 333.34C113.144 332.008 113.432 330.676 113.9 329.236ZM150.548 314.08C150.548 314.476 150.476 315.808 150.368 317.5C148.496 317.824 146.372 318.04 145.184 318.112C144.32 318.148 143.636 318.184 142.844 318.148L143.132 321.1C145.4 320.776 148.568 320.344 150.188 320.128C150.116 321.28 150.008 322.504 149.936 323.692C148.136 326.5 143.96 332.116 141.944 334.636L143.78 337.12C145.508 334.672 147.884 331.252 149.648 328.588C149.648 329.164 149.612 329.668 149.612 330.028C149.54 333.952 149.54 335.788 149.504 339.244C149.504 339.82 149.468 340.72 149.396 341.368H152.528C152.456 340.72 152.384 339.82 152.348 339.172C152.168 335.968 152.204 333.772 152.204 330.496C152.204 329.2 152.24 327.76 152.312 326.248C155.624 322.72 159.98 319.336 162.896 319.336C164.732 319.336 165.812 320.2 165.812 322.288C165.812 325.816 164.444 331.72 164.444 335.716C164.444 338.704 166.064 340.252 168.44 340.252C170.888 340.252 173.156 339.172 175.064 337.264L174.596 334.168C172.76 336.112 170.888 337.156 169.16 337.156C167.864 337.156 167.288 336.148 167.288 334.96C167.288 331.288 168.62 325.096 168.62 321.496C168.62 318.58 166.964 316.672 163.616 316.672C159.98 316.672 155.336 320.164 152.528 322.756C152.6 322.036 152.636 321.352 152.708 320.668C153.248 319.768 153.86 318.796 154.328 318.148L153.284 316.888C153.212 316.924 153.14 316.924 153.068 316.96C153.32 314.44 153.608 312.424 153.788 311.524L150.404 311.416C150.548 312.316 150.548 313.288 150.548 314.08ZM192.056 335.68C192.056 333.916 193.964 332.764 196.664 332.764C197.96 332.764 199.184 332.98 200.336 333.34C200.372 333.808 200.372 334.24 200.372 334.6C200.372 336.976 199.472 338.524 196.448 338.524C193.856 338.524 192.056 337.516 192.056 335.68ZM202.964 312.28H199.724C199.796 312.892 199.868 313.864 199.868 314.476V318.94C198.752 318.976 197.6 319.012 196.484 319.012C194.324 319.012 192.416 318.904 190.364 318.724V321.424C192.488 321.568 194.36 321.676 196.412 321.676C197.564 321.676 198.716 321.64 199.868 321.604C199.904 324.556 200.12 328.084 200.228 330.856C199.184 330.64 198.068 330.532 196.88 330.532C192.164 330.532 189.464 332.944 189.464 335.968C189.464 339.208 192.128 341.116 196.952 341.116C201.812 341.116 203.18 338.272 203.18 335.32C203.18 335.068 203.18 334.816 203.18 334.564C205.016 335.608 206.816 337.048 208.616 338.74L210.2 336.328C208.328 334.636 205.988 332.836 203.072 331.684C202.928 328.66 202.676 325.06 202.64 321.424C204.8 321.28 206.888 321.064 208.868 320.74V317.968C206.96 318.328 204.836 318.616 202.64 318.796C202.676 317.104 202.712 315.412 202.748 314.44C202.784 313.72 202.856 313 202.964 312.28ZM185.18 312.496L182.012 312.244C182.012 313 181.904 313.972 181.796 314.8C181.328 317.788 180.14 324.664 180.14 329.956C180.14 334.816 180.788 338.776 181.508 341.332L184.028 341.152C183.992 340.756 183.956 340.252 183.956 339.892C183.92 339.46 183.992 338.776 184.1 338.272C184.46 336.508 185.792 332.836 186.656 330.316L185.18 329.164C184.568 330.64 183.704 332.836 183.128 334.456C182.876 332.692 182.768 331.18 182.768 329.452C182.768 325.42 183.848 318.292 184.568 314.944C184.676 314.296 184.964 313.108 185.18 312.496ZM240.188 314.908C240.188 313.576 241.232 312.496 242.564 312.496C243.86 312.496 244.94 313.576 244.94 314.908C244.94 316.204 243.86 317.284 242.564 317.284C241.232 317.284 240.188 316.204 240.188 314.908ZM238.532 314.908C238.532 317.14 240.332 318.94 242.564 318.94C244.76 318.94 246.596 317.14 246.596 314.908C246.596 312.676 244.76 310.84 242.564 310.84C240.332 310.84 238.532 312.676 238.532 314.908ZM219.848 329.164C218.588 332.188 216.572 335.968 214.304 338.956L217.364 340.252C219.38 337.372 221.324 333.664 222.656 330.352C224.168 326.68 225.428 321.352 225.932 319.084C226.076 318.328 226.364 317.284 226.58 316.492L223.376 315.808C222.908 319.984 221.396 325.456 219.848 329.164ZM237.56 327.796C239.072 331.648 240.728 336.508 241.628 340.18L244.832 339.136C243.896 335.896 241.988 330.388 240.512 326.824C239 323.008 236.696 318.04 235.256 315.448L232.34 316.42C233.924 319.084 236.12 324.088 237.56 327.796ZM132.8 369.916L130.964 368.512C130.388 368.692 129.452 368.8 128.264 368.8H114.368C113.288 368.8 111.236 368.656 110.732 368.584V371.86C111.128 371.824 113.108 371.68 114.368 371.68H128.408C127.508 374.668 124.88 378.916 122.432 381.688C118.724 385.828 113.396 390.112 107.6 392.38L109.904 394.792C115.232 392.38 120.092 388.42 123.944 384.28C127.616 387.556 131.432 391.804 133.844 394.972L136.364 392.812C134.024 389.968 129.632 385.288 125.852 382.048C128.408 378.808 130.676 374.596 131.9 371.5C132.116 370.996 132.584 370.204 132.8 369.916ZM171.536 369.988L169.34 368.584C168.728 368.728 167.864 368.8 167.072 368.8H148.604C147.056 368.8 145.724 368.764 144.752 368.692C144.86 369.484 144.896 370.276 144.896 371.104V378.772C144.896 379.456 144.86 380.212 144.752 381.076H148.028C147.956 380.212 147.92 379.312 147.92 378.772V371.572H167.792C167.432 375.82 166.424 380.428 164.372 383.632C161.42 388.24 156.272 391.372 150.98 392.776L153.428 395.26C159.224 393.388 164.156 389.716 167.072 385.108C169.664 381.04 170.42 375.928 171.068 371.68C171.14 371.32 171.392 370.348 171.536 369.988ZM179.672 378.412V381.94C180.788 381.832 182.696 381.76 184.676 381.76H204.44C206.06 381.76 207.572 381.904 208.292 381.94V378.412C207.5 378.484 206.204 378.592 204.404 378.592H184.676C182.66 378.592 180.752 378.484 179.672 378.412ZM235.616 368.08L233.636 368.98C234.824 370.6 235.94 372.58 236.84 374.452L238.892 373.516C238.064 371.824 236.516 369.412 235.616 368.08ZM239.972 366.28L237.992 367.216C239.216 368.8 240.368 370.708 241.34 372.616L243.356 371.608C242.492 369.952 240.908 367.54 239.972 366.28ZM222.98 391.3C222.98 392.632 222.908 394.396 222.764 395.548H226.22C226.112 394.396 226.004 392.452 226.004 391.3V379.456C230 380.716 236.228 383.092 240.116 385.216L241.376 382.156C237.56 380.248 230.756 377.692 226.004 376.216V370.348C226.004 369.268 226.112 367.72 226.256 366.604H222.692C222.908 367.72 222.98 369.34 222.98 370.348V391.3ZM106.844 424.312L107.168 427.444C111.056 426.616 120.236 425.752 124.088 425.32C120.776 427.3 117.356 431.872 117.356 437.488C117.356 445.516 124.952 449.08 131.612 449.332L132.656 446.344C126.788 446.128 120.236 443.896 120.236 436.876C120.236 432.592 123.368 427.12 128.48 425.464C130.316 424.924 133.484 424.888 135.536 424.888V422.008C133.124 422.116 129.74 422.332 125.816 422.656C119.192 423.196 112.388 423.88 110.048 424.132C109.364 424.204 108.212 424.276 106.844 424.312ZM130.352 429.316L128.516 430.108C129.596 431.584 130.64 433.456 131.468 435.184L133.304 434.32C132.548 432.736 131.18 430.504 130.352 429.316ZM134.276 427.804L132.512 428.632C133.628 430.144 134.672 431.908 135.536 433.672L137.408 432.772C136.58 431.188 135.14 428.992 134.276 427.804ZM155.948 419.704L152.708 419.488C152.78 420.172 152.78 420.82 152.672 422.044C152.6 423.088 152.456 424.384 152.276 425.824C149.612 425.644 146.66 425.212 144.392 424.492L144.248 427.12C146.516 427.696 149.36 428.164 151.988 428.38C151.7 430.504 151.412 432.772 151.196 434.896C148.64 434.68 145.904 434.248 143.528 433.42L143.384 436.192C145.58 436.876 148.208 437.272 150.908 437.488C150.728 439.18 150.62 440.62 150.62 441.628C150.62 447.532 154.544 449.656 159.44 449.656C166.568 449.656 171.32 446.416 171.32 441.052C171.32 437.956 170.132 435.472 167.648 432.736L164.48 433.384C167.108 435.616 168.404 438.316 168.404 440.728C168.404 444.436 164.912 446.848 159.44 446.848C155.336 446.848 153.392 444.688 153.392 441.196C153.392 440.332 153.464 439.072 153.608 437.632C154.04 437.632 154.472 437.632 154.904 437.632C157.352 437.632 159.584 437.524 161.96 437.272L162.032 434.536C159.512 434.896 156.992 435.004 154.544 435.004C154.328 435.004 154.112 435.004 153.86 435.004C154.112 432.88 154.4 430.612 154.652 428.488C154.724 428.488 154.832 428.488 154.904 428.488C157.82 428.488 159.908 428.38 162.212 428.164L162.284 425.464C160.196 425.788 157.748 425.932 154.976 425.932C155.192 424.42 155.372 423.16 155.48 422.224C155.588 421.432 155.696 420.676 155.948 419.704ZM192.992 419.488L189.968 419.416C190.004 419.848 189.932 420.496 189.896 421.144C189.824 421.936 189.716 422.872 189.608 423.916C188.78 423.952 187.988 423.952 187.16 423.952C185.612 423.952 182.48 423.7 181.22 423.484L181.292 426.184C182.768 426.292 185.576 426.436 187.124 426.436C187.844 426.436 188.564 426.436 189.32 426.4C189.176 428.092 188.996 429.892 188.924 431.692C183.956 433.996 179.924 438.712 179.924 443.356C179.924 446.416 181.796 447.892 184.172 447.892C186.152 447.892 188.312 447.1 190.292 445.912C190.472 446.632 190.652 447.316 190.868 447.928L193.46 447.136C193.172 446.236 192.884 445.264 192.596 444.22C195.656 441.628 198.572 437.632 200.624 432.52C203.972 433.492 205.808 435.94 205.808 438.676C205.808 443.356 201.776 446.704 195.26 447.388L196.808 449.8C205.16 448.468 208.58 444.004 208.58 438.82C208.58 434.86 205.916 431.548 201.416 430.36C201.416 430.288 201.452 430.252 201.452 430.216C201.632 429.64 201.956 428.668 202.172 428.164L199.328 427.444C199.292 428.056 199.112 428.992 198.932 429.532C198.896 429.676 198.86 429.784 198.824 429.892C198.392 429.856 197.96 429.856 197.492 429.856C195.656 429.856 193.46 430.18 191.444 430.756C191.552 429.244 191.66 427.732 191.84 426.328C196.232 426.112 201.02 425.608 204.8 424.96L204.764 422.296C201.092 423.16 196.7 423.628 192.128 423.844C192.272 422.8 192.416 421.864 192.56 421.108C192.668 420.604 192.812 419.956 192.992 419.488ZM191.336 434.752C191.336 434.248 191.336 433.78 191.372 433.276C193.028 432.664 195.116 432.124 197.456 432.124C197.672 432.124 197.888 432.124 198.068 432.124C196.556 436.156 194.36 439.072 191.948 441.34C191.588 439.252 191.336 437.056 191.336 434.752ZM182.66 442.888C182.66 439.936 185.324 436.372 188.816 434.392C188.816 434.608 188.816 434.824 188.816 435.04C188.816 437.74 189.176 440.656 189.68 443.212C187.844 444.508 186.116 445.12 184.712 445.12C183.344 445.12 182.66 444.364 182.66 442.888ZM224.204 419.596L221.036 419.488C220.964 420.46 220.892 421.504 220.748 422.584C220.316 425.5 219.632 430.792 219.632 434.212C219.632 436.552 219.848 438.568 220.028 439.936L222.8 439.72C222.584 437.92 222.548 436.696 222.728 435.292C223.16 430.576 227.336 424.024 231.836 424.024C235.616 424.024 237.56 428.128 237.56 433.816C237.56 442.852 231.44 446.056 223.628 447.208L225.32 449.8C234.248 448.18 240.512 443.788 240.512 433.78C240.512 426.22 237.092 421.432 232.304 421.432C227.732 421.432 223.988 425.932 222.512 429.604C222.728 427.084 223.448 422.224 224.204 419.596ZM113.216 498.22C113.216 496.564 115.088 495.232 118.508 495.232C119.696 495.232 120.884 495.34 122 495.592C122 496.528 122.036 497.392 122.036 498.004C122.036 500.488 120.272 501.136 118.22 501.136C114.656 501.136 113.216 499.876 113.216 498.22ZM124.628 473.416H121.568C121.64 473.92 121.712 474.964 121.712 475.576C121.712 476.332 121.712 477.196 121.712 478.132C121.136 478.132 120.596 478.132 120.056 478.132C117.644 478.132 113.18 477.772 110.84 477.34L110.876 480.004C113.144 480.256 117.572 480.616 120.092 480.616C120.632 480.616 121.172 480.616 121.676 480.616C121.676 482.092 121.676 483.676 121.676 485.116C121.676 485.296 121.676 485.476 121.676 485.656C121.028 485.656 120.38 485.656 119.732 485.656C117.356 485.656 113.252 485.404 110.66 484.972L110.696 487.672C113.288 487.96 117.248 488.176 119.696 488.176C120.38 488.176 121.064 488.176 121.748 488.176C121.784 489.724 121.856 491.452 121.892 493.072C120.92 492.928 119.912 492.856 118.868 492.856C113.684 492.856 110.552 495.088 110.552 498.364C110.552 501.82 113.36 503.656 118.544 503.656C123.224 503.656 124.88 501.1 124.88 498.616C124.88 498.04 124.844 497.284 124.808 496.384C128.408 497.68 131.396 499.876 133.52 501.82L135.176 499.264C133.124 497.572 129.452 494.944 124.664 493.648C124.592 491.92 124.484 489.976 124.412 488.104C127.832 487.996 131 487.708 134.384 487.276L134.42 484.576C131.144 485.08 127.868 485.404 124.376 485.548C124.376 485.404 124.376 485.26 124.376 485.116C124.376 483.784 124.376 482.092 124.376 480.508C127.832 480.328 131.252 480.004 134.096 479.68L134.132 477.052C130.892 477.556 127.616 477.88 124.376 478.024C124.376 477.088 124.412 476.296 124.412 475.828C124.448 474.784 124.52 474.064 124.628 473.416ZM165.55 474.244H162.49C162.598 474.856 162.67 476.152 162.67 476.944V482.092C158.818 482.416 154.642 482.812 151.114 483.136C151.15 481.228 151.15 479.464 151.15 478.276C151.15 477.16 151.222 476.188 151.294 475.36H148.162C148.306 476.476 148.378 477.304 148.378 478.42C148.378 479.032 148.378 481.012 148.342 483.424C146.614 483.568 145.174 483.712 144.274 483.784C142.978 483.928 141.646 484 140.53 484L140.854 486.952C141.826 486.808 143.374 486.592 144.49 486.448C145.426 486.34 146.758 486.196 148.342 486.016C148.342 489.616 148.342 493.432 148.378 494.98C148.558 500.704 149.35 502.612 157.666 502.612C161.302 502.612 165.694 502.288 168.106 502.036L168.214 498.976C165.874 499.408 161.41 499.84 157.522 499.84C151.294 499.84 151.222 498.472 151.114 494.584C151.078 493.18 151.078 489.436 151.114 485.728C154.714 485.368 158.926 484.936 162.634 484.648C162.562 486.916 162.418 489.364 162.238 490.552C162.13 491.38 161.734 491.524 160.87 491.524C160.042 491.524 158.494 491.344 157.27 491.056L157.198 493.54C158.17 493.72 160.654 494.044 161.95 494.044C163.606 494.044 164.398 493.576 164.722 491.992C165.082 490.3 165.154 487.096 165.226 484.468C166.81 484.36 168.178 484.288 169.258 484.252C170.158 484.252 171.526 484.216 172.102 484.252V481.444C171.238 481.48 170.23 481.552 169.294 481.624C168.106 481.696 166.738 481.768 165.298 481.876C165.334 480.292 165.334 478.492 165.37 476.836C165.406 476.08 165.442 474.856 165.55 474.244ZM194.602 475.288L191.434 473.992C191.002 475.036 190.534 475.936 190.102 476.764C188.158 480.256 180.274 495.016 177.646 502.288L180.742 503.368C181.21 501.568 182.758 497.32 183.838 495.16C185.242 492.352 187.942 489.4 190.858 489.4C192.478 489.4 193.378 490.336 193.486 491.92C193.594 493.9 193.522 496.672 193.63 498.76C193.774 500.884 194.998 503.332 198.85 503.332C204.07 503.332 207.094 499.3 209.002 493.504L206.626 491.56C205.69 495.376 203.314 500.344 199.318 500.344C197.734 500.344 196.51 499.588 196.402 497.788C196.294 496.024 196.33 493.252 196.258 491.128C196.15 488.284 194.422 486.772 192.046 486.772C190.318 486.772 188.41 487.42 186.682 489.004C188.554 485.512 191.866 479.536 193.45 477.052C193.882 476.368 194.278 475.72 194.602 475.288Z" fill="#F5EACA"/>
<rect x="328" y="419" width="395" height="9" rx="4.5" fill="#F5EACA"/>
<circle cx="520" cy="424" r="17" fill="#F5EACA"/>
<rect x="486" y="354" width="68" height="44" rx="6" fill="#F5EACA"/>
<path d="M513.052 387V383.192H503.98V380.476L511.904 367.456H516.048V380.7H518.708V383.192H516.048V387H513.052ZM506.668 380.7H513.052V370.34H512.856L506.668 380.7ZM534.013 370.2H525.333L524.829 377.116H525.025C525.249 376.724 525.482 376.379 525.725 376.08C525.968 375.763 526.248 375.492 526.565 375.268C526.882 375.044 527.246 374.876 527.657 374.764C528.068 374.633 528.553 374.568 529.113 374.568C529.953 374.568 530.728 374.708 531.437 374.988C532.165 375.268 532.79 375.669 533.313 376.192C533.854 376.715 534.274 377.359 534.573 378.124C534.872 378.871 535.021 379.72 535.021 380.672C535.021 381.643 534.862 382.539 534.545 383.36C534.246 384.181 533.798 384.891 533.201 385.488C532.604 386.067 531.866 386.524 530.989 386.86C530.13 387.177 529.15 387.336 528.049 387.336C527.172 387.336 526.397 387.233 525.725 387.028C525.053 386.841 524.456 386.589 523.933 386.272C523.429 385.936 522.981 385.563 522.589 385.152C522.216 384.723 521.88 384.284 521.581 383.836L523.877 382.016C524.12 382.408 524.372 382.763 524.633 383.08C524.894 383.397 525.193 383.677 525.529 383.92C525.865 384.163 526.238 384.349 526.649 384.48C527.078 384.611 527.564 384.676 528.105 384.676C529.262 384.676 530.149 384.359 530.765 383.724C531.4 383.089 531.717 382.212 531.717 381.092V380.756C531.717 379.636 531.4 378.759 530.765 378.124C530.149 377.489 529.262 377.172 528.105 377.172C527.265 377.172 526.593 377.331 526.089 377.648C525.585 377.965 525.156 378.32 524.801 378.712L522.197 378.348L522.925 367.456H534.013V370.2Z" fill="#01D5E1"/>
<rect x="331" y="276" width="172" height="47" rx="4" fill="#F5EACA"/>
<path d="M362.632 291.248V301.568C362.632 302.992 362.904 304.064 363.448 304.784C363.992 305.504 364.92 305.864 366.232 305.864C367.544 305.864 368.472 305.504 369.016 304.784C369.56 304.064 369.832 302.992 369.832 301.568V291.248H372.496V301.136C372.496 302.368 372.384 303.432 372.16 304.328C371.936 305.224 371.576 305.968 371.08 306.56C370.584 307.136 369.936 307.568 369.136 307.856C368.352 308.144 367.384 308.288 366.232 308.288C365.08 308.288 364.104 308.144 363.304 307.856C362.52 307.568 361.88 307.136 361.384 306.56C360.888 305.968 360.528 305.224 360.304 304.328C360.08 303.432 359.968 302.368 359.968 301.136V291.248H362.632ZM376.325 295.52H378.941V297.584H379.061C379.333 296.832 379.773 296.256 380.381 295.856C381.005 295.44 381.733 295.232 382.565 295.232C384.149 295.232 385.373 295.808 386.237 296.96C387.101 298.096 387.533 299.696 387.533 301.76C387.533 303.824 387.101 305.432 386.237 306.584C385.373 307.72 384.149 308.288 382.565 308.288C381.733 308.288 381.005 308.08 380.381 307.664C379.773 307.248 379.333 306.672 379.061 305.936H378.941V312.8H376.325V295.52ZM381.773 306.032C382.685 306.032 383.413 305.744 383.957 305.168C384.501 304.576 384.773 303.8 384.773 302.84V300.68C384.773 299.72 384.501 298.952 383.957 298.376C383.413 297.784 382.685 297.488 381.773 297.488C380.973 297.488 380.301 297.688 379.757 298.088C379.213 298.472 378.941 298.984 378.941 299.624V303.896C378.941 304.536 379.213 305.056 379.757 305.456C380.301 305.84 380.973 306.032 381.773 306.032ZM390.528 295.52H393.144V297.584H393.264C393.536 296.832 393.976 296.256 394.584 295.856C395.208 295.44 395.936 295.232 396.768 295.232C398.352 295.232 399.576 295.808 400.44 296.96C401.304 298.096 401.736 299.696 401.736 301.76C401.736 303.824 401.304 305.432 400.44 306.584C399.576 307.72 398.352 308.288 396.768 308.288C395.936 308.288 395.208 308.08 394.584 307.664C393.976 307.248 393.536 306.672 393.264 305.936H393.144V312.8H390.528V295.52ZM395.976 306.032C396.888 306.032 397.616 305.744 398.16 305.168C398.704 304.576 398.976 303.8 398.976 302.84V300.68C398.976 299.72 398.704 298.952 398.16 298.376C397.616 297.784 396.888 297.488 395.976 297.488C395.176 297.488 394.504 297.688 393.96 298.088C393.416 298.472 393.144 298.984 393.144 299.624V303.896C393.144 304.536 393.416 305.056 393.96 305.456C394.504 305.84 395.176 306.032 395.976 306.032ZM409.627 308.288C408.731 308.288 407.931 308.136 407.227 307.832C406.523 307.528 405.923 307.096 405.427 306.536C404.931 305.96 404.547 305.272 404.275 304.472C404.019 303.656 403.891 302.752 403.891 301.76C403.891 300.768 404.019 299.872 404.275 299.072C404.547 298.256 404.931 297.568 405.427 297.008C405.923 296.432 406.523 295.992 407.227 295.688C407.931 295.384 408.731 295.232 409.627 295.232C410.539 295.232 411.339 295.392 412.027 295.712C412.731 296.032 413.315 296.48 413.779 297.056C414.243 297.616 414.587 298.272 414.811 299.024C415.051 299.776 415.171 300.584 415.171 301.448V302.432H406.603V302.84C406.603 303.8 406.883 304.592 407.443 305.216C408.019 305.824 408.835 306.128 409.891 306.128C410.659 306.128 411.307 305.96 411.835 305.624C412.363 305.288 412.811 304.832 413.179 304.256L414.715 305.768C414.251 306.536 413.579 307.152 412.699 307.616C411.819 308.064 410.795 308.288 409.627 308.288ZM409.627 297.272C409.179 297.272 408.763 297.352 408.379 297.512C408.011 297.672 407.691 297.896 407.419 298.184C407.163 298.472 406.963 298.816 406.819 299.216C406.675 299.616 406.603 300.056 406.603 300.536V300.704H412.411V300.464C412.411 299.504 412.163 298.736 411.667 298.16C411.171 297.568 410.491 297.272 409.627 297.272ZM418.067 308V295.52H420.683V297.92H420.803C420.979 297.28 421.347 296.72 421.907 296.24C422.467 295.76 423.243 295.52 424.235 295.52H424.931V298.04H423.899C422.859 298.04 422.059 298.208 421.499 298.544C420.955 298.88 420.683 299.376 420.683 300.032V308H418.067ZM431.962 308.288C431.066 308.288 430.266 308.136 429.562 307.832C428.858 307.528 428.266 307.096 427.786 306.536C427.306 305.96 426.938 305.272 426.682 304.472C426.426 303.656 426.298 302.752 426.298 301.76C426.298 300.768 426.426 299.872 426.682 299.072C426.938 298.256 427.306 297.568 427.786 297.008C428.266 296.432 428.858 295.992 429.562 295.688C430.266 295.384 431.066 295.232 431.962 295.232C433.21 295.232 434.234 295.512 435.034 296.072C435.834 296.632 436.418 297.376 436.786 298.304L434.626 299.312C434.45 298.736 434.138 298.28 433.69 297.944C433.258 297.592 432.682 297.416 431.962 297.416C431.002 297.416 430.274 297.72 429.778 298.328C429.298 298.92 429.058 299.696 429.058 300.656V302.888C429.058 303.848 429.298 304.632 429.778 305.24C430.274 305.832 431.002 306.128 431.962 306.128C432.73 306.128 433.338 305.944 433.786 305.576C434.25 305.192 434.618 304.688 434.89 304.064L436.882 305.12C436.466 306.144 435.842 306.928 435.01 307.472C434.178 308.016 433.162 308.288 431.962 308.288ZM448.516 308C447.828 308 447.3 307.808 446.932 307.424C446.564 307.024 446.34 306.52 446.26 305.912H446.14C445.9 306.696 445.46 307.288 444.82 307.688C444.18 308.088 443.404 308.288 442.492 308.288C441.196 308.288 440.196 307.952 439.492 307.28C438.804 306.608 438.46 305.704 438.46 304.568C438.46 303.32 438.908 302.384 439.804 301.76C440.716 301.136 442.044 300.824 443.788 300.824H446.044V299.768C446.044 299 445.836 298.408 445.42 297.992C445.004 297.576 444.356 297.368 443.476 297.368C442.74 297.368 442.14 297.528 441.676 297.848C441.212 298.168 440.82 298.576 440.5 299.072L438.94 297.656C439.356 296.952 439.94 296.376 440.692 295.928C441.444 295.464 442.428 295.232 443.644 295.232C445.26 295.232 446.5 295.608 447.364 296.36C448.228 297.112 448.66 298.192 448.66 299.6V305.864H449.98V308H448.516ZM443.236 306.296C444.052 306.296 444.724 306.12 445.252 305.768C445.78 305.4 446.044 304.912 446.044 304.304V302.504H443.836C442.028 302.504 441.124 303.064 441.124 304.184V304.616C441.124 305.176 441.308 305.6 441.676 305.888C442.06 306.16 442.58 306.296 443.236 306.296ZM456.504 308.288C455.32 308.288 454.328 308.08 453.528 307.664C452.728 307.248 452.032 306.672 451.44 305.936L453.12 304.4C453.584 304.96 454.096 305.4 454.656 305.72C455.232 306.024 455.896 306.176 456.648 306.176C457.416 306.176 457.984 306.032 458.352 305.744C458.736 305.44 458.928 305.024 458.928 304.496C458.928 304.096 458.792 303.76 458.52 303.488C458.264 303.2 457.808 303.016 457.152 302.936L456 302.792C454.72 302.632 453.712 302.264 452.976 301.688C452.256 301.096 451.896 300.224 451.896 299.072C451.896 298.464 452.008 297.928 452.232 297.464C452.456 296.984 452.768 296.584 453.168 296.264C453.584 295.928 454.072 295.672 454.632 295.496C455.208 295.32 455.84 295.232 456.528 295.232C457.648 295.232 458.56 295.408 459.264 295.76C459.984 296.112 460.624 296.6 461.184 297.224L459.576 298.76C459.256 298.376 458.832 298.048 458.304 297.776C457.792 297.488 457.2 297.344 456.528 297.344C455.808 297.344 455.272 297.488 454.92 297.776C454.584 298.064 454.416 298.44 454.416 298.904C454.416 299.384 454.568 299.744 454.872 299.984C455.176 300.224 455.664 300.4 456.336 300.512L457.488 300.656C458.864 300.864 459.864 301.272 460.488 301.88C461.128 302.472 461.448 303.272 461.448 304.28C461.448 304.888 461.328 305.44 461.088 305.936C460.864 306.416 460.536 306.832 460.104 307.184C459.672 307.536 459.152 307.808 458.544 308C457.936 308.192 457.256 308.288 456.504 308.288ZM469.299 308.288C468.403 308.288 467.603 308.136 466.899 307.832C466.195 307.528 465.595 307.096 465.099 306.536C464.603 305.96 464.219 305.272 463.947 304.472C463.691 303.656 463.563 302.752 463.563 301.76C463.563 300.768 463.691 299.872 463.947 299.072C464.219 298.256 464.603 297.568 465.099 297.008C465.595 296.432 466.195 295.992 466.899 295.688C467.603 295.384 468.403 295.232 469.299 295.232C470.211 295.232 471.011 295.392 471.699 295.712C472.403 296.032 472.987 296.48 473.451 297.056C473.915 297.616 474.259 298.272 474.483 299.024C474.723 299.776 474.843 300.584 474.843 301.448V302.432H466.275V302.84C466.275 303.8 466.555 304.592 467.115 305.216C467.691 305.824 468.507 306.128 469.563 306.128C470.331 306.128 470.979 305.96 471.507 305.624C472.035 305.288 472.483 304.832 472.851 304.256L474.387 305.768C473.923 306.536 473.251 307.152 472.371 307.616C471.491 308.064 470.467 308.288 469.299 308.288ZM469.299 297.272C468.851 297.272 468.435 297.352 468.051 297.512C467.683 297.672 467.363 297.896 467.091 298.184C466.835 298.472 466.635 298.816 466.491 299.216C466.347 299.616 466.275 300.056 466.275 300.536V300.704H472.083V300.464C472.083 299.504 471.835 298.736 471.339 298.16C470.843 297.568 470.163 297.272 469.299 297.272Z" fill="#01D5E1"/>
<rect x="539" y="278" width="143" height="43" rx="2" stroke="#F5EACA" stroke-width="4" stroke-linejoin="round" stroke-dasharray="5 5"/>
<path d="M570.08 308.288C568.672 308.288 567.472 308.032 566.48 307.52C565.504 307.008 564.664 306.32 563.96 305.456L565.832 303.704C566.424 304.424 567.072 304.968 567.776 305.336C568.496 305.704 569.312 305.888 570.224 305.888C571.296 305.888 572.104 305.648 572.648 305.168C573.192 304.688 573.464 304.04 573.464 303.224C573.464 302.568 573.272 302.048 572.888 301.664C572.504 301.28 571.824 300.992 570.848 300.8L569.36 300.536C567.728 300.232 566.504 299.696 565.688 298.928C564.872 298.16 564.464 297.104 564.464 295.76C564.464 295.024 564.6 294.36 564.872 293.768C565.16 293.16 565.552 292.656 566.048 292.256C566.56 291.84 567.176 291.52 567.896 291.296C568.616 291.072 569.424 290.96 570.32 290.96C571.584 290.96 572.68 291.184 573.608 291.632C574.536 292.064 575.328 292.696 575.984 293.528L574.088 295.208C573.656 294.648 573.128 294.2 572.504 293.864C571.88 293.528 571.104 293.36 570.176 293.36C569.216 293.36 568.472 293.552 567.944 293.936C567.416 294.32 567.152 294.88 567.152 295.616C567.152 296.32 567.368 296.848 567.8 297.2C568.232 297.536 568.904 297.792 569.816 297.968L571.304 298.28C572.984 298.6 574.208 299.144 574.976 299.912C575.76 300.68 576.152 301.736 576.152 303.08C576.152 303.864 576.016 304.576 575.744 305.216C575.472 305.856 575.072 306.408 574.544 306.872C574.032 307.32 573.4 307.672 572.648 307.928C571.896 308.168 571.04 308.288 570.08 308.288ZM586.872 295.52H589.392L584.136 310.472C583.992 310.888 583.824 311.24 583.632 311.528C583.456 311.832 583.24 312.072 582.984 312.248C582.744 312.44 582.448 312.576 582.096 312.656C581.744 312.752 581.328 312.8 580.848 312.8H579.336V310.664H581.448L582.168 308.552L577.632 295.52H580.248L582.744 302.864L583.464 305.576H583.584L584.376 302.864L586.872 295.52ZM591.544 308V295.52H594.16V297.584H594.28C594.408 297.264 594.56 296.96 594.736 296.672C594.928 296.384 595.152 296.136 595.408 295.928C595.68 295.704 595.992 295.536 596.344 295.424C596.712 295.296 597.136 295.232 597.616 295.232C598.464 295.232 599.216 295.44 599.872 295.856C600.528 296.272 601.008 296.912 601.312 297.776H601.384C601.608 297.072 602.04 296.472 602.68 295.976C603.32 295.48 604.144 295.232 605.152 295.232C606.4 295.232 607.368 295.656 608.056 296.504C608.744 297.336 609.088 298.528 609.088 300.08V308H606.472V300.392C606.472 299.432 606.288 298.712 605.92 298.232C605.552 297.736 604.968 297.488 604.168 297.488C603.832 297.488 603.512 297.536 603.208 297.632C602.904 297.712 602.632 297.84 602.392 298.016C602.168 298.192 601.984 298.416 601.84 298.688C601.696 298.96 601.624 299.272 601.624 299.624V308H599.008V300.392C599.008 298.456 598.248 297.488 596.728 297.488C596.408 297.488 596.088 297.536 595.768 297.632C595.464 297.712 595.192 297.84 594.952 298.016C594.712 298.192 594.52 298.416 594.376 298.688C594.232 298.96 594.16 299.272 594.16 299.624V308H591.544ZM612.708 290.24H615.324V297.584H615.444C615.716 296.832 616.156 296.256 616.764 295.856C617.388 295.44 618.116 295.232 618.948 295.232C620.532 295.232 621.756 295.808 622.62 296.96C623.484 298.096 623.916 299.696 623.916 301.76C623.916 303.824 623.484 305.432 622.62 306.584C621.756 307.72 620.532 308.288 618.948 308.288C618.116 308.288 617.388 308.08 616.764 307.664C616.156 307.248 615.716 306.672 615.444 305.936H615.324V308H612.708V290.24ZM618.156 306.032C619.068 306.032 619.796 305.744 620.34 305.168C620.884 304.576 621.156 303.8 621.156 302.84V300.68C621.156 299.72 620.884 298.952 620.34 298.376C619.796 297.784 619.068 297.488 618.156 297.488C617.356 297.488 616.684 297.688 616.14 298.088C615.596 298.472 615.324 298.984 615.324 299.624V303.896C615.324 304.536 615.596 305.056 616.14 305.456C616.684 305.84 617.356 306.032 618.156 306.032ZM631.807 308.288C630.943 308.288 630.151 308.136 629.431 307.832C628.727 307.528 628.127 307.096 627.631 306.536C627.135 305.96 626.751 305.272 626.479 304.472C626.207 303.656 626.071 302.752 626.071 301.76C626.071 300.768 626.207 299.872 626.479 299.072C626.751 298.256 627.135 297.568 627.631 297.008C628.127 296.432 628.727 295.992 629.431 295.688C630.151 295.384 630.943 295.232 631.807 295.232C632.671 295.232 633.455 295.384 634.159 295.688C634.879 295.992 635.487 296.432 635.983 297.008C636.479 297.568 636.863 298.256 637.135 299.072C637.407 299.872 637.543 300.768 637.543 301.76C637.543 302.752 637.407 303.656 637.135 304.472C636.863 305.272 636.479 305.96 635.983 306.536C635.487 307.096 634.879 307.528 634.159 307.832C633.455 308.136 632.671 308.288 631.807 308.288ZM631.807 306.128C632.703 306.128 633.423 305.856 633.967 305.312C634.511 304.752 634.783 303.92 634.783 302.816V300.704C634.783 299.6 634.511 298.776 633.967 298.232C633.423 297.672 632.703 297.392 631.807 297.392C630.911 297.392 630.191 297.672 629.647 298.232C629.103 298.776 628.831 299.6 628.831 300.704V302.816C628.831 303.92 629.103 304.752 629.647 305.312C630.191 305.856 630.911 306.128 631.807 306.128ZM643.122 308C642.226 308 641.554 307.776 641.106 307.328C640.674 306.864 640.458 306.224 640.458 305.408V290.24H643.074V305.864H644.802V308H643.122ZM651.262 308.288C650.078 308.288 649.086 308.08 648.286 307.664C647.486 307.248 646.79 306.672 646.198 305.936L647.878 304.4C648.342 304.96 648.854 305.4 649.414 305.72C649.99 306.024 650.654 306.176 651.406 306.176C652.174 306.176 652.742 306.032 653.11 305.744C653.494 305.44 653.686 305.024 653.686 304.496C653.686 304.096 653.55 303.76 653.278 303.488C653.022 303.2 652.566 303.016 651.91 302.936L650.758 302.792C649.478 302.632 648.47 302.264 647.734 301.688C647.014 301.096 646.654 300.224 646.654 299.072C646.654 298.464 646.766 297.928 646.99 297.464C647.214 296.984 647.526 296.584 647.926 296.264C648.342 295.928 648.83 295.672 649.39 295.496C649.966 295.32 650.598 295.232 651.286 295.232C652.406 295.232 653.318 295.408 654.022 295.76C654.742 296.112 655.382 296.6 655.942 297.224L654.334 298.76C654.014 298.376 653.59 298.048 653.062 297.776C652.55 297.488 651.958 297.344 651.286 297.344C650.566 297.344 650.03 297.488 649.678 297.776C649.342 298.064 649.174 298.44 649.174 298.904C649.174 299.384 649.326 299.744 649.63 299.984C649.934 300.224 650.422 300.4 651.094 300.512L652.246 300.656C653.622 300.864 654.622 301.272 655.246 301.88C655.886 302.472 656.206 303.272 656.206 304.28C656.206 304.888 656.086 305.44 655.846 305.936C655.622 306.416 655.294 306.832 654.862 307.184C654.43 307.536 653.91 307.808 653.302 308C652.694 308.192 652.014 308.288 651.262 308.288Z" fill="#F5EACA"/>
<defs>
<filter id="filter0_d" x="328" y="467" width="395" height="72" filterUnits="userSpaceOnUse" color-interpolation-filters="sRGB">
<feFlood flood-opacity="0" result="BackgroundImageFix"/>
<feColorMatrix in="SourceAlpha" type="matrix" values="0 0 0 0 0 0 0 0 0 0 0 0 0 0 0 0 0 0 127 0"/>
<feOffset dy="7"/>
<feColorMatrix type="matrix" values="0 0 0 0 0.87451 0 0 0 0 0.827451 0 0 0 0 0.705882 0 0 0 1 0"/>
<feBlend mode="normal" in2="BackgroundImageFix" result="effect1_dropShadow"/>
<feBlend mode="normal" in="SourceGraphic" in2="effect1_dropShadow" result="shape"/>
</filter>
</defs>
</svg>
