<svg width="219" height="119" viewBox="0 0 219 119" fill="none" xmlns="http://www.w3.org/2000/svg">
<path d="M187.044 5.91845C186.417 6.38773 186.174 7.06407 186.32 7.75373C186.369 7.98362 186.464 8.20369 186.596 8.36794C188.244 10.6608 190.813 12.2776 193.585 12.7945C196.403 13.3016 199.377 12.7184 201.765 11.2025L203.147 10.1885C203.774 9.71918 204.354 9.25975 204.973 8.98421C205.98 8.48227 207.279 8.44677 208.62 8.8349C209.802 9.16055 211.006 9.81787 212.437 10.8595C213.195 11.4674 214.327 11.3234 214.931 10.5225C215.545 9.7675 215.404 8.64438 214.599 8.04635C212.868 6.73201 211.244 5.92343 209.643 5.44651C207.483 4.84784 205.331 4.96831 203.52 5.78511C202.55 6.23124 201.721 6.88762 201.012 7.42254C200.587 7.70474 200.219 8.02306 199.832 8.24946C198.218 9.31263 196.217 9.68933 194.301 9.3272C192.385 8.96507 190.647 7.84447 189.545 6.30057C188.989 5.50564 187.846 5.36387 187.044 5.91845Z" fill="white" fill-opacity="0.36"/>
<path d="M213.551 23.4041C214.121 22.8987 214.299 22.1402 214.06 21.4702C214.011 21.2403 213.87 21.0301 213.646 20.8855C211.729 18.6976 208.977 17.3597 206.069 17.1121C203.17 16.9104 200.219 17.8251 197.991 19.6433C197.54 20.0273 197.099 20.4573 196.694 20.8314C196.134 21.3828 195.563 21.8882 195.01 22.2459C194.023 22.8398 192.707 23.0231 191.303 22.7925C190.094 22.5687 188.77 22.0328 187.219 21.1126C186.378 20.5703 185.23 20.8621 184.738 21.7353C184.199 22.6184 184.48 23.712 185.367 24.2444C187.31 25.4176 188.997 26.0686 190.708 26.3781C192.968 26.7634 195.164 26.3934 196.88 25.3565C197.821 24.7725 198.538 24.0438 199.227 23.417C199.632 23.0428 199.944 22.6883 200.322 22.4159C201.85 21.1787 203.849 20.5623 205.818 20.7208C207.742 20.8892 209.626 21.7866 210.96 23.2813C211.645 24.0008 212.825 24.0868 213.551 23.4041Z" fill="white" fill-opacity="0.36"/>
<path d="M22.3331 109.032H22.3332C22.8094 109.032 23.2856 108.651 23.4761 108.08C23.6666 107.413 23.2856 106.746 22.6188 106.556C20.0471 105.794 18.3326 105.603 15.3799 105.794C14.7131 105.889 14.2369 106.46 14.2369 107.127C14.3322 107.794 14.9037 108.27 15.5704 108.27C18.1422 108.08 19.6661 108.27 21.9521 108.937C22.1425 109.032 22.2378 109.032 22.3331 109.032Z" fill="white" fill-opacity="0.36"/>
<path d="M11.4746 117.51C11.6651 117.986 12.1413 118.271 12.6176 118.271C12.7128 118.271 12.9033 118.271 12.9033 118.176C13.5701 117.986 13.8559 117.319 13.6654 116.652C13.0939 114.842 12.7128 113.033 12.6176 111.128C12.6176 110.461 12.0461 109.985 11.3794 109.985C10.7126 109.985 10.2363 110.556 10.2363 111.223C10.3315 113.414 10.7126 115.509 11.4746 117.51Z" fill="white" fill-opacity="0.36"/>
<path d="M0.235075 111.985C0.425575 112.271 0.806589 112.461 1.18759 112.461C1.47334 112.461 1.75911 112.366 1.94961 112.175C3.47361 110.937 5.18814 109.889 6.99789 109.032C7.56939 108.746 7.85511 107.984 7.56936 107.413C7.28361 106.841 6.52154 106.556 5.95004 106.841C3.94979 107.794 2.14013 108.937 0.425626 110.27C-0.0506237 110.651 -0.145925 111.413 0.235075 111.985Z" fill="white" fill-opacity="0.36"/>
<path d="M6.14065 103.127C6.4264 103.508 6.80735 103.793 7.2836 103.793H7.28381C7.47424 103.793 7.66464 103.793 7.75985 103.698C8.33136 103.413 8.61708 102.65 8.33133 102.079C7.75983 100.841 6.99786 99.8882 5.75961 98.3642C5.47386 97.9832 5.09288 97.507 4.71188 97.0307C4.33088 96.5545 3.56884 96.4592 2.99734 96.8402C2.52109 97.2212 2.42585 97.9832 2.80685 98.5547C3.18785 99.031 3.56883 99.5072 3.85458 99.8882C4.99758 101.317 5.6644 102.174 6.14065 103.127Z" fill="white" fill-opacity="0.36"/>
<path d="M12.4271 103.317C12.7128 103.412 12.9034 103.508 13.1892 103.508C13.5702 103.508 13.8558 103.317 14.0463 103.127C15.2845 101.412 16.4275 99.6025 17.38 97.7927C17.761 97.2212 17.4753 96.4592 16.9038 96.1735C16.3323 95.7925 15.5704 96.0782 15.2846 96.6497C14.3321 98.3642 13.2843 99.9835 12.1413 101.603C11.7603 102.174 11.8556 102.936 12.4271 103.317Z" fill="white" fill-opacity="0.36"/>
</svg>
