<svg width="24" height="23" viewBox="0 0 24 23" fill="none" xmlns="http://www.w3.org/2000/svg">
<path d="M22.3331 13.0322H22.3332C22.8094 13.0322 23.2856 12.6512 23.4761 12.0797C23.6666 11.413 23.2856 10.7462 22.6188 10.5557C20.0471 9.79374 18.3326 9.60322 15.3799 9.79372C14.7131 9.88897 14.2369 10.4605 14.2369 11.1272C14.3322 11.794 14.9037 12.2702 15.5704 12.2702C18.1422 12.0797 19.6661 12.2702 21.9521 12.937C22.1425 13.0322 22.2378 13.0322 22.3331 13.0322Z" fill="white" fill-opacity="0.36"/>
<path d="M11.4746 21.5095C11.6651 21.9858 12.1413 22.2715 12.6176 22.2715C12.7128 22.2715 12.9033 22.2715 12.9033 22.1762C13.5701 21.9857 13.8559 21.319 13.6654 20.6522C13.0939 18.8425 12.7128 17.0327 12.6176 15.1277C12.6176 14.461 12.0461 13.9847 11.3794 13.9847C10.7126 13.9847 10.2363 14.5562 10.2363 15.223C10.3315 17.4137 10.7126 19.5093 11.4746 21.5095Z" fill="white" fill-opacity="0.36"/>
<path d="M0.235075 15.985C0.425575 16.2707 0.806589 16.4612 1.18759 16.4612C1.47334 16.4612 1.75911 16.366 1.94961 16.1755C3.47361 14.9372 5.18814 13.8895 6.99789 13.0322C7.56939 12.7465 7.85511 11.9845 7.56936 11.413C7.28361 10.8415 6.52154 10.5557 5.95004 10.8415C3.94979 11.794 2.14013 12.937 0.425626 14.2705C-0.0506237 14.6515 -0.145925 15.4135 0.235075 15.985Z" fill="white" fill-opacity="0.36"/>
<path d="M6.14065 7.12673C6.4264 7.50773 6.80735 7.79347 7.2836 7.79347H7.28381C7.47424 7.79347 7.66464 7.79347 7.75985 7.69826C8.33136 7.41251 8.61708 6.6505 8.33133 6.079C7.75983 4.84075 6.99786 3.88824 5.75961 2.36424C5.47386 1.98324 5.09288 1.507 4.71188 1.03075C4.33088 0.554498 3.56884 0.459227 2.99734 0.840227C2.52109 1.22123 2.42585 1.98324 2.80685 2.55474C3.18785 3.03099 3.56883 3.50723 3.85458 3.88823C4.99758 5.31698 5.6644 6.17423 6.14065 7.12673Z" fill="white" fill-opacity="0.36"/>
<path d="M12.4271 7.31722C12.7128 7.41247 12.9034 7.50774 13.1892 7.50774C13.5702 7.50774 13.8558 7.31723 14.0463 7.12673C15.2845 5.41223 16.4275 3.60249 17.38 1.79274C17.761 1.22124 17.4753 0.459229 16.9038 0.173479C16.3323 -0.207521 15.5704 0.0782365 15.2846 0.649736C14.3321 2.36424 13.2843 3.98349 12.1413 5.60274C11.7603 6.17424 11.8556 6.93622 12.4271 7.31722Z" fill="white" fill-opacity="0.36"/>
</svg>
