<svg width="38" height="30" viewBox="0 0 38 30" fill="none" xmlns="http://www.w3.org/2000/svg">
<path d="M6.04376 5.91845C5.41737 6.38773 5.1737 7.06407 5.32007 7.75373C5.36886 7.98362 5.46398 8.20369 5.59564 8.36794C7.24385 10.6608 9.81336 12.2776 12.585 12.7945C15.403 13.3016 18.3768 12.7184 20.7654 11.2025L22.1474 10.1885C22.7738 9.71918 23.3539 9.25975 23.973 8.98421C24.9796 8.48227 26.2789 8.44677 27.6196 8.8349C28.8019 9.16055 30.0062 9.81787 31.4373 10.8595C32.1955 11.4674 33.3265 11.3234 33.9309 10.5225C34.5451 9.7675 34.4035 8.64438 33.599 8.04635C31.8681 6.73201 30.2445 5.92343 28.6429 5.44651C26.483 4.84784 24.3307 4.96831 22.5196 5.78511C21.5495 6.23124 20.7208 6.88762 20.0116 7.42254C19.5875 7.70474 19.2194 8.02306 18.8319 8.24946C17.2184 9.31263 15.2172 9.68933 13.3011 9.3272C11.3851 8.96507 9.64688 7.84447 8.54483 6.30057C7.98892 5.50564 6.84565 5.36387 6.04376 5.91845Z" fill="white" fill-opacity="0.36"/>
<path d="M32.5509 23.4041C33.1212 22.8987 33.299 22.1402 33.06 21.4702C33.0112 21.2403 32.8698 21.0301 32.6455 20.8855C30.7292 18.6976 27.9769 17.3597 25.0688 17.1121C22.1704 16.9104 19.2186 17.8251 16.9909 19.6433C16.54 20.0273 16.0989 20.4573 15.6943 20.8314C15.1337 21.3828 14.5634 21.8882 14.0101 22.2459C13.023 22.8398 11.7067 23.0231 10.3026 22.7925C9.0935 22.5687 7.76978 22.0328 6.2193 21.1126C5.37824 20.5703 4.23017 20.8621 3.73791 21.7353C3.19934 22.6184 3.47985 23.712 4.36723 24.2444C6.31021 25.4176 7.99715 26.0686 9.70841 26.3781C11.9682 26.7634 14.1644 26.3934 15.8803 25.3565C16.8211 24.7725 17.5377 24.0438 18.2274 23.417C18.632 23.0428 18.9439 22.6883 19.3217 22.4159C20.8499 21.1787 22.8487 20.5623 24.8183 20.7208C26.7416 20.8892 28.626 21.7866 29.9597 23.2813C30.6448 24.0008 31.8246 24.0868 32.5509 23.4041Z" fill="white" fill-opacity="0.36"/>
</svg>
