<svg width="32" height="32" viewBox="0 0 32 32" fill="none" xmlns="http://www.w3.org/2000/svg">
<path d="M3.55556 0H28.4444C29.3874 0 30.2918 0.374602 30.9586 1.0414C31.6254 1.70819 32 2.61256 32 3.55556V28.4444C32 29.3874 31.6254 30.2918 30.9586 30.9586C30.2918 31.6254 29.3874 32 28.4444 32H3.55556C2.61256 32 1.70819 31.6254 1.0414 30.9586C0.374602 30.2918 0 29.3874 0 28.4444V3.55556C0 2.61256 0.374602 1.70819 1.0414 1.0414C1.70819 0.374602 2.61256 0 3.55556 0V0ZM26.1458 11.2498C26.9991 10.5387 27.9947 9.69067 28.4427 8.74844C27.7138 9.11111 26.8516 9.34756 25.8844 9.47911C26.7698 8.83022 27.4951 8.02489 27.8684 6.86756C26.9564 7.35111 26.0107 7.792 24.8427 8.01778C22.0871 4.67556 15.488 7.37422 16.6507 12.3467C12.016 12.0622 9.19111 9.96444 6.84267 7.38844C5.504 9.56622 6.66844 12.8533 8.25244 13.7529C7.43467 13.7049 6.81422 13.4507 6.21867 13.1804C6.30044 15.9182 7.80978 17.2213 9.92178 17.9307C9.25339 18.0775 8.56316 18.0956 7.888 17.984C8.54222 19.8987 9.92533 21.0898 12.2684 21.3191C10.6809 22.6773 7.72089 23.632 5.33156 23.2498C7.36889 24.5476 9.71378 25.5858 12.9458 25.44C20.7822 25.0862 26.032 19.4613 26.1458 11.2498V11.2498Z" fill="#263368"/>
</svg>
