<svg width="32" height="32" viewBox="0 0 32 32" fill="none" xmlns="http://www.w3.org/2000/svg">
<path fill-rule="evenodd" clip-rule="evenodd" d="M3.55556 0H28.4444C29.3874 0 30.2918 0.374602 30.9586 1.0414C31.6254 1.70819 32 2.61256 32 3.55556V28.4444C32 29.3874 31.6254 30.2918 30.9586 30.9586C30.2918 31.6254 29.3874 32 28.4444 32H20.5547C19.984 31.8702 19.968 30.7911 19.968 30.4107L19.9858 26.0213C19.9858 24.528 19.4738 23.552 18.9013 23.0596C22.464 22.6631 26.2062 21.3102 26.2062 15.1644C26.2062 13.4169 25.5876 11.9893 24.5618 10.8711C24.7253 10.4658 25.2747 8.83911 24.4018 6.63644C24.4018 6.63644 23.0613 6.20622 20.0053 8.27556C18.6998 7.92017 17.353 7.73905 16 7.73689C14.647 7.73884 13.3001 7.91997 11.9947 8.27556C8.93689 6.20622 7.59644 6.63644 7.59644 6.63644C6.72533 8.83911 7.27289 10.4658 7.43822 10.8693C6.35813 12.0357 5.76861 13.5732 5.792 15.1627C5.792 21.296 9.52533 22.6684 13.0809 23.072C12.6222 23.472 12.2098 24.176 12.064 25.2107C11.152 25.6196 8.83378 26.3253 7.40622 23.8809C7.40622 23.8809 6.56178 22.3449 4.95644 22.2311C4.95644 22.2311 3.392 22.2133 4.84622 23.2053C4.84622 23.2053 5.89511 23.696 6.624 25.5449C6.624 25.5449 7.56267 28.656 12.0124 27.6907L12.0338 30.4107C12.0338 30.7893 12.0071 31.8773 11.4293 32H3.55556C2.61256 32 1.70819 31.6254 1.0414 30.9586C0.374602 30.2918 0 29.3874 0 28.4444V3.55556C0 2.61256 0.374602 1.70819 1.0414 1.0414C1.70819 0.374602 2.61256 0 3.55556 0V0Z" fill="#263368"/>
</svg>
