<svg width="23" height="30" viewBox="0 0 23 30" fill="none" xmlns="http://www.w3.org/2000/svg">
<path d="M8.10779 6.66667C8.10779 6.22464 8.28212 5.80072 8.59242 5.48815C8.90273 5.17559 9.3236 5 9.76244 5C10.2013 5 10.6221 5.17559 10.9325 5.48815C11.2428 5.80072 11.4171 6.22464 11.4171 6.66667V14.1167L13.4192 14.3333L21.5932 17.9833C22.4635 18.3867 23.0162 19.2683 22.9996 20.2333V27.5C22.9789 28.1564 22.7108 28.7803 22.2497 29.2447C21.7887 29.7091 21.1694 29.9791 20.5177 30H9.76244C9.45265 30.0008 9.146 29.9376 8.86141 29.8143C8.57683 29.691 8.32034 29.5103 8.10779 29.2833L0 22.2833L1.22444 21C1.38061 20.8304 1.57013 20.6953 1.78094 20.6035C1.99174 20.5117 2.21922 20.4651 2.44888 20.4667H2.81291L8.10779 23.3333V6.66667ZM9.76244 5.05655e-07C11.2199 -0.000571069 12.6368 0.483438 13.7932 1.37692C14.9497 2.27039 15.781 3.52337 16.1581 4.9414C16.5353 6.35943 16.4373 7.86321 15.8792 9.21937C15.3211 10.5755 14.3343 11.7082 13.0717 12.4417V10.3933C13.8211 9.71825 14.3492 8.8299 14.5863 7.84585C14.8235 6.86179 14.7583 5.82841 14.3996 4.88244C14.0409 3.93648 13.4055 3.12252 12.5774 2.54827C11.7494 1.97402 10.7678 1.66655 9.76244 1.66655C8.75711 1.66655 7.77548 1.97402 6.94744 2.54827C6.1194 3.12252 5.48397 3.93648 5.12525 4.88244C4.76653 5.82841 4.70142 6.86179 4.93853 7.84585C5.17565 8.8299 5.70381 9.71825 6.45314 10.3933V12.4417C5.19061 11.7082 4.20374 10.5755 3.64568 9.21937C3.08761 7.86321 2.98956 6.35943 3.36673 4.9414C3.74391 3.52337 4.57522 2.27039 5.73165 1.37692C6.88809 0.483438 8.30498 -0.000571069 9.76244 5.05655e-07V5.05655e-07Z" fill="#263368"/>
</svg>
