<svg width="412" height="404" viewBox="0 0 412 404" fill="none" xmlns="http://www.w3.org/2000/svg">
<path d="M320.352 298.937C359.554 310.749 404.408 319.818 408.804 330.976C413.2 342.133 377.047 355.379 341.254 360.957C305.37 366.536 269.846 364.417 235.577 372.738C201.309 381.028 168.386 399.79 131.426 403.343C94.3761 406.927 53.3794 395.364 28.0816 380.467C2.78383 365.57 -6.72525 347.338 4.93684 331.474C16.5989 315.611 49.4322 302.085 87.8274 290.211C126.312 278.336 170.269 268.114 209.023 270.296C247.777 272.477 281.239 287.094 320.352 298.937Z" fill="#B4C6EE"/>
<path d="M121.794 249.344H148.976L215.961 223.144C215.961 223.144 263.53 203.736 259.647 240.611C255.764 277.486 248.968 326.976 248.968 326.976C248.968 326.976 227.611 317.272 215.961 320.183C204.311 323.095 212.078 260.989 212.078 260.989C212.078 260.989 116.94 306.598 108.203 300.775C99.4655 294.953 97.5239 254.196 97.5239 254.196L121.794 249.344Z" fill="#2F2E41"/>
<path opacity="0.1" d="M121.794 249.344H148.976L215.961 223.144C215.961 223.144 263.53 203.736 259.647 240.611C255.764 277.486 248.968 326.976 248.968 326.976C248.968 326.976 227.611 317.272 215.961 320.183C204.311 323.095 212.078 260.989 212.078 260.989C212.078 260.989 116.94 306.598 108.203 300.775C99.4655 294.953 97.5239 254.196 97.5239 254.196L121.794 249.344Z" fill="black"/>
<path d="M164.62 164.254L197.516 211.499L274.209 275.545C274.209 275.545 345.077 292.042 335.369 303.687C325.661 315.331 266.442 292.042 266.442 292.042C266.442 292.042 178.1 227.996 175.188 223.144C172.275 218.292 140.239 172.683 140.239 172.683L164.62 164.254Z" fill="#FFD1CB"/>
<path opacity="0.1" d="M164.62 164.254L197.516 211.499L274.209 275.545C274.209 275.545 345.077 292.042 335.369 303.687C325.661 315.331 266.442 292.042 266.442 292.042C266.442 292.042 178.1 227.996 175.188 223.144C172.275 218.292 140.239 172.683 140.239 172.683L164.62 164.254Z" fill="black"/>
<path d="M145.093 126.104L166.45 167.831C166.45 167.831 161.596 188.209 153.83 190.15C146.064 192.091 113.057 164.92 113.057 164.92L145.093 126.104Z" fill="#D0CDE1"/>
<path opacity="0.1" d="M145.093 126.104L166.45 167.831C166.45 167.831 161.596 188.209 153.83 190.15C146.064 192.091 113.057 164.92 113.057 164.92L145.093 126.104Z" fill="black"/>
<path d="M405.645 227.74L411.954 253.753C412.025 254.043 412.014 254.347 411.923 254.631L383.304 344.026C383.191 344.38 382.96 344.685 382.649 344.889C382.338 345.093 381.967 345.184 381.597 345.148C381.227 345.111 380.88 344.949 380.615 344.688C380.351 344.427 380.183 344.084 380.141 343.714L376.182 308.89C376.156 308.658 376.18 308.424 376.252 308.203L402.52 227.619C402.63 227.283 402.846 226.992 403.136 226.789C403.427 226.587 403.775 226.485 404.128 226.499C404.482 226.512 404.821 226.641 405.095 226.865C405.369 227.089 405.562 227.396 405.645 227.74Z" fill="#2F2E41"/>
<path d="M403.325 229.936L409.149 252.256L383.908 333.769L378.084 308.539L403.325 229.936Z" fill="#F2F2F2"/>
<path d="M276.15 351.236C277.121 354.147 377.113 350.266 378.084 349.295C378.93 348.08 379.646 346.779 380.22 345.414C381.132 343.473 381.967 341.532 381.967 341.532L378.084 310.111L279.063 306.598C279.063 306.598 276.587 333.225 276.082 345.414C275.956 348.49 275.956 350.654 276.15 351.236Z" fill="#2F2E41"/>
<path opacity="0.1" d="M365.464 314.361L367.405 341.532H323.719V314.361H365.464Z" fill="black"/>
<path opacity="0.1" d="M309.158 323.094L309.418 323.043L308.187 334.74H283.917V323.094H309.158Z" fill="black"/>
<path opacity="0.1" d="M276.15 351.236C277.121 354.147 377.113 350.266 378.084 349.295C378.93 348.08 379.646 346.779 380.22 345.414H276.082C275.956 348.49 275.956 350.654 276.15 351.236Z" fill="black"/>
<path d="M170.357 108.16L166.091 121.971L169.914 125.194L186.231 94.8522C200.187 78.3138 203.994 57.6062 187.448 43.6557L187.448 43.6555C181.9 38.9779 174.721 36.6947 167.489 37.3084C160.257 37.922 153.566 41.3821 148.886 46.9275L127.562 72.1973C125.301 74.876 124.198 78.3426 124.494 81.8345C124.791 85.3264 126.463 88.5575 129.143 90.817L158.806 115.828L170.357 108.16Z" fill="#605352"/>
<path d="M159.655 112.518C183.782 112.518 203.341 92.9676 203.341 68.8505C203.341 44.7334 183.782 25.1827 159.655 25.1827C135.528 25.1827 115.969 44.7334 115.969 68.8505C115.969 92.9676 135.528 112.518 159.655 112.518Z" fill="#FFD1CB"/>
<path d="M156.742 107.666C156.742 107.666 142.18 132.897 139.268 146.482C136.356 160.068 95.5822 119.311 95.5822 119.311L90.2429 105.24C90.2429 105.24 128.589 87.2881 125.677 72.7321C122.765 58.1761 156.742 107.666 156.742 107.666Z" fill="#FFD1CB"/>
<path d="M164.509 183.357L204.311 235.759L299.449 306.598C299.449 306.598 368.376 321.154 352.843 331.828C337.31 342.502 292.654 322.124 292.654 322.124C292.654 322.124 196.545 270.693 176.158 249.344C155.772 227.996 117.911 192.091 117.911 192.091L164.509 183.357Z" fill="#FFD1CB"/>
<path d="M111.115 264.871L122.765 283.308L192.29 261.444C207.545 256.647 224.273 258.412 237.804 266.933C249.939 274.575 257.705 286.705 240.231 304.657C205.282 340.562 181.983 321.154 181.983 321.154C181.983 321.154 64.5168 376.466 45.1009 349.295C25.6849 322.124 24.7142 308.539 24.7142 308.539C24.7142 308.539 99.4654 261.959 111.115 264.871Z" fill="#2F2E41"/>
<path d="M256.734 328.917C256.734 328.917 287.8 349.295 250.91 358.999C214.019 368.703 186.837 355.118 186.837 355.118C186.837 355.118 154.801 355.118 154.801 338.621C154.801 322.124 165.48 320.183 165.48 320.183L198.487 325.035C198.487 325.035 238.289 314.361 256.734 328.917Z" fill="#D0CDE1"/>
<path d="M200.763 32.1236C195.612 27.5871 181.498 20.6791 179.436 19.6618C174.468 17.211 169.034 15.8263 163.445 15.5867C157.856 15.3471 152.22 16.2573 146.86 18.2654C141.5 20.2734 136.521 23.34 132.206 27.2901C127.892 31.2401 124.327 35.9963 121.715 41.2869L98.5602 83.0815L120.507 94.1399L136.02 75.6772L132.954 100.281L146.909 107.165L154.34 95.1374L152.832 110.087L168.376 117.755C168.376 91 168.376 73 184.336 61.5826C200.763 54 202.463 60.7075 208.315 56.5188C213.342 50.455 211.438 41.5244 200.763 32.1236Z" fill="#605352"/>
<path d="M86.775 100.637C88.7403 100.113 90.8094 100.118 92.772 100.653C99.0037 102.325 112.974 106.752 115.969 113.489C119.852 122.222 133.443 135.808 133.443 135.808C133.443 135.808 151.888 154.245 148.005 166.861C144.122 179.476 129.56 194.032 129.56 194.032C129.56 194.032 133.443 254.196 114.027 269.723C94.6114 285.249 86.845 274.575 86.845 289.131C86.845 303.687 26.6557 349.295 15.0062 321.154C15.0062 321.154 20.8309 268.752 18.8894 250.315C16.9758 232.143 19.7772 118.768 86.775 100.637Z" fill="#D0CDE1"/>
<path d="M117.911 125.134C117.911 125.134 177.129 168.801 166.45 187.239C166.45 187.239 130.531 204.706 122.765 203.736C114.998 202.765 84.9035 168.801 77.1371 165.89C69.3708 162.979 65.4876 110.578 117.911 125.134Z" fill="#D0CDE1"/>
</svg>
