<svg width="441" height="229" viewBox="0 0 441 229" fill="none" xmlns="http://www.w3.org/2000/svg">
<path d="M419.127 222.378C420.43 221.089 432.369 211.603 433.096 212.109C433.532 212.454 436.016 227.525 435.837 228.082C435.716 228.248 423.225 224.103 419.127 222.378Z" fill="#77FFC6" fill-opacity="0.75"/>
<path d="M265.244 25.3139C265.304 26.0943 265.745 26.6624 266.406 26.9083C266.626 26.9903 266.863 27.0279 267.072 27.0047C269.891 26.8414 272.633 25.5381 274.554 23.4747C276.492 21.367 277.593 18.5436 277.593 15.7146L277.477 14.0044C277.417 13.2241 277.339 12.4881 277.438 11.8177C277.554 10.6988 278.22 9.58277 279.266 8.65863C280.175 7.83482 281.375 7.17013 283.021 6.51988C283.94 6.20536 284.425 5.17323 284.072 4.23377C283.764 3.3107 282.74 2.8285 281.804 3.18739C279.767 3.94474 278.214 4.88242 276.953 5.97924C275.291 7.48216 274.239 9.36411 273.959 11.3309C273.816 12.389 273.926 13.4404 273.997 14.3259C274.008 14.8352 274.08 15.3165 274.064 15.765C274.097 17.697 273.343 19.5886 272.01 21.0124C270.678 22.4362 268.801 23.3035 266.906 23.4069C265.937 23.4503 265.205 24.3397 265.244 25.3139Z" fill="white" fill-opacity="0.36"/>
<path d="M294.21 12.3006C294.089 11.5483 293.543 10.9918 292.85 10.8346C292.629 10.7526 292.376 10.7594 292.134 10.8713C289.26 11.3171 286.656 12.9243 284.888 15.2471C283.165 17.5863 282.356 20.5689 282.698 23.4239C282.78 24.0104 282.907 24.6132 283.006 25.1553C283.172 25.9241 283.293 26.6764 283.298 27.3352C283.271 28.4869 282.72 29.6965 281.773 30.7586C280.937 31.6596 279.775 32.4901 278.167 33.3063C277.259 33.726 276.89 34.8516 277.364 35.7351C277.821 36.663 278.894 37.0121 279.819 36.5481C281.851 35.5361 283.304 34.4605 284.483 33.1814C286.019 31.4797 286.883 29.4271 286.927 27.4227C286.938 26.3154 286.706 25.32 286.547 24.4017C286.447 23.8596 286.315 23.4063 286.288 22.9414C286.062 20.9882 286.612 18.9702 287.801 17.3921C288.974 15.8584 290.741 14.748 292.718 14.4228C293.692 14.2298 294.397 13.2796 294.21 12.3006Z" fill="white" fill-opacity="0.36"/>
<path d="M22.3331 38.0322H22.3332C22.8094 38.0322 23.2856 37.6512 23.4761 37.0797C23.6666 36.413 23.2856 35.7462 22.6188 35.5557C20.0471 34.7937 18.3326 34.6032 15.3799 34.7937C14.7131 34.889 14.2369 35.4605 14.2369 36.1272C14.3322 36.794 14.9037 37.2702 15.5704 37.2702C18.1422 37.0797 19.6661 37.2702 21.9521 37.937C22.1425 38.0322 22.2378 38.0322 22.3331 38.0322Z" fill="white" fill-opacity="0.36"/>
<path d="M11.4746 46.5095C11.6651 46.9858 12.1413 47.2715 12.6176 47.2715C12.7128 47.2715 12.9033 47.2715 12.9033 47.1762C13.5701 46.9857 13.8559 46.319 13.6654 45.6522C13.0939 43.8425 12.7128 42.0327 12.6176 40.1277C12.6176 39.461 12.0461 38.9847 11.3794 38.9847C10.7126 38.9847 10.2363 39.5562 10.2363 40.223C10.3315 42.4137 10.7126 44.5093 11.4746 46.5095Z" fill="white" fill-opacity="0.36"/>
<path d="M0.235075 40.985C0.425575 41.2707 0.806589 41.4612 1.18759 41.4612C1.47334 41.4612 1.75911 41.366 1.94961 41.1755C3.47361 39.9372 5.18814 38.8895 6.99789 38.0322C7.56939 37.7465 7.85511 36.9845 7.56936 36.413C7.28361 35.8415 6.52154 35.5557 5.95004 35.8415C3.94979 36.794 2.14013 37.937 0.425626 39.2705C-0.0506237 39.6515 -0.145925 40.4135 0.235075 40.985Z" fill="white" fill-opacity="0.36"/>
<path d="M6.14065 32.1267C6.4264 32.5077 6.80735 32.7935 7.2836 32.7935H7.28381C7.47424 32.7935 7.66464 32.7935 7.75985 32.6983C8.33136 32.4125 8.61708 31.6505 8.33133 31.079C7.75983 29.8407 6.99786 28.8882 5.75961 27.3642C5.47386 26.9832 5.09288 26.507 4.71188 26.0307C4.33088 25.5545 3.56884 25.4592 2.99734 25.8402C2.52109 26.2212 2.42585 26.9832 2.80685 27.5547C3.18785 28.031 3.56883 28.5072 3.85458 28.8882C4.99758 30.317 5.6644 31.1742 6.14065 32.1267Z" fill="white" fill-opacity="0.36"/>
<path d="M12.4271 32.3172C12.7128 32.4125 12.9034 32.5077 13.1892 32.5077C13.5702 32.5077 13.8558 32.3172 14.0463 32.1267C15.2845 30.4122 16.4275 28.6025 17.38 26.7927C17.761 26.2212 17.4753 25.4592 16.9038 25.1735C16.3323 24.7925 15.5704 25.0782 15.2846 25.6497C14.3321 27.3642 13.2843 28.9835 12.1413 30.6027C11.7603 31.1742 11.8556 31.9362 12.4271 32.3172Z" fill="white" fill-opacity="0.36"/>
</svg>
