<svg width="336" height="280" viewBox="0 0 336 280" fill="none" xmlns="http://www.w3.org/2000/svg">
<path d="M197 206.968V0M189.234 200L152 241.5L193.5 278.734L230.734 237.234L189.234 200ZM182.779 252.629C179.155 256.668 175.13 256.384 171.675 253.284C168.553 250.483 168.193 247.25 169.02 244.465L173.918 245.398C173.557 247.03 173.29 248.446 174.633 249.651C175.911 250.798 177.175 251.029 178.929 249.075L190.822 235.819L194.722 239.318L182.779 252.629ZM186.728 266.789C183.106 263.54 182.308 259.714 183.197 256.431L188.02 257.448C187.632 259.558 187.819 261.548 189.736 263.269C191.348 264.715 193.109 264.84 194.114 263.719C195.311 262.385 194.679 260.965 193.598 258.574L192.999 257.284C191.255 253.562 190.748 250.382 193.599 247.205C196.225 244.277 200.452 244.057 203.926 247.174C206.408 249.401 207.414 251.858 206.664 255.266L201.881 254.485C202.286 252.692 201.987 251.571 200.866 250.565C199.727 249.543 198.356 249.617 197.508 250.562C196.461 251.729 196.76 252.85 197.78 255.086L198.379 256.376C200.423 260.768 200.98 263.893 198.055 267.154C194.913 270.656 190.424 270.106 186.728 266.789Z" stroke="#FFFB93"/>
<path d="M288.5 88.5V0M290.002 88C264.957 88 245 107.956 245 132.996C245 158.036 264.957 178 289.998 178C315.039 178 335 158.044 335 133C335 107.956 315.047 88 290.002 88ZM254.782 133.39L289.612 168.219C270.435 168.219 254.782 152.566 254.782 133.39ZM297.829 167.435L255.566 125.174C259.081 109.521 273.174 97.7811 289.998 97.7811C295.561 97.792 301.044 99.108 306.005 101.623C310.967 104.139 315.269 107.783 318.566 112.263L313.482 116.563C310.831 112.683 307.268 109.513 303.106 107.33C298.945 105.147 294.311 104.018 289.612 104.043C283.669 104.005 277.865 105.835 273.019 109.276C268.173 112.716 264.531 117.592 262.608 123.215L299.393 160.002C308.398 156.869 315.437 149.047 317.395 139.652H302.132V133H325.222C325.222 149.827 313.482 163.915 297.829 167.435Z" stroke="#D386F8"/>
<path d="M45.5 155.5V0M45.4979 227.342C41.5574 229.171 37.5042 230.746 33.3631 232.058C36.3348 242.518 40.8509 249.22 45.499 249.214C50.1528 249.216 54.6625 242.514 57.6325 232.056C53.7416 230.834 49.659 229.254 45.4979 227.342ZM40.0002 224.638C36.8619 222.996 33.793 221.225 30.8012 219.329C31.1772 222.197 31.6533 224.928 32.2188 227.496C34.7251 226.701 37.3247 225.745 40.0002 224.638ZM78.7857 204.49C87.7748 213.794 91.8449 222.986 88.2687 229.182C84.6925 235.378 74.6972 236.452 62.1436 233.324C58.5764 245.759 52.654 253.882 45.5037 253.883C38.347 253.885 32.4189 245.765 28.8502 233.333C16.3003 236.461 6.30385 235.39 2.72562 229.192C-0.850889 223.001 3.21633 213.807 12.2036 204.5C3.21449 195.195 -0.855551 186.003 2.72061 179.807C6.29677 173.611 16.2921 172.537 28.8456 175.666C32.4129 163.23 38.3352 155.107 45.4856 155.107C52.6423 155.105 58.5704 163.225 62.1391 175.657C74.689 172.528 84.6854 173.599 88.2637 179.797C91.8402 185.988 87.773 195.182 78.7857 204.49ZM75.4316 201.217C83.0075 193.413 86.5489 186.157 84.2226 182.131C81.8986 178.101 73.8367 177.543 63.2968 180.204C64.1855 184.182 64.8568 188.508 65.2799 193.068C69.0228 195.713 72.4296 198.456 75.4316 201.217ZM15.5577 207.772C7.98176 215.576 4.44039 222.833 6.76671 226.859C9.09069 230.889 17.1526 231.447 27.6925 228.785C26.7585 224.544 26.0961 220.247 25.7094 215.921C22.1556 213.423 18.7648 210.701 15.5577 207.772ZM50.9891 184.351C54.1274 185.993 57.1963 187.765 60.1881 189.661C59.8328 186.92 59.3591 184.196 58.7682 181.497L50.9891 184.351ZM45.4914 181.647C49.4333 179.819 53.4878 178.245 57.6302 176.934C54.6545 166.471 50.1343 159.767 45.4903 159.776C40.8365 159.773 36.3268 166.475 33.3568 176.933C37.2477 178.155 41.3303 179.736 45.4914 181.647ZM45.4982 222.17C50.8122 219.608 55.9274 216.653 60.8008 213.329C61.2413 207.446 61.2415 201.539 60.8013 195.656C55.9252 192.333 50.8076 189.379 45.4911 186.819C40.1771 189.381 35.0619 192.336 30.1885 195.66C29.748 201.543 29.7478 207.451 30.188 213.333C35.0641 216.656 40.1817 219.61 45.4982 222.17ZM50.9935 224.636C53.6658 225.747 56.2705 226.695 58.7757 227.489C59.365 224.789 59.8372 222.065 60.1909 219.324L50.9935 224.636ZM39.9982 184.349C37.3259 183.238 34.7212 182.29 32.2159 181.496C31.6526 184.059 31.1755 186.79 30.8007 189.661C33.7913 187.766 36.8589 185.995 39.9958 184.353L39.9982 184.349ZM18.9424 204.493C20.8831 206.265 23.0096 208.042 25.3063 209.804C25.1586 206.267 25.1573 202.725 25.3024 199.188C23.0061 200.944 20.8798 202.724 18.9424 204.493ZM15.5611 201.222C18.5615 198.46 21.9705 195.718 25.7085 193.069C26.1322 188.508 26.8009 184.184 27.6915 180.205C17.1439 177.549 9.08816 178.11 6.76471 182.135C4.44126 186.161 7.98539 193.417 15.5611 201.222ZM72.0516 204.488C70.1109 202.716 67.9844 200.939 65.6877 199.177C65.8354 202.714 65.8367 206.256 65.6916 209.794C67.9879 208.037 70.1141 206.258 72.0516 204.488ZM75.4329 207.759C72.4325 210.521 69.0234 213.263 65.2855 215.912C64.8618 220.474 64.1931 224.797 63.3024 228.777C73.8501 231.432 81.9058 230.871 84.2292 226.846C86.5527 222.82 83.0086 215.564 75.4329 207.759ZM41.109 212.093C40.1112 211.517 39.2365 210.75 38.535 209.836C37.8335 208.922 37.3189 207.879 37.0206 206.766C36.7222 205.654 36.646 204.493 36.7962 203.351C36.9464 202.208 37.3202 201.107 37.8961 200.109C38.4721 199.111 39.2389 198.236 40.1528 197.535C41.0668 196.833 42.11 196.319 43.2228 196.021C44.3356 195.722 45.4963 195.646 46.6386 195.796C47.7809 195.946 48.8824 196.32 49.8803 196.896C51.8955 198.059 53.3662 199.975 53.9687 202.223C54.5713 204.47 54.2563 206.865 53.0932 208.88C51.93 210.895 50.014 212.366 47.7665 212.969C45.519 213.571 43.1243 213.256 41.109 212.093Z" stroke="#88E9FF"/>
<path d="M132 54V0M132 120.876C131.099 120.876 130.259 120.63 129.478 120.2L121.493 115.347C120.292 114.671 120.892 114.425 121.253 114.302C122.874 113.749 123.174 113.626 124.855 112.643C125.035 112.52 125.275 112.582 125.455 112.705L131.58 116.453C131.82 116.575 132.12 116.575 132.3 116.453L156.257 102.26C156.497 102.137 156.617 101.892 156.617 101.585V73.2612C156.617 72.954 156.497 72.7082 156.257 72.5854L132.3 58.4544C132.06 58.3315 131.76 58.3315 131.58 58.4544L107.623 72.5856C107.383 72.7085 107.263 73.0156 107.263 73.2614V101.585C107.263 101.83 107.383 102.137 107.623 102.26L114.168 106.131C117.71 107.974 119.931 105.824 119.931 103.673V75.7186C119.931 75.35 120.232 74.9814 120.652 74.9814H123.714C124.075 74.9814 124.435 75.2885 124.435 75.7186V103.673C124.435 108.527 121.853 111.353 117.35 111.353C115.969 111.353 114.888 111.353 111.826 109.817L105.522 106.131C103.961 105.209 103 103.489 103 101.646V73.3228C103 71.4797 103.961 69.7595 105.522 68.8378L129.478 54.6456C130.979 53.7855 133.021 53.7855 134.522 54.6456L158.478 68.8378C160.039 69.7593 161 71.4795 161 73.3228V101.646C161 103.489 160.039 105.209 158.478 106.131L134.522 120.323C133.741 120.692 132.841 120.876 132 120.876ZM139.385 101.4C128.878 101.4 126.716 96.4851 126.716 92.3072C126.716 91.9386 127.017 91.57 127.437 91.57H130.559C130.919 91.57 131.219 91.8158 131.219 92.1844C131.7 95.4405 133.081 97.038 139.445 97.038C144.489 97.038 146.65 95.8708 146.65 93.1061C146.65 91.5086 146.05 90.3413 138.184 89.5424C131.64 88.8666 127.557 87.3921 127.557 82.0472C127.557 77.0704 131.64 74.1215 138.484 74.1215C146.17 74.1215 149.952 76.8247 150.433 82.7228C150.433 82.9071 150.373 83.0914 150.253 83.2757C150.132 83.3986 149.952 83.5214 149.772 83.5214H146.65C146.35 83.5214 146.05 83.2757 145.99 82.9685C145.269 79.5895 143.408 78.4837 138.484 78.4837C132.961 78.4837 132.3 80.4496 132.3 81.9241C132.3 83.706 133.081 84.2587 140.526 85.2416C147.911 86.2246 151.393 87.6379 151.393 92.9216C151.333 98.3282 147.01 101.4 139.385 101.4Z" stroke="#AFFFA2"/>
</svg>
