<svg width="696" height="372" viewBox="0 0 696 372" fill="none" xmlns="http://www.w3.org/2000/svg">
<path d="M648 180.043V1M650.002 180C624.957 180 605 199.956 605 224.996C605 250.036 624.957 270 649.998 270C675.039 270 695 250.044 695 225C695 199.956 675.047 180 650.002 180ZM614.782 225.39L649.612 260.219C630.435 260.219 614.782 244.566 614.782 225.39ZM657.829 259.435L615.566 217.174C619.081 201.521 633.174 189.781 649.998 189.781C655.561 189.792 661.044 191.108 666.005 193.623C670.967 196.139 675.269 199.783 678.566 204.263L673.482 208.563C670.831 204.683 667.268 201.513 663.106 199.33C658.945 197.147 654.311 196.018 649.612 196.043C643.669 196.005 637.865 197.835 633.019 201.276C628.173 204.716 624.531 209.592 622.608 215.215L659.393 252.002C668.398 248.869 675.437 241.047 677.395 231.652H662.132V225H685.222C685.222 241.827 673.482 255.915 657.829 259.435Z" stroke="#D386F8"/>
<path d="M447 298.967V0M439.234 292L402 333.5L443.5 370.734L480.734 329.234L439.234 292ZM432.779 344.629C429.155 348.668 425.13 348.384 421.675 345.284C418.553 342.483 418.193 339.25 419.02 336.465L423.918 337.398C423.557 339.03 423.29 340.446 424.633 341.651C425.911 342.798 427.175 343.029 428.929 341.075L440.822 327.819L444.722 331.318L432.779 344.629ZM436.728 358.789C433.106 355.54 432.308 351.714 433.197 348.431L438.02 349.448C437.632 351.558 437.819 353.548 439.736 355.269C441.348 356.715 443.109 356.84 444.114 355.719C445.311 354.385 444.679 352.965 443.598 350.574L442.999 349.284C441.255 345.562 440.748 342.382 443.599 339.205C446.225 336.277 450.452 336.057 453.926 339.174C456.408 341.401 457.414 343.858 456.664 347.266L451.881 346.485C452.286 344.692 451.987 343.571 450.866 342.565C449.727 341.543 448.356 341.617 447.508 342.562C446.461 343.729 446.76 344.85 447.78 347.086L448.379 348.376C450.423 352.768 450.98 355.893 448.055 359.154C444.913 362.656 440.424 362.106 436.728 358.789Z" stroke="#FFFB93"/>
<path d="M45 247L45 1M45.4979 319.342C41.5574 321.171 37.5042 322.746 33.3631 324.058C36.3348 334.518 40.8509 341.22 45.499 341.214C50.1528 341.216 54.6625 334.514 57.6325 324.056C53.7416 322.834 49.659 321.254 45.4979 319.342ZM40.0002 316.638C36.8619 314.996 33.7929 313.225 30.8011 311.329C31.1772 314.197 31.6533 316.928 32.2188 319.496C34.7251 318.701 37.3247 317.745 40.0002 316.638ZM78.7857 296.49C87.7748 305.794 91.8448 314.986 88.2687 321.182C84.6925 327.378 74.6972 328.453 62.1436 325.324C58.5764 337.759 52.654 345.882 45.5037 345.883C38.347 345.885 32.4189 337.765 28.8502 325.333C16.3003 328.461 6.30383 327.39 2.72561 321.192C-0.850905 315.001 3.21632 305.807 12.2035 296.5C3.21447 287.195 -0.855567 278.003 2.72059 271.807C6.29675 265.611 16.2921 264.537 28.8456 267.666C32.4128 255.23 38.3352 247.107 45.4856 247.107C52.6423 247.105 58.5704 255.225 62.1391 267.657C74.689 264.528 84.6854 265.599 88.2636 271.797C91.8402 277.988 87.7729 287.183 78.7857 296.49ZM75.4316 293.217C83.0075 285.413 86.5489 278.157 84.2226 274.131C81.8986 270.101 73.8367 269.543 63.2968 272.204C64.1855 276.182 64.8568 280.508 65.2799 285.068C69.0228 287.713 72.4296 290.456 75.4316 293.217ZM15.5577 299.772C7.98175 307.576 4.44037 314.833 6.76669 318.859C9.09068 322.889 17.1526 323.447 27.6925 320.785C26.7585 316.544 26.0961 312.247 25.7094 307.921C22.1555 305.423 18.7648 302.701 15.5577 299.772ZM50.9891 276.351C54.1273 277.993 57.1963 279.765 60.1881 281.661C59.8328 278.92 59.3591 276.196 58.7682 273.497L50.9891 276.351ZM45.4914 273.647C49.4333 271.819 53.4878 270.245 57.6302 268.934C54.6545 258.471 50.1343 251.767 45.4903 251.776C40.8365 251.773 36.3268 258.475 33.3568 268.933C37.2477 270.155 41.3303 271.736 45.4914 273.647ZM45.4982 314.17C50.8122 311.608 55.9273 308.653 60.8008 305.329C61.2413 299.446 61.2415 293.539 60.8013 287.656C55.9252 284.333 50.8076 281.379 45.4911 278.819C40.177 281.381 35.0619 284.336 30.1885 287.66C29.748 293.543 29.7478 299.451 30.188 305.333C35.064 308.656 40.1817 311.61 45.4982 314.17ZM50.9934 316.636C53.6657 317.747 56.2704 318.695 58.7757 319.489C59.365 316.789 59.8372 314.065 60.1909 311.324L50.9934 316.636ZM39.9982 276.349C37.3259 275.238 34.7211 274.29 32.2159 273.496C31.6526 276.059 31.1755 278.79 30.8007 281.661C33.7913 279.766 36.8589 277.995 39.9958 276.353L39.9982 276.349ZM18.9424 296.493C20.8831 298.265 23.0095 300.042 25.3063 301.804C25.1586 298.267 25.1573 294.725 25.3023 291.188C23.006 292.944 20.8798 294.724 18.9424 296.493ZM15.561 293.222C18.5615 290.46 21.9705 287.718 25.7085 285.069C26.1322 280.508 26.8009 276.184 27.6915 272.205C17.1439 269.549 9.08815 270.11 6.76469 274.135C4.44124 278.161 7.98537 285.417 15.561 293.222ZM72.0516 296.488C70.1109 294.716 67.9844 292.939 65.6877 291.177C65.8354 294.714 65.8367 298.256 65.6916 301.794C67.9879 300.037 70.1141 298.258 72.0516 296.488ZM75.4329 299.759C72.4325 302.521 69.0234 305.263 65.2855 307.912C64.8617 312.474 64.1931 316.797 63.3024 320.777C73.85 323.432 81.9058 322.871 84.2292 318.846C86.5527 314.82 83.0086 307.564 75.4329 299.759ZM41.109 304.093C40.1111 303.517 39.2365 302.75 38.535 301.836C37.8335 300.922 37.3189 299.879 37.0205 298.766C36.7222 297.654 36.646 296.493 36.7962 295.351C36.9464 294.208 37.3202 293.107 37.8961 292.109C38.472 291.111 39.2389 290.236 40.1528 289.535C41.0668 288.833 42.1099 288.319 43.2228 288.021C44.3356 287.722 45.4963 287.646 46.6386 287.796C47.7809 287.946 48.8824 288.32 49.8803 288.896C51.8955 290.059 53.3662 291.975 53.9687 294.223C54.5712 296.47 54.2563 298.865 53.0932 300.88C51.93 302.895 50.014 304.366 47.7665 304.969C45.519 305.571 43.1243 305.256 41.109 304.093Z" stroke="#88E9FF"/>
<path d="M242 146L242 1M242 212.876C241.099 212.876 240.259 212.63 239.478 212.2L231.493 207.347C230.292 206.671 230.892 206.425 231.253 206.302C232.874 205.749 233.174 205.626 234.855 204.643C235.035 204.52 235.275 204.582 235.455 204.705L241.58 208.453C241.82 208.575 242.12 208.575 242.3 208.453L266.257 194.26C266.497 194.137 266.617 193.892 266.617 193.585V165.261C266.617 164.954 266.497 164.708 266.257 164.585L242.3 150.454C242.06 150.332 241.76 150.332 241.58 150.454L217.623 164.586C217.383 164.708 217.263 165.016 217.263 165.261V193.585C217.263 193.83 217.383 194.137 217.623 194.26L224.168 198.131C227.71 199.974 229.931 197.824 229.931 195.673V167.719C229.931 167.35 230.232 166.981 230.652 166.981H233.714C234.075 166.981 234.435 167.289 234.435 167.719V195.673C234.435 200.527 231.853 203.353 227.35 203.353C225.969 203.353 224.888 203.353 221.826 201.817L215.522 198.131C213.961 197.209 213 195.489 213 193.646V165.323C213 163.48 213.961 161.76 215.522 160.838L239.478 146.646C240.979 145.785 243.021 145.785 244.522 146.646L268.478 160.838C270.039 161.759 271 163.48 271 165.323V193.646C271 195.489 270.039 197.209 268.478 198.131L244.522 212.323C243.741 212.692 242.841 212.876 242 212.876ZM249.385 193.4C238.878 193.4 236.716 188.485 236.716 184.307C236.716 183.939 237.017 183.57 237.437 183.57H240.559C240.919 183.57 241.219 183.816 241.219 184.184C241.7 187.44 243.081 189.038 249.445 189.038C254.489 189.038 256.65 187.871 256.65 185.106C256.65 183.509 256.05 182.341 248.184 181.542C241.64 180.867 237.557 179.392 237.557 174.047C237.557 169.07 241.64 166.121 248.484 166.121C256.17 166.121 259.952 168.825 260.433 174.723C260.433 174.907 260.373 175.091 260.253 175.276C260.132 175.399 259.952 175.521 259.772 175.521H256.65C256.35 175.521 256.05 175.276 255.99 174.969C255.269 171.59 253.408 170.484 248.484 170.484C242.961 170.484 242.3 172.45 242.3 173.924C242.3 175.706 243.081 176.259 250.526 177.242C257.911 178.225 261.393 179.638 261.393 184.922C261.333 190.328 257.01 193.4 249.385 193.4Z" stroke="#AFFFA2"/>
</svg>
