<svg width="92" height="270" viewBox="0 0 92 270" fill="none" xmlns="http://www.w3.org/2000/svg">
<path d="M43.9999 179.043V0M46.0018 179C20.957 179 0.999939 198.956 0.999939 223.996C0.999939 249.036 20.957 269 45.9981 269C71.0391 269 90.9999 249.044 90.9999 224C90.9999 198.956 71.0466 179 46.0018 179ZM10.7815 224.39L45.6116 259.219C26.435 259.219 10.7815 243.566 10.7815 224.39ZM53.8286 258.435L11.5657 216.174C15.0813 200.521 29.1739 188.781 45.9981 188.781C51.5609 188.792 57.0436 190.108 62.0053 192.623C66.967 195.139 71.2692 198.783 74.566 203.263L69.482 207.563C66.8307 203.683 63.268 200.513 59.1063 198.33C54.9446 196.147 50.311 195.018 45.6116 195.043C39.6689 195.005 33.8645 196.835 29.0188 200.276C24.1732 203.716 20.5314 208.592 18.6082 214.215L55.3932 251.002C64.398 247.869 71.4368 240.047 73.3954 230.652H58.1321V224H81.2221C81.2221 240.827 69.482 254.915 53.8286 258.435Z" stroke="#D386F8"/>
</svg>
