<svg width="81" height="372" viewBox="0 0 81 372" fill="none" xmlns="http://www.w3.org/2000/svg">
<path d="M45.9999 298.967V0M38.2342 292L0.999939 333.5L42.5001 370.734L79.7343 329.234L38.2342 292ZM31.779 344.629C28.1553 348.668 24.13 348.384 20.6747 345.284C17.5529 342.483 17.1927 339.25 18.02 336.465L22.9178 337.398C22.5568 339.03 22.2898 340.446 23.633 341.651C24.9113 342.798 26.1753 343.029 27.929 341.075L39.8223 327.819L43.7222 331.318L31.779 344.629ZM35.7278 358.789C32.1058 355.54 31.308 351.714 32.1966 348.431L37.0195 349.448C36.6315 351.558 36.8187 353.548 38.7362 355.269C40.348 356.715 42.1086 356.84 43.1143 355.719C44.3111 354.385 43.6789 352.965 42.5975 350.574L41.9989 349.284C40.2549 345.562 39.7477 342.382 42.5985 339.205C45.2248 336.277 49.452 336.057 52.9258 339.174C55.4084 341.401 56.414 343.858 55.6644 347.266L50.8807 346.485C51.2858 344.692 50.9872 343.571 49.8663 342.565C48.7269 341.543 47.3561 341.617 46.5083 342.562C45.4611 343.729 45.7598 344.85 46.7799 347.086L47.3785 348.376C49.4232 352.768 49.9803 355.893 47.0548 359.154C43.9131 362.656 39.4239 362.106 35.7278 358.789Z" stroke="#FFFB93"/>
</svg>
