<svg width="60" height="213" viewBox="0 0 60 213" fill="none" xmlns="http://www.w3.org/2000/svg">
<path d="M29.9999 145L29.9999 0M29.9999 211.876C29.0994 211.876 28.2588 211.63 27.4783 211.2L19.4927 206.347C18.2919 205.671 18.8923 205.425 19.2525 205.302C20.8735 204.749 21.1737 204.626 22.8548 203.643C23.0352 203.52 23.2753 203.582 23.4552 203.705L29.5797 207.453C29.8198 207.575 30.12 207.575 30.3001 207.453L54.2569 193.26C54.497 193.137 54.6171 192.892 54.6171 192.585V164.261C54.6171 163.954 54.497 163.708 54.2569 163.585L30.3001 149.454C30.06 149.332 29.7598 149.332 29.5797 149.454L5.62295 163.586C5.38279 163.708 5.26271 164.016 5.26271 164.261V192.585C5.26271 192.83 5.38279 193.137 5.62295 193.26L12.1677 197.131C15.7102 198.974 17.9314 196.824 17.9314 194.673V166.719C17.9314 166.35 18.2318 165.981 18.6521 165.981H21.7143C22.0746 165.981 22.4348 166.289 22.4348 166.719V194.673C22.4348 199.527 19.8529 202.353 15.3497 202.353C13.9688 202.353 12.8881 202.353 9.82613 200.817L3.52158 197.131C1.96056 196.209 0.999939 194.489 0.999939 192.646V164.323C0.999939 162.48 1.96056 160.76 3.52158 159.838L27.4783 145.646C28.9793 144.785 31.0206 144.785 32.5216 145.646L56.4783 159.838C58.0393 160.759 58.9999 162.48 58.9999 164.323V192.646C58.9999 194.489 58.0393 196.209 56.4783 197.131L32.5216 211.323C31.7411 211.692 30.8405 211.876 29.9999 211.876ZM37.385 192.4C26.8777 192.4 24.7163 187.485 24.7163 183.307C24.7163 182.939 25.0165 182.57 25.4367 182.57H28.5588C28.919 182.57 29.2194 182.816 29.2194 183.184C29.6997 186.44 31.0806 188.038 37.445 188.038C42.4885 188.038 44.6502 186.871 44.6502 184.106C44.6502 182.509 44.0498 181.341 36.1842 180.542C29.6397 179.867 25.5568 178.392 25.5568 173.047C25.5568 168.07 29.6395 165.121 36.4844 165.121C44.1696 165.121 47.9523 167.825 48.4326 173.723C48.4326 173.907 48.3726 174.091 48.2525 174.276C48.1324 174.399 47.9523 174.521 47.7722 174.521H44.6502C44.3497 174.521 44.0498 174.276 43.9895 173.969C43.269 170.59 41.4078 169.484 36.4844 169.484C30.9608 169.484 30.3001 171.45 30.3001 172.924C30.3001 174.706 31.0806 175.259 38.5257 176.242C45.911 177.225 49.3932 178.638 49.3932 183.922C49.3332 189.328 45.0104 192.4 37.385 192.4Z" stroke="#AFFFA2"/>
</svg>
