<svg width="91" height="346" viewBox="0 0 91 346" fill="none" xmlns="http://www.w3.org/2000/svg">
<path d="M44.9999 246L44.9999 0M45.4978 318.342C41.5573 320.171 37.5042 321.746 33.363 323.058C36.3348 333.518 40.8508 340.22 45.4989 340.214C50.1527 340.216 54.6624 333.514 57.6324 323.056C53.7415 321.834 49.6589 320.254 45.4978 318.342ZM40.0001 315.638C36.8619 313.996 33.7929 312.225 30.8011 310.329C31.1771 313.197 31.6533 315.928 32.2187 318.496C34.725 317.701 37.3246 316.745 40.0001 315.638ZM78.7857 295.49C87.7747 304.794 91.8448 313.986 88.2686 320.182C84.6925 326.378 74.6971 327.453 62.1436 324.324C58.5764 336.759 52.654 344.882 45.5036 344.883C38.3469 344.885 32.4188 336.765 28.8501 324.333C16.3002 327.461 6.30377 326.39 2.72555 320.192C-0.850966 314.001 3.21626 304.807 12.2035 295.5C3.21441 286.195 -0.855628 277.003 2.72053 270.807C6.29669 264.611 16.292 263.537 28.8456 266.666C32.4128 254.23 38.3352 246.107 45.4855 246.107C52.6422 246.105 58.5703 254.225 62.139 266.657C74.6889 263.528 84.6854 264.599 88.2636 270.797C91.8401 276.988 87.7729 286.183 78.7857 295.49ZM75.4316 292.217C83.0075 284.413 86.5488 277.157 84.2225 273.131C81.8985 269.101 73.8366 268.543 63.2967 271.204C64.1854 275.182 64.8567 279.508 65.2798 284.068C69.0227 286.713 72.4295 289.456 75.4316 292.217ZM15.5576 298.772C7.98169 306.576 4.44031 313.833 6.76663 317.859C9.09062 321.889 17.1525 322.447 27.6924 319.785C26.7584 315.544 26.0961 311.247 25.7093 306.921C22.1555 304.423 18.7647 301.701 15.5576 298.772ZM50.989 275.351C54.1273 276.993 57.1963 278.765 60.1881 280.661C59.8327 277.92 59.359 275.196 58.7681 272.497L50.989 275.351ZM45.4913 272.647C49.4332 270.819 53.4877 269.245 57.6302 267.934C54.6544 257.471 50.1343 250.767 45.4902 250.776C40.8364 250.773 36.3267 257.475 33.3567 267.933C37.2476 269.155 41.3302 270.736 45.4913 272.647ZM45.4981 313.17C50.8122 310.608 55.9273 307.653 60.8008 304.329C61.2412 298.446 61.2414 292.539 60.8012 286.656C55.9252 283.333 50.8075 280.379 45.491 277.819C40.177 280.381 35.0619 283.336 30.1884 286.66C29.7479 292.543 29.7478 298.451 30.1879 304.333C35.064 307.656 40.1816 310.61 45.4981 313.17ZM50.9934 315.636C53.6657 316.747 56.2704 317.695 58.7756 318.489C59.3649 315.789 59.8371 313.065 60.1908 310.324L50.9934 315.636ZM39.9981 275.349C37.3258 274.238 34.7211 273.29 32.2158 272.496C31.6526 275.059 31.1754 277.79 30.8007 280.661C33.7912 278.766 36.8589 276.995 39.9958 275.353L39.9981 275.349ZM18.9423 295.493C20.883 297.265 23.0095 299.042 25.3062 300.804C25.1585 297.267 25.1572 293.725 25.3023 290.188C23.006 291.944 20.8798 293.724 18.9423 295.493ZM15.561 292.222C18.5614 289.46 21.9704 286.718 25.7084 284.069C26.1321 279.508 26.8008 275.184 27.6915 271.205C17.1438 268.549 9.08809 269.11 6.76463 273.135C4.44118 277.161 7.98531 284.417 15.561 292.222ZM72.0515 295.488C70.1108 293.716 67.9843 291.939 65.6876 290.177C65.8353 293.714 65.8366 297.256 65.6915 300.794C67.9878 299.037 70.114 297.258 72.0515 295.488ZM75.4328 298.759C72.4324 301.521 69.0234 304.263 65.2854 306.912C64.8617 311.474 64.193 315.797 63.3024 319.777C73.85 322.432 81.9057 321.871 84.2292 317.846C86.5526 313.82 83.0085 306.564 75.4328 298.759ZM41.1089 303.093C40.1111 302.517 39.2364 301.75 38.5349 300.836C37.8334 299.922 37.3188 298.879 37.0205 297.766C36.7221 296.654 36.6459 295.493 36.7961 294.351C36.9464 293.208 37.3201 292.107 37.896 291.109C38.472 290.111 39.2388 289.236 40.1528 288.535C41.0667 287.833 42.1099 287.319 43.2227 287.021C44.3355 286.722 45.4962 286.646 46.6385 286.796C47.7808 286.946 48.8824 287.32 49.8802 287.896C51.8955 289.059 53.3661 290.975 53.9687 293.223C54.5712 295.47 54.2562 297.865 53.0931 299.88C51.93 301.895 50.0139 303.366 47.7664 303.969C45.519 304.571 43.1242 304.256 41.1089 303.093Z" stroke="#88E9FF"/>
</svg>
