<svg width="397" height="363" viewBox="0 0 397 363" fill="none" xmlns="http://www.w3.org/2000/svg">
<path d="M106.744 249.344H133.915L200.872 223.144C200.872 223.144 248.422 203.736 244.54 240.611C240.658 277.486 233.866 326.976 233.866 326.976C233.866 326.976 212.517 317.272 200.872 320.183C189.227 323.095 196.991 260.989 196.991 260.989C196.991 260.989 101.892 306.598 93.1581 300.775C84.4246 294.953 82.4838 254.196 82.4838 254.196L106.744 249.344Z" fill="#2F2E41"/>
<path opacity="0.1" d="M106.744 249.344H133.915L200.872 223.144C200.872 223.144 248.422 203.736 244.54 240.611C240.658 277.486 233.866 326.976 233.866 326.976C233.866 326.976 212.517 317.272 200.872 320.183C189.227 323.095 196.991 260.989 196.991 260.989C196.991 260.989 101.892 306.598 93.1581 300.775C84.4246 294.953 82.4838 254.196 82.4838 254.196L106.744 249.344Z" fill="black"/>
<path d="M149.552 164.254L182.435 211.499L259.096 275.545C259.096 275.545 329.935 292.042 320.231 303.687C310.527 315.331 251.333 292.042 251.333 292.042C251.333 292.042 163.027 227.996 160.115 223.144C157.204 218.292 125.181 172.683 125.181 172.683L149.552 164.254Z" fill="#FFD1CB"/>
<path opacity="0.1" d="M149.552 164.254L182.435 211.499L259.096 275.545C259.096 275.545 329.935 292.042 320.231 303.687C310.527 315.331 251.333 292.042 251.333 292.042C251.333 292.042 163.027 227.996 160.115 223.144C157.204 218.292 125.181 172.683 125.181 172.683L149.552 164.254Z" fill="black"/>
<path d="M130.033 126.104L151.382 167.831C151.382 167.831 146.53 188.209 138.767 190.15C131.004 192.091 98.0101 164.92 98.0101 164.92L130.033 126.104Z" fill="#D0CDE1"/>
<path opacity="0.1" d="M130.033 126.104L151.382 167.831C151.382 167.831 146.53 188.209 138.767 190.15C131.004 192.091 98.0101 164.92 98.0101 164.92L130.033 126.104Z" fill="black"/>
<path d="M390.479 227.74L396.785 253.753C396.855 254.043 396.844 254.347 396.753 254.631L368.147 344.026C368.034 344.38 367.802 344.685 367.492 344.889C367.181 345.093 366.81 345.184 366.44 345.148C366.07 345.111 365.724 344.949 365.459 344.688C365.194 344.427 365.027 344.084 364.985 343.714L361.028 308.89C361.001 308.658 361.025 308.424 361.097 308.203L387.355 227.619C387.464 227.283 387.68 226.992 387.971 226.789C388.261 226.587 388.609 226.485 388.962 226.499C389.316 226.512 389.655 226.641 389.928 226.865C390.202 227.089 390.395 227.396 390.479 227.74Z" fill="#2F2E41"/>
<path d="M388.159 229.936L393.981 252.256L368.751 333.769L362.929 308.539L388.159 229.936Z" fill="#F2F2F2"/>
<path d="M261.037 351.236C262.007 354.147 361.958 350.266 362.928 349.295C363.775 348.08 364.49 346.779 365.063 345.414C365.976 343.473 366.81 341.532 366.81 341.532L362.928 310.111L263.948 306.598C263.948 306.598 261.473 333.225 260.969 345.414C260.843 348.49 260.843 350.654 261.037 351.236Z" fill="#2F2E41"/>
<path opacity="0.1" d="M350.313 314.361L352.254 341.532H308.586V314.361H350.313Z" fill="black"/>
<path opacity="0.1" d="M294.031 323.094L294.291 323.043L293.06 334.74H268.8V323.094H294.031Z" fill="black"/>
<path opacity="0.1" d="M261.037 351.236C262.007 354.147 361.958 350.266 362.928 349.295C363.775 348.08 364.49 346.779 365.063 345.414H260.969C260.843 348.49 260.843 350.654 261.037 351.236Z" fill="black"/>
<path d="M155.287 108.16L151.023 121.971L154.844 125.194L171.154 94.8523C185.105 78.3138 188.91 57.6062 172.371 43.6557L172.371 43.6555C166.826 38.9779 159.649 36.6947 152.42 37.3084C145.192 37.922 138.503 41.3821 133.825 46.9275L112.509 72.1973C110.25 74.876 109.147 78.3426 109.443 81.8345C109.74 85.3264 111.411 88.5575 114.09 90.817L143.741 115.828L155.287 108.16Z" fill="#605352"/>
<path d="M144.589 112.518C168.706 112.518 188.257 92.9676 188.257 68.8505C188.257 44.7334 168.706 25.1827 144.589 25.1827C120.472 25.1827 100.921 44.7334 100.921 68.8505C100.921 92.9676 120.472 112.518 144.589 112.518Z" fill="#FFD1CB"/>
<path d="M141.678 107.666C141.678 107.666 127.122 132.897 124.211 146.482C121.3 160.068 80.5429 119.311 80.5429 119.311L75.2057 105.24C75.2057 105.24 113.536 87.2881 110.625 72.7321C107.714 58.1761 141.678 107.666 141.678 107.666Z" fill="#FFD1CB"/>
<path d="M149.441 183.357L189.227 235.759L284.326 306.598C284.326 306.598 353.224 321.154 337.698 331.828C322.172 342.502 277.534 322.124 277.534 322.124C277.534 322.124 181.464 270.693 161.086 249.344C140.708 227.996 102.862 192.091 102.862 192.091L149.441 183.357Z" fill="#FFD1CB"/>
<path d="M96.0693 264.871L107.714 283.308L177.211 261.444C192.46 256.647 209.181 258.412 222.706 266.933C234.836 274.575 242.599 286.705 225.132 304.657C190.198 340.562 166.908 321.154 166.908 321.154C166.908 321.154 49.4903 376.466 30.0823 349.295C10.6744 322.124 9.70404 308.539 9.70404 308.539C9.70404 308.539 84.4246 261.959 96.0693 264.871Z" fill="#2F2E41"/>
<path d="M241.629 328.917C241.629 328.917 272.682 349.295 235.806 358.999C198.931 368.703 171.76 355.118 171.76 355.118C171.76 355.118 139.737 355.118 139.737 338.621C139.737 322.124 150.412 320.183 150.412 320.183L183.405 325.035C183.405 325.035 223.191 314.361 241.629 328.917Z" fill="#D0CDE1"/>
<path d="M185.681 32.1236C180.531 27.5871 166.423 20.6791 164.362 19.6618C159.396 17.211 153.965 15.8263 148.378 15.5867C142.791 15.3471 137.157 16.2573 131.8 18.2654C126.442 20.2734 121.465 23.34 117.152 27.2901C112.839 31.2401 109.276 35.9963 106.665 41.2869L83.5197 83.0815L105.457 94.1399L120.964 75.6772L117.9 100.281L131.849 107.165L139.276 95.1374L137.769 110.087L153.306 117.755C153.306 91 153.306 73 169.26 61.5826C185.681 54 187.38 60.7075 193.229 56.5188C198.255 50.455 196.351 41.5244 185.681 32.1236Z" fill="#605352"/>
<path d="M71.7393 100.637C73.7038 100.113 75.7721 100.118 77.7339 100.653C83.963 102.325 97.9272 106.752 100.921 113.489C104.803 122.222 118.388 135.808 118.388 135.808C118.388 135.808 136.826 154.245 132.944 166.861C129.063 179.476 114.507 194.032 114.507 194.032C114.507 194.032 118.388 254.196 98.9805 269.723C79.5725 285.249 71.8094 274.575 71.8094 289.131C71.8094 303.687 11.6448 349.295 0 321.154C0 321.154 5.82239 268.752 3.88159 250.315C1.96878 232.143 4.76903 118.768 71.7393 100.637Z" fill="#D0CDE1"/>
<path d="M102.862 125.134C102.862 125.134 162.056 168.801 151.382 187.239C151.382 187.239 115.477 204.706 107.714 203.736C99.9509 202.765 69.8686 168.801 62.1054 165.89C54.3422 162.979 50.4607 110.578 102.862 125.134Z" fill="#D0CDE1"/>
</svg>
