<?xml version="1.0" standalone="no"?>
<!DOCTYPE svg PUBLIC "-//W3C//DTD SVG 20010904//EN"
 "http://www.w3.org/TR/2001/REC-SVG-20010904/DTD/svg10.dtd">
<svg version="1.0" xmlns="http://www.w3.org/2000/svg"
 width="721.000000pt" height="721.000000pt" viewBox="0 0 721.000000 721.000000"
 preserveAspectRatio="xMidYMid meet">
<metadata>
Created by potrace 1.11, written by Peter Selinger 2001-2013
</metadata>
<g transform="translate(0.000000,721.000000) scale(0.100000,-0.100000)"
fill="#000000" stroke="none">
<path d="M3188 7195 c-1 -2 -43 -6 -93 -10 -100 -7 -111 -8 -273 -36 -120 -20
-244 -48 -357 -81 -38 -11 -72 -20 -75 -20 -3 0 -21 -6 -40 -13 -19 -7 -69
-25 -110 -40 -148 -54 -481 -208 -488 -227 -2 -4 -8 -8 -12 -8 -13 0 -164 -92
-168 -102 -2 -4 -8 -8 -14 -8 -8 0 -94 -56 -108 -70 -3 -3 -34 -26 -70 -52
-213 -151 -477 -410 -657 -643 -39 -50 -167 -233 -190 -270 -7 -11 -31 -51
-53 -88 -23 -37 -58 -100 -79 -140 -21 -40 -42 -81 -48 -92 -39 -74 -123 -275
-115 -275 4 0 2 -4 -4 -8 -6 -4 -25 -52 -43 -107 -17 -55 -35 -107 -38 -115
-3 -8 -7 -19 -8 -25 -2 -5 -12 -46 -25 -89 -12 -43 -24 -91 -26 -105 -3 -14
-7 -34 -10 -43 -3 -10 -7 -28 -10 -40 -5 -29 -12 -66 -19 -98 -3 -14 -7 -41
-9 -60 -3 -19 -7 -46 -10 -60 -5 -27 -14 -108 -23 -205 -8 -81 -7 -545 0 -620
10 -96 19 -178 22 -205 9 -68 16 -116 20 -130 3 -8 7 -37 10 -64 4 -28 8 -53
10 -57 3 -4 7 -24 11 -44 6 -39 6 -42 25 -115 6 -25 12 -52 14 -60 12 -59 52
-191 96 -320 17 -47 31 -92 34 -100 2 -8 11 -33 21 -55 10 -22 18 -42 19 -45
2 -6 9 -22 42 -104 112 -271 359 -680 541 -894 20 -24 53 -62 72 -85 49 -60
315 -325 375 -374 28 -23 79 -65 115 -93 36 -28 72 -56 80 -63 8 -7 33 -23 55
-37 22 -13 42 -27 45 -30 10 -12 151 -100 160 -100 6 0 10 -3 10 -7 0 -5 10
-13 23 -19 58 -28 132 -70 135 -76 2 -5 10 -8 17 -8 7 0 37 -13 66 -28 110
-57 433 -180 514 -195 11 -2 27 -7 35 -10 25 -10 182 -45 225 -51 22 -2 47 -7
55 -10 14 -4 42 -9 140 -22 147 -19 567 -25 725 -10 50 4 106 10 125 12 19 1
35 3 35 4 0 1 16 3 35 5 19 2 51 6 70 10 19 3 49 8 65 11 17 2 39 6 50 8 11 2
65 14 120 25 167 35 455 122 552 167 17 7 38 14 46 14 9 0 18 4 21 9 3 5 17
12 30 15 13 3 69 27 123 53 54 26 100 47 103 48 14 1 330 181 330 187 0 5 5 8
10 8 9 0 118 67 130 80 3 3 41 32 85 63 138 100 192 143 319 257 117 105 300
298 367 385 13 17 26 32 30 35 4 3 27 32 52 65 25 33 55 72 67 87 36 47 90
130 90 139 0 5 3 9 8 9 4 0 16 16 27 36 10 19 29 47 41 62 13 14 21 29 18 33
-2 4 2 13 9 21 7 7 25 35 41 62 31 54 166 321 166 329 0 3 10 27 22 54 11 26
22 53 24 58 2 6 24 66 50 135 25 69 47 130 48 135 1 6 10 37 20 69 32 107 85
335 91 391 2 11 5 34 8 50 20 104 37 248 41 351 2 40 5 76 8 80 5 11 1 310 -5
404 -5 71 -17 183 -23 215 -2 11 -7 40 -10 65 -3 25 -12 77 -20 115 -8 39 -17
79 -19 90 -3 11 -14 56 -25 100 -12 44 -23 87 -25 95 -35 142 -182 487 -282
661 -44 75 -48 83 -56 93 -4 6 -26 40 -49 76 -40 64 -184 261 -227 310 -12 14
-40 47 -64 74 -89 103 -303 312 -390 381 -21 17 -44 35 -50 41 -41 35 -196
150 -272 200 -49 32 -91 62 -93 67 -2 4 -8 7 -12 7 -5 0 -43 20 -83 45 -41 25
-79 45 -85 45 -6 0 -12 4 -14 8 -5 12 -335 174 -383 188 -5 2 -50 19 -100 40
-49 20 -97 38 -105 39 -8 2 -16 4 -17 5 -2 2 -6 3 -10 4 -5 1 -12 4 -18 7 -15
8 -275 88 -308 95 -10 2 -26 5 -35 8 -9 3 -28 8 -42 10 -14 3 -45 10 -70 16
-25 7 -56 13 -70 15 -14 2 -25 4 -25 5 0 1 -9 3 -20 5 -11 1 -36 6 -55 10 -43
8 -61 11 -125 19 -27 4 -61 9 -75 11 -55 8 -134 17 -190 20 -32 1 -62 5 -67 7
-9 6 -489 8 -495 3z"/>
</g>
</svg>
