<?xml version="1.0" standalone="no"?>
<!DOCTYPE svg PUBLIC "-//W3C//DTD SVG 20010904//EN"
 "http://www.w3.org/TR/2001/REC-SVG-20010904/DTD/svg10.dtd">
<svg version="1.0" xmlns="http://www.w3.org/2000/svg"
 width="600.000000pt" height="600.000000pt" viewBox="0 0 600.000000 600.000000"
 preserveAspectRatio="xMidYMid meet">
<metadata>
Created by potrace 1.11, written by Peter Selinger 2001-2013
</metadata>
<g transform="translate(0.000000,600.000000) scale(0.100000,-0.100000)"
fill="#000000" stroke="none">
<path d="M1845 4335 c-44 -7 -109 -20 -145 -30 -91 -24 -291 -124 -375 -187
-79 -60 -201 -181 -227 -225 l-17 -29 130 -235 c72 -129 133 -237 137 -241 4
-4 36 11 72 34 95 58 219 115 318 144 68 20 117 27 222 31 284 10 484 -46 920
-260 346 -169 486 -224 662 -259 151 -30 511 -33 653 -5 108 21 231 60 300 95
131 66 311 215 391 323 l34 47 -136 245 -136 246 -76 -51 c-210 -137 -407
-189 -652 -173 -263 17 -370 52 -820 270 -342 165 -544 237 -743 264 -104 15
-412 12 -512 -4z"/>
<path d="M1845 2845 c-44 -7 -109 -20 -145 -30 -91 -24 -291 -124 -375 -187
-79 -60 -201 -181 -227 -225 l-17 -29 130 -235 c72 -129 133 -237 137 -241 4
-4 36 11 72 34 95 58 219 115 318 144 68 20 117 27 222 31 284 10 484 -46 920
-260 346 -169 486 -224 662 -259 151 -30 511 -33 653 -5 108 21 231 60 300 95
131 66 311 215 391 323 l34 47 -136 245 -136 246 -76 -51 c-210 -137 -407
-189 -652 -173 -263 17 -370 52 -820 270 -342 165 -544 237 -743 264 -104 15
-412 12 -512 -4z"/>
</g>
</svg>
