<svg width="800" height="600" viewBox="0 0 800 600" fill="none" xmlns="http://www.w3.org/2000/svg">
<g clip-path="url(#clip0)">
<rect width="800" height="600" fill="white"/>
<path d="M3.5 3.5H796.5V596.5H3.5V3.5Z" fill="#263368" stroke="#F2DA79" stroke-width="7"/>
<path d="M442.465 203.345C485.514 131.419 514.418 52.7235 564.262 36.698C614.107 20.6726 684.918 67.4605 720.527 119.884C756.162 172.451 756.452 230.679 804.189 278.456C851.783 326.259 946.94 363.444 973.603 419.363C1000.43 475.399 959.031 549.977 897.944 602.281C836.857 654.585 756.061 684.472 680.154 678.763C604.247 673.054 533.086 631.773 467.922 580.308C402.734 528.699 343.568 467.048 342.654 403.633C341.74 340.217 399.247 275.153 442.465 203.345Z" fill="#B4C6EE"/>
<path d="M450.247 429.833H475.51L537.765 405.473C537.765 405.473 581.975 387.428 578.366 421.713C574.757 455.998 568.442 502.013 568.442 502.013C568.442 502.013 548.592 492.991 537.765 495.697C526.938 498.404 534.156 440.66 534.156 440.66C534.156 440.66 445.736 483.066 437.616 477.652C429.496 472.239 427.691 434.344 427.691 434.344L450.247 429.833Z" fill="#2F2E41"/>
<path opacity="0.1" d="M450.247 429.833H475.51L537.765 405.473C537.765 405.473 581.975 387.428 578.366 421.713C574.757 455.998 568.442 502.013 568.442 502.013C568.442 502.013 548.592 492.991 537.765 495.697C526.938 498.404 534.156 440.66 534.156 440.66C534.156 440.66 445.736 483.066 437.616 477.652C429.496 472.239 427.691 434.344 427.691 434.344L450.247 429.833Z" fill="black"/>
<path d="M490.049 350.719L520.622 394.646L591.9 454.194C591.9 454.194 657.764 469.532 648.742 480.359C639.719 491.186 584.682 469.532 584.682 469.532C584.682 469.532 502.578 409.984 499.871 405.472C497.164 400.961 467.39 358.556 467.39 358.556L490.049 350.719Z" fill="#FFD1CB"/>
<path opacity="0.1" d="M490.049 350.719L520.622 394.646L591.9 454.194C591.9 454.194 657.764 469.532 648.742 480.359C639.719 491.186 584.682 469.532 584.682 469.532C584.682 469.532 502.578 409.984 499.871 405.472C497.164 400.961 467.39 358.556 467.39 358.556L490.049 350.719Z" fill="black"/>
<path d="M471.901 315.248L491.751 354.044C491.751 354.044 487.239 372.992 480.021 374.796C472.803 376.601 442.127 351.338 442.127 351.338L471.901 315.248Z" fill="#D0CDE1"/>
<path opacity="0.1" d="M471.901 315.248L491.751 354.044C491.751 354.044 487.239 372.992 480.021 374.796C472.803 376.601 442.127 351.338 442.127 351.338L471.901 315.248Z" fill="black"/>
<path d="M714.056 409.746L719.919 433.932C719.984 434.202 719.974 434.484 719.89 434.748L693.292 517.866C693.187 518.195 692.972 518.478 692.683 518.668C692.394 518.857 692.049 518.942 691.705 518.909C691.361 518.875 691.039 518.724 690.793 518.481C690.547 518.239 690.391 517.919 690.352 517.576L686.673 485.197C686.649 484.982 686.671 484.764 686.738 484.558L711.151 409.634C711.253 409.321 711.454 409.05 711.724 408.862C711.994 408.674 712.317 408.579 712.646 408.592C712.974 408.605 713.29 408.724 713.544 408.932C713.799 409.141 713.978 409.426 714.056 409.746Z" fill="#2F2E41"/>
<path d="M711.899 411.788L717.312 432.54L693.853 508.329L688.44 484.87L711.899 411.788Z" fill="#F2F2F2"/>
<path d="M593.704 524.569C594.607 527.276 687.538 523.667 688.44 522.765C689.227 521.635 689.892 520.425 690.425 519.156C691.273 517.351 692.049 515.547 692.049 515.547L688.44 486.332L596.411 483.066C596.411 483.066 594.11 507.823 593.641 519.156C593.524 522.016 593.524 524.028 593.704 524.569Z" fill="#2F2E41"/>
<path opacity="0.1" d="M676.711 490.284L678.516 515.547H637.915V490.284H676.711Z" fill="black"/>
<path opacity="0.1" d="M624.381 498.404L624.623 498.356L623.479 509.231H600.923V498.404H624.381Z" fill="black"/>
<path opacity="0.1" d="M593.704 524.569C594.607 527.276 687.538 523.667 688.44 522.765C689.227 521.635 689.892 520.425 690.425 519.156H593.641C593.524 522.016 593.524 524.028 593.704 524.569Z" fill="black"/>
<path d="M495.381 298.564L491.417 311.405L494.97 314.402L510.134 286.191C523.105 270.814 526.643 251.56 511.266 238.59L511.266 238.59C506.11 234.24 499.437 232.118 492.716 232.688C485.995 233.259 479.776 236.476 475.427 241.632L455.608 265.127C453.507 267.618 452.482 270.841 452.757 274.087C453.033 277.334 454.587 280.338 457.078 282.439L484.646 305.694L495.381 298.564Z" fill="#605352"/>
<path d="M485.435 302.616C507.858 302.616 526.036 284.439 526.036 262.015C526.036 239.592 507.858 221.414 485.435 221.414C463.011 221.414 444.834 239.592 444.834 262.015C444.834 284.439 463.011 302.616 485.435 302.616Z" fill="#FFD1CB"/>
<path d="M482.728 298.105C482.728 298.105 469.195 321.564 466.488 334.195C463.781 346.826 425.887 308.932 425.887 308.932L420.924 295.849C420.924 295.849 456.563 279.158 453.856 265.624C451.15 252.091 482.728 298.105 482.728 298.105Z" fill="#FFD1CB"/>
<path d="M489.946 368.48L526.938 417.202L615.358 483.066C615.358 483.066 679.418 496.599 664.982 506.524C650.546 516.449 609.043 497.502 609.043 497.502C609.043 497.502 519.72 449.683 500.773 429.833C481.826 409.984 446.638 376.601 446.638 376.601L489.946 368.48Z" fill="#FFD1CB"/>
<path d="M440.322 444.269L451.149 461.412L515.766 441.083C529.944 436.623 545.49 438.264 558.066 446.186C569.344 453.292 576.562 464.57 560.321 481.261C527.84 514.644 506.186 496.599 506.186 496.599C506.186 496.599 397.015 548.028 378.97 522.765C360.925 497.502 360.022 484.87 360.022 484.87C360.022 484.87 429.495 441.562 440.322 444.269Z" fill="#2F2E41"/>
<path d="M575.66 503.817C575.66 503.817 604.531 522.765 570.246 531.787C535.961 540.81 510.698 528.178 510.698 528.178C510.698 528.178 480.924 528.178 480.924 512.84C480.924 497.502 490.848 495.697 490.848 495.697L521.525 500.208C521.525 500.208 558.517 490.284 575.66 503.817Z" fill="#D0CDE1"/>
<path d="M523.64 227.868C518.853 223.65 505.735 217.227 503.819 216.281C499.202 214.002 494.152 212.715 488.957 212.492C483.763 212.269 478.525 213.116 473.544 214.983C468.562 216.85 463.934 219.701 459.925 223.374C455.915 227.046 452.601 231.468 450.174 236.387L428.654 275.247L449.051 285.529L463.469 268.362L460.62 291.238L473.589 297.639L480.495 286.456L479.094 300.356L493.54 307.485C493.54 282.609 493.54 265.873 508.373 255.258C523.64 248.208 525.221 254.444 530.659 250.55C535.331 244.912 533.561 236.608 523.64 227.868Z" fill="#605352"/>
<path d="M417.701 291.57C419.528 291.082 421.451 291.087 423.275 291.584C429.066 293.139 442.05 297.255 444.834 303.519C448.443 311.639 461.074 324.27 461.074 324.27C461.074 324.27 478.217 341.413 474.608 353.142C470.999 364.871 457.465 378.405 457.465 378.405C457.465 378.405 461.074 434.344 443.029 448.78C424.984 463.216 417.766 453.292 417.766 466.825C417.766 480.359 361.827 522.765 351 496.599C351 496.599 356.413 447.878 354.609 430.735C352.831 413.84 355.434 308.427 417.701 291.57Z" fill="#D0CDE1"/>
<path d="M446.638 314.345C446.638 314.345 501.675 354.947 491.751 372.089C491.751 372.089 458.367 388.33 451.149 387.428C443.931 386.525 415.962 354.947 408.744 352.24C401.526 349.533 397.917 300.812 446.638 314.345Z" fill="#D0CDE1"/>
<path d="M515.105 231.007L711.751 410.918L717.33 432.302L693.621 509.008L660.614 503.43C622.509 482.477 513.103 417.082 473.265 390.927C380.061 329.738 449.164 320.259 456.529 297.95C479.562 237.78 493.232 235.044 515.105 231.007Z" fill="url(#paint0_linear)"/>
<rect x="370" y="63" width="860" height="64" rx="10" fill="#F2DA79"/>
<path d="M620.426 102.216C619.562 102.216 618.788 102.054 618.104 101.73C617.432 101.406 616.856 100.956 616.376 100.38C615.908 99.804 615.548 99.12 615.296 98.328C615.056 97.536 614.936 96.672 614.936 95.736C614.936 94.68 615.074 93.75 615.35 92.946C615.638 92.13 616.022 91.446 616.502 90.894C616.982 90.342 617.546 89.928 618.194 89.652C618.842 89.364 619.526 89.22 620.246 89.22C621.026 89.22 621.638 89.358 622.082 89.634C622.526 89.898 622.832 90.186 623 90.498H623.09V89.436H624.944V93.342H623.09V92.496C623.09 91.884 622.868 91.392 622.424 91.02C621.992 90.648 621.38 90.462 620.588 90.462C619.652 90.462 618.938 90.768 618.446 91.38C617.954 91.992 617.708 92.856 617.708 93.972V97.194C617.708 98.37 617.996 99.252 618.572 99.84C619.16 100.416 619.934 100.704 620.894 100.704C621.686 100.704 622.352 100.5 622.892 100.092C623.444 99.672 623.858 99.12 624.134 98.436L625.052 98.958C624.908 99.39 624.698 99.804 624.422 100.2C624.158 100.584 623.828 100.926 623.432 101.226C623.048 101.526 622.604 101.766 622.1 101.946C621.596 102.126 621.038 102.216 620.426 102.216ZM630.909 101.028C631.557 101.028 632.037 100.83 632.349 100.434C632.673 100.038 632.835 99.48 632.835 98.76V95.844C632.835 95.124 632.673 94.566 632.349 94.17C632.037 93.774 631.557 93.576 630.909 93.576C630.261 93.576 629.775 93.774 629.451 94.17C629.139 94.566 628.983 95.124 628.983 95.844V98.76C628.983 99.48 629.139 100.038 629.451 100.434C629.775 100.83 630.261 101.028 630.909 101.028ZM630.909 102.216C630.237 102.216 629.625 102.108 629.073 101.892C628.533 101.664 628.065 101.34 627.669 100.92C627.285 100.488 626.985 99.972 626.769 99.372C626.553 98.76 626.445 98.07 626.445 97.302C626.445 96.534 626.553 95.85 626.769 95.25C626.985 94.638 627.285 94.122 627.669 93.702C628.065 93.27 628.533 92.946 629.073 92.73C629.625 92.502 630.237 92.388 630.909 92.388C631.581 92.388 632.187 92.502 632.727 92.73C633.279 92.946 633.747 93.27 634.131 93.702C634.527 94.122 634.833 94.638 635.049 95.25C635.265 95.85 635.373 96.534 635.373 97.302C635.373 98.07 635.265 98.76 635.049 99.372C634.833 99.972 634.527 100.488 634.131 100.92C633.747 101.34 633.279 101.664 632.727 101.892C632.187 102.108 631.581 102.216 630.909 102.216ZM636.816 100.92H637.968V94.242L636.816 94.008V93.108L640.29 92.388V94.134H640.38C640.464 93.906 640.578 93.69 640.722 93.486C640.878 93.27 641.064 93.084 641.28 92.928C641.508 92.76 641.766 92.628 642.054 92.532C642.342 92.436 642.672 92.388 643.044 92.388C644.184 92.388 644.994 92.682 645.474 93.27C645.954 93.846 646.194 94.716 646.194 95.88V100.92H647.346V102H642.738V100.92H643.836V95.988C643.836 95.28 643.704 94.77 643.44 94.458C643.176 94.134 642.75 93.972 642.162 93.972C641.934 93.972 641.712 94.002 641.496 94.062C641.28 94.122 641.082 94.218 640.902 94.35C640.734 94.47 640.596 94.626 640.488 94.818C640.38 95.01 640.326 95.238 640.326 95.502V100.92H641.424V102H636.816V100.92ZM651.581 102.162C650.873 102.162 650.363 102.012 650.051 101.712C649.751 101.412 649.601 100.95 649.601 100.326V93.756H648.359V92.604H648.755C649.175 92.604 649.475 92.526 649.655 92.37C649.835 92.202 649.991 91.956 650.123 91.632L650.771 90.066H651.959V92.604H654.119V93.756H651.959V100.884H654.119V101.802C653.927 101.898 653.597 101.982 653.129 102.054C652.661 102.126 652.145 102.162 651.581 102.162ZM657.992 102.216C657.02 102.216 656.3 101.982 655.832 101.514C655.364 101.046 655.13 100.398 655.13 99.57C655.13 98.658 655.46 97.968 656.12 97.5C656.792 97.032 657.836 96.798 659.252 96.798H660.53V95.664C660.53 94.932 660.38 94.38 660.08 94.008C659.78 93.624 659.288 93.432 658.604 93.432C658.076 93.432 657.668 93.51 657.38 93.666V93.738C657.5 93.81 657.614 93.924 657.722 94.08C657.842 94.224 657.902 94.428 657.902 94.692C657.902 95.04 657.794 95.328 657.578 95.556C657.374 95.772 657.068 95.88 656.66 95.88C656.312 95.88 656.024 95.766 655.796 95.538C655.58 95.31 655.472 95.01 655.472 94.638C655.472 94.35 655.55 94.074 655.706 93.81C655.874 93.534 656.12 93.294 656.444 93.09C656.768 92.874 657.164 92.706 657.632 92.586C658.112 92.454 658.664 92.388 659.288 92.388C660.488 92.388 661.388 92.664 661.988 93.216C662.588 93.756 662.888 94.518 662.888 95.502V100.938H664.04V101.838C663.86 101.958 663.62 102.048 663.32 102.108C663.02 102.18 662.714 102.216 662.402 102.216C661.802 102.216 661.37 102.072 661.106 101.784C660.842 101.484 660.71 101.106 660.71 100.65V100.596H660.62C660.536 100.8 660.428 100.998 660.296 101.19C660.164 101.382 659.996 101.556 659.792 101.712C659.588 101.856 659.336 101.976 659.036 102.072C658.748 102.168 658.4 102.216 657.992 102.216ZM658.91 100.776C659.39 100.776 659.78 100.662 660.08 100.434C660.38 100.206 660.53 99.822 660.53 99.282V97.77H659.504C658.784 97.77 658.268 97.902 657.956 98.166C657.656 98.418 657.506 98.784 657.506 99.264V99.588C657.506 99.996 657.632 100.296 657.884 100.488C658.148 100.68 658.49 100.776 658.91 100.776ZM669.775 102.216C669.043 102.216 668.395 102.096 667.831 101.856C667.279 101.604 666.811 101.262 666.427 100.83C666.055 100.386 665.767 99.864 665.563 99.264C665.371 98.652 665.275 97.992 665.275 97.284C665.275 96.516 665.395 95.826 665.635 95.214C665.875 94.602 666.205 94.092 666.625 93.684C667.045 93.264 667.543 92.946 668.119 92.73C668.695 92.502 669.319 92.388 669.991 92.388C671.059 92.388 671.887 92.61 672.475 93.054C673.063 93.498 673.357 94.062 673.357 94.746C673.357 95.178 673.237 95.52 672.997 95.772C672.769 96.024 672.445 96.15 672.025 96.15C671.605 96.15 671.281 96.036 671.053 95.808C670.837 95.58 670.729 95.286 670.729 94.926C670.729 94.638 670.801 94.392 670.945 94.188C671.101 93.984 671.287 93.834 671.503 93.738V93.648C671.371 93.588 671.209 93.54 671.017 93.504C670.837 93.468 670.591 93.45 670.279 93.45C669.523 93.45 668.923 93.702 668.479 94.206C668.035 94.71 667.813 95.394 667.813 96.258V97.968C667.813 98.82 668.017 99.48 668.425 99.948C668.833 100.416 669.397 100.65 670.117 100.65C670.801 100.65 671.341 100.494 671.737 100.182C672.145 99.87 672.451 99.492 672.655 99.048L673.519 99.588C673.411 99.888 673.255 100.194 673.051 100.506C672.859 100.818 672.607 101.1 672.295 101.352C671.995 101.604 671.635 101.814 671.215 101.982C670.795 102.138 670.315 102.216 669.775 102.216ZM677.772 102.162C677.064 102.162 676.554 102.012 676.242 101.712C675.942 101.412 675.792 100.95 675.792 100.326V93.756H674.55V92.604H674.946C675.366 92.604 675.666 92.526 675.846 92.37C676.026 92.202 676.182 91.956 676.314 91.632L676.962 90.066H678.15V92.604H680.31V93.756H678.15V100.884H680.31V101.802C680.118 101.898 679.788 101.982 679.32 102.054C678.852 102.126 678.336 102.162 677.772 102.162Z" fill="#263368"/>
<path d="M551.81 100.92H553.088V90.516H551.81V89.436H558.164C558.824 89.436 559.4 89.514 559.892 89.67C560.396 89.814 560.81 90.018 561.134 90.282C561.458 90.534 561.698 90.84 561.854 91.2C562.022 91.56 562.106 91.956 562.106 92.388C562.106 92.832 562.034 93.222 561.89 93.558C561.746 93.894 561.548 94.182 561.296 94.422C561.056 94.662 560.78 94.86 560.468 95.016C560.156 95.16 559.832 95.268 559.496 95.34V95.43C559.844 95.466 560.204 95.556 560.576 95.7C560.948 95.832 561.284 96.024 561.584 96.276C561.884 96.528 562.13 96.84 562.322 97.212C562.514 97.584 562.61 98.016 562.61 98.508C562.61 99.612 562.262 100.47 561.566 101.082C560.882 101.694 559.886 102 558.578 102H551.81V100.92ZM555.608 100.83H557.93C558.602 100.83 559.118 100.662 559.478 100.326C559.838 99.978 560.018 99.498 560.018 98.886V98.076C560.018 97.464 559.838 96.99 559.478 96.654C559.118 96.306 558.602 96.132 557.93 96.132H555.608V100.83ZM555.608 94.962H557.624C558.248 94.962 558.716 94.812 559.028 94.512C559.352 94.2 559.514 93.756 559.514 93.18V92.388C559.514 91.812 559.352 91.374 559.028 91.074C558.716 90.762 558.248 90.606 557.624 90.606H555.608V94.962ZM564.038 100.92H565.19V90.174L564.038 89.94V89.04L567.548 88.32V100.92H568.7V102H564.038V100.92ZM574.413 101.028C575.061 101.028 575.541 100.83 575.853 100.434C576.177 100.038 576.339 99.48 576.339 98.76V95.844C576.339 95.124 576.177 94.566 575.853 94.17C575.541 93.774 575.061 93.576 574.413 93.576C573.765 93.576 573.279 93.774 572.955 94.17C572.643 94.566 572.487 95.124 572.487 95.844V98.76C572.487 99.48 572.643 100.038 572.955 100.434C573.279 100.83 573.765 101.028 574.413 101.028ZM574.413 102.216C573.741 102.216 573.129 102.108 572.577 101.892C572.037 101.664 571.569 101.34 571.173 100.92C570.789 100.488 570.489 99.972 570.273 99.372C570.057 98.76 569.949 98.07 569.949 97.302C569.949 96.534 570.057 95.85 570.273 95.25C570.489 94.638 570.789 94.122 571.173 93.702C571.569 93.27 572.037 92.946 572.577 92.73C573.129 92.502 573.741 92.388 574.413 92.388C575.085 92.388 575.691 92.502 576.231 92.73C576.783 92.946 577.251 93.27 577.635 93.702C578.031 94.122 578.337 94.638 578.553 95.25C578.769 95.85 578.877 96.534 578.877 97.302C578.877 98.07 578.769 98.76 578.553 99.372C578.337 99.972 578.031 100.488 577.635 100.92C577.251 101.34 576.783 101.664 576.231 101.892C575.691 102.108 575.085 102.216 574.413 102.216ZM584.514 105.816C583.674 105.816 582.972 105.768 582.408 105.672C581.856 105.576 581.406 105.432 581.058 105.24C580.722 105.06 580.482 104.838 580.338 104.574C580.194 104.31 580.122 104.016 580.122 103.692C580.122 103.236 580.32 102.858 580.716 102.558C581.112 102.258 581.58 102.06 582.12 101.964V101.892C581.712 101.796 581.388 101.604 581.148 101.316C580.908 101.016 580.788 100.638 580.788 100.182C580.788 99.654 580.962 99.24 581.31 98.94C581.658 98.64 582.078 98.436 582.57 98.328V98.238C581.97 97.998 581.502 97.65 581.166 97.194C580.842 96.738 580.68 96.168 580.68 95.484C580.68 94.992 580.77 94.554 580.95 94.17C581.142 93.786 581.406 93.462 581.742 93.198C582.09 92.934 582.498 92.736 582.966 92.604C583.446 92.46 583.974 92.388 584.55 92.388C585.018 92.388 585.444 92.436 585.828 92.532C586.212 92.628 586.566 92.766 586.89 92.946C586.938 92.274 587.1 91.788 587.376 91.488C587.664 91.176 588.054 91.02 588.546 91.02C588.87 91.02 589.14 91.116 589.356 91.308C589.572 91.488 589.68 91.752 589.68 92.1C589.68 92.412 589.578 92.67 589.374 92.874C589.17 93.066 588.894 93.162 588.546 93.162C588.354 93.162 588.174 93.126 588.006 93.054C587.838 92.982 587.7 92.874 587.592 92.73H587.52V93.378C587.796 93.618 588.018 93.906 588.186 94.242C588.366 94.578 588.456 94.992 588.456 95.484C588.456 95.976 588.36 96.42 588.168 96.816C587.976 97.2 587.706 97.524 587.358 97.788C587.022 98.052 586.614 98.256 586.134 98.4C585.654 98.532 585.126 98.598 584.55 98.598C584.13 98.598 583.71 98.55 583.29 98.454C583.086 98.55 582.918 98.682 582.786 98.85C582.654 99.006 582.588 99.18 582.588 99.372C582.588 99.636 582.684 99.834 582.876 99.966C583.08 100.086 583.41 100.146 583.866 100.146H585.972C587.208 100.146 588.096 100.374 588.636 100.83C589.176 101.286 589.446 101.91 589.446 102.702C589.446 103.674 589.038 104.436 588.222 104.988C587.406 105.54 586.17 105.816 584.514 105.816ZM584.568 97.5C585.6 97.5 586.116 96.924 586.116 95.772V95.232C586.116 94.08 585.6 93.504 584.568 93.504C583.536 93.504 583.02 94.08 583.02 95.232V95.772C583.02 96.924 583.536 97.5 584.568 97.5ZM582.066 103.512C582.066 104.328 582.75 104.736 584.118 104.736H585.18C585.936 104.736 586.506 104.622 586.89 104.394C587.286 104.166 587.484 103.83 587.484 103.386C587.484 102.966 587.34 102.672 587.052 102.504C586.776 102.348 586.344 102.27 585.756 102.27H582.768C582.528 102.414 582.348 102.582 582.228 102.774C582.12 102.978 582.066 103.224 582.066 103.512Z" fill="#263368"/>
<path d="M480.224 90.516H479.306V89.436H484.274V90.516H482.78L484.85 99.678H484.94L487.586 89.436H489.764L492.41 99.678H492.5L494.57 90.516H493.076V89.436H496.892V90.516H495.974L493.13 102H490.718L488.144 92.496H488.054L485.48 102H483.068L480.224 90.516ZM501.551 101.028C502.199 101.028 502.679 100.83 502.991 100.434C503.315 100.038 503.477 99.48 503.477 98.76V95.844C503.477 95.124 503.315 94.566 502.991 94.17C502.679 93.774 502.199 93.576 501.551 93.576C500.903 93.576 500.417 93.774 500.093 94.17C499.781 94.566 499.625 95.124 499.625 95.844V98.76C499.625 99.48 499.781 100.038 500.093 100.434C500.417 100.83 500.903 101.028 501.551 101.028ZM501.551 102.216C500.879 102.216 500.267 102.108 499.715 101.892C499.175 101.664 498.707 101.34 498.311 100.92C497.927 100.488 497.627 99.972 497.411 99.372C497.195 98.76 497.087 98.07 497.087 97.302C497.087 96.534 497.195 95.85 497.411 95.25C497.627 94.638 497.927 94.122 498.311 93.702C498.707 93.27 499.175 92.946 499.715 92.73C500.267 92.502 500.879 92.388 501.551 92.388C502.223 92.388 502.829 92.502 503.369 92.73C503.921 92.946 504.389 93.27 504.773 93.702C505.169 94.122 505.475 94.638 505.691 95.25C505.907 95.85 506.015 96.534 506.015 97.302C506.015 98.07 505.907 98.76 505.691 99.372C505.475 99.972 505.169 100.488 504.773 100.92C504.389 101.34 503.921 101.664 503.369 101.892C502.829 102.108 502.223 102.216 501.551 102.216ZM507.476 100.92H508.628V94.242L507.476 94.008V93.108L510.95 92.388V94.134H511.04C511.124 93.906 511.232 93.69 511.364 93.486C511.496 93.27 511.652 93.084 511.832 92.928C512.024 92.76 512.24 92.628 512.48 92.532C512.72 92.436 512.99 92.388 513.29 92.388C513.866 92.388 514.316 92.538 514.64 92.838C514.976 93.138 515.144 93.552 515.144 94.08C515.144 94.536 515.03 94.89 514.802 95.142C514.574 95.394 514.256 95.52 513.848 95.52C513.44 95.52 513.128 95.412 512.912 95.196C512.696 94.98 512.588 94.716 512.588 94.404C512.588 94.236 512.624 94.086 512.696 93.954C512.768 93.822 512.852 93.738 512.948 93.702V93.63C512.9 93.618 512.816 93.612 512.696 93.612C512.492 93.612 512.288 93.672 512.084 93.792C511.88 93.9 511.694 94.044 511.526 94.224C511.37 94.392 511.238 94.584 511.13 94.8C511.034 95.016 510.986 95.232 510.986 95.448V100.92H512.498V102H507.476V100.92ZM515.856 100.92H517.008V90.174L515.856 89.94V89.04L519.366 88.32V97.41H519.456L520.68 96.006L522.858 93.684H521.724V92.604H525.738V93.684H524.46L522.228 95.934L525.342 100.92H526.206V102H521.778V100.92H522.678L520.644 97.392L519.366 98.742V100.92H520.464V102H515.856V100.92Z" fill="#263368"/>
<path d="M402.81 100.92H404.088V90.516H402.81V89.436H407.886V90.516H406.608V94.98H411.864V90.516H410.586V89.436H415.662V90.516H414.384V100.92H415.662V102H410.586V100.92H411.864V96.15H406.608V100.92H407.886V102H402.81V100.92ZM421.651 101.028C422.299 101.028 422.779 100.83 423.091 100.434C423.415 100.038 423.577 99.48 423.577 98.76V95.844C423.577 95.124 423.415 94.566 423.091 94.17C422.779 93.774 422.299 93.576 421.651 93.576C421.003 93.576 420.517 93.774 420.193 94.17C419.881 94.566 419.725 95.124 419.725 95.844V98.76C419.725 99.48 419.881 100.038 420.193 100.434C420.517 100.83 421.003 101.028 421.651 101.028ZM421.651 102.216C420.979 102.216 420.367 102.108 419.815 101.892C419.275 101.664 418.807 101.34 418.411 100.92C418.027 100.488 417.727 99.972 417.511 99.372C417.295 98.76 417.187 98.07 417.187 97.302C417.187 96.534 417.295 95.85 417.511 95.25C417.727 94.638 418.027 94.122 418.411 93.702C418.807 93.27 419.275 92.946 419.815 92.73C420.367 92.502 420.979 92.388 421.651 92.388C422.323 92.388 422.929 92.502 423.469 92.73C424.021 92.946 424.489 93.27 424.873 93.702C425.269 94.122 425.575 94.638 425.791 95.25C426.007 95.85 426.115 96.534 426.115 97.302C426.115 98.07 426.007 98.76 425.791 99.372C425.575 99.972 425.269 100.488 424.873 100.92C424.489 101.34 424.021 101.664 423.469 101.892C422.929 102.108 422.323 102.216 421.651 102.216ZM427.576 100.92H428.728V94.242L427.576 94.008V93.108L431.05 92.388V94.134H431.14C431.224 93.906 431.338 93.69 431.482 93.486C431.638 93.27 431.824 93.084 432.04 92.928C432.256 92.76 432.508 92.628 432.796 92.532C433.096 92.436 433.432 92.388 433.804 92.388C434.596 92.388 435.214 92.538 435.658 92.838C436.102 93.138 436.408 93.588 436.576 94.188H436.648C436.744 93.96 436.87 93.738 437.026 93.522C437.194 93.306 437.392 93.114 437.62 92.946C437.86 92.778 438.13 92.646 438.43 92.55C438.742 92.442 439.096 92.388 439.492 92.388C440.596 92.388 441.376 92.682 441.832 93.27C442.3 93.846 442.534 94.716 442.534 95.88V100.92H443.686V102H439.132V100.92H440.176V95.988C440.176 95.28 440.05 94.77 439.798 94.458C439.546 94.134 439.132 93.972 438.556 93.972C438.34 93.972 438.124 94.002 437.908 94.062C437.704 94.122 437.518 94.218 437.35 94.35C437.194 94.47 437.062 94.632 436.954 94.836C436.858 95.028 436.81 95.256 436.81 95.52V100.92H437.854V102H433.408V100.92H434.452V95.988C434.452 95.28 434.326 94.77 434.074 94.458C433.834 94.134 433.432 93.972 432.868 93.972C432.64 93.972 432.418 94.002 432.202 94.062C431.986 94.122 431.794 94.218 431.626 94.35C431.47 94.47 431.338 94.632 431.23 94.836C431.134 95.028 431.086 95.256 431.086 95.52V100.92H432.13V102H427.576V100.92ZM449.425 102.216C448.705 102.216 448.063 102.096 447.499 101.856C446.947 101.616 446.479 101.28 446.095 100.848C445.711 100.404 445.417 99.882 445.213 99.282C445.021 98.67 444.925 98.004 444.925 97.284C444.925 96.54 445.027 95.868 445.231 95.268C445.447 94.656 445.747 94.14 446.131 93.72C446.515 93.288 446.971 92.958 447.499 92.73C448.039 92.502 448.633 92.388 449.281 92.388C449.929 92.388 450.511 92.496 451.027 92.712C451.555 92.916 451.999 93.21 452.359 93.594C452.731 93.978 453.013 94.44 453.205 94.98C453.409 95.508 453.511 96.102 453.511 96.762V97.32H447.463V97.968C447.463 98.832 447.685 99.498 448.129 99.966C448.585 100.422 449.179 100.65 449.911 100.65C450.583 100.65 451.123 100.5 451.531 100.2C451.939 99.9 452.239 99.528 452.431 99.084L453.313 99.624C453.205 99.924 453.043 100.23 452.827 100.542C452.623 100.842 452.359 101.118 452.035 101.37C451.723 101.622 451.351 101.826 450.919 101.982C450.487 102.138 449.989 102.216 449.425 102.216ZM447.463 96.276H451.063V96.042C451.063 95.178 450.907 94.542 450.595 94.134C450.295 93.726 449.857 93.522 449.281 93.522C448.705 93.522 448.255 93.726 447.931 94.134C447.619 94.53 447.463 95.16 447.463 96.024V96.276Z" fill="#263368"/>
<rect x="402" y="106" width="53" height="2" fill="#263368"/>
<g filter="url(#filter0_d)">
<rect x="370" y="63" width="860" height="64" rx="10" fill="#F2DA79"/>
<path d="M644.426 102.216C643.562 102.216 642.788 102.054 642.104 101.73C641.432 101.406 640.856 100.956 640.376 100.38C639.908 99.804 639.548 99.12 639.296 98.328C639.056 97.536 638.936 96.672 638.936 95.736C638.936 94.68 639.074 93.75 639.35 92.946C639.638 92.13 640.022 91.446 640.502 90.894C640.982 90.342 641.546 89.928 642.194 89.652C642.842 89.364 643.526 89.22 644.246 89.22C645.026 89.22 645.638 89.358 646.082 89.634C646.526 89.898 646.832 90.186 647 90.498H647.09V89.436H648.944V93.342H647.09V92.496C647.09 91.884 646.868 91.392 646.424 91.02C645.992 90.648 645.38 90.462 644.588 90.462C643.652 90.462 642.938 90.768 642.446 91.38C641.954 91.992 641.708 92.856 641.708 93.972V97.194C641.708 98.37 641.996 99.252 642.572 99.84C643.16 100.416 643.934 100.704 644.894 100.704C645.686 100.704 646.352 100.5 646.892 100.092C647.444 99.672 647.858 99.12 648.134 98.436L649.052 98.958C648.908 99.39 648.698 99.804 648.422 100.2C648.158 100.584 647.828 100.926 647.432 101.226C647.048 101.526 646.604 101.766 646.1 101.946C645.596 102.126 645.038 102.216 644.426 102.216ZM654.909 101.028C655.557 101.028 656.037 100.83 656.349 100.434C656.673 100.038 656.835 99.48 656.835 98.76V95.844C656.835 95.124 656.673 94.566 656.349 94.17C656.037 93.774 655.557 93.576 654.909 93.576C654.261 93.576 653.775 93.774 653.451 94.17C653.139 94.566 652.983 95.124 652.983 95.844V98.76C652.983 99.48 653.139 100.038 653.451 100.434C653.775 100.83 654.261 101.028 654.909 101.028ZM654.909 102.216C654.237 102.216 653.625 102.108 653.073 101.892C652.533 101.664 652.065 101.34 651.669 100.92C651.285 100.488 650.985 99.972 650.769 99.372C650.553 98.76 650.445 98.07 650.445 97.302C650.445 96.534 650.553 95.85 650.769 95.25C650.985 94.638 651.285 94.122 651.669 93.702C652.065 93.27 652.533 92.946 653.073 92.73C653.625 92.502 654.237 92.388 654.909 92.388C655.581 92.388 656.187 92.502 656.727 92.73C657.279 92.946 657.747 93.27 658.131 93.702C658.527 94.122 658.833 94.638 659.049 95.25C659.265 95.85 659.373 96.534 659.373 97.302C659.373 98.07 659.265 98.76 659.049 99.372C658.833 99.972 658.527 100.488 658.131 100.92C657.747 101.34 657.279 101.664 656.727 101.892C656.187 102.108 655.581 102.216 654.909 102.216ZM660.816 100.92H661.968V94.242L660.816 94.008V93.108L664.29 92.388V94.134H664.38C664.464 93.906 664.578 93.69 664.722 93.486C664.878 93.27 665.064 93.084 665.28 92.928C665.508 92.76 665.766 92.628 666.054 92.532C666.342 92.436 666.672 92.388 667.044 92.388C668.184 92.388 668.994 92.682 669.474 93.27C669.954 93.846 670.194 94.716 670.194 95.88V100.92H671.346V102H666.738V100.92H667.836V95.988C667.836 95.28 667.704 94.77 667.44 94.458C667.176 94.134 666.75 93.972 666.162 93.972C665.934 93.972 665.712 94.002 665.496 94.062C665.28 94.122 665.082 94.218 664.902 94.35C664.734 94.47 664.596 94.626 664.488 94.818C664.38 95.01 664.326 95.238 664.326 95.502V100.92H665.424V102H660.816V100.92ZM675.581 102.162C674.873 102.162 674.363 102.012 674.051 101.712C673.751 101.412 673.601 100.95 673.601 100.326V93.756H672.359V92.604H672.755C673.175 92.604 673.475 92.526 673.655 92.37C673.835 92.202 673.991 91.956 674.123 91.632L674.771 90.066H675.959V92.604H678.119V93.756H675.959V100.884H678.119V101.802C677.927 101.898 677.597 101.982 677.129 102.054C676.661 102.126 676.145 102.162 675.581 102.162ZM681.992 102.216C681.02 102.216 680.3 101.982 679.832 101.514C679.364 101.046 679.13 100.398 679.13 99.57C679.13 98.658 679.46 97.968 680.12 97.5C680.792 97.032 681.836 96.798 683.252 96.798H684.53V95.664C684.53 94.932 684.38 94.38 684.08 94.008C683.78 93.624 683.288 93.432 682.604 93.432C682.076 93.432 681.668 93.51 681.38 93.666V93.738C681.5 93.81 681.614 93.924 681.722 94.08C681.842 94.224 681.902 94.428 681.902 94.692C681.902 95.04 681.794 95.328 681.578 95.556C681.374 95.772 681.068 95.88 680.66 95.88C680.312 95.88 680.024 95.766 679.796 95.538C679.58 95.31 679.472 95.01 679.472 94.638C679.472 94.35 679.55 94.074 679.706 93.81C679.874 93.534 680.12 93.294 680.444 93.09C680.768 92.874 681.164 92.706 681.632 92.586C682.112 92.454 682.664 92.388 683.288 92.388C684.488 92.388 685.388 92.664 685.988 93.216C686.588 93.756 686.888 94.518 686.888 95.502V100.938H688.04V101.838C687.86 101.958 687.62 102.048 687.32 102.108C687.02 102.18 686.714 102.216 686.402 102.216C685.802 102.216 685.37 102.072 685.106 101.784C684.842 101.484 684.71 101.106 684.71 100.65V100.596H684.62C684.536 100.8 684.428 100.998 684.296 101.19C684.164 101.382 683.996 101.556 683.792 101.712C683.588 101.856 683.336 101.976 683.036 102.072C682.748 102.168 682.4 102.216 681.992 102.216ZM682.91 100.776C683.39 100.776 683.78 100.662 684.08 100.434C684.38 100.206 684.53 99.822 684.53 99.282V97.77H683.504C682.784 97.77 682.268 97.902 681.956 98.166C681.656 98.418 681.506 98.784 681.506 99.264V99.588C681.506 99.996 681.632 100.296 681.884 100.488C682.148 100.68 682.49 100.776 682.91 100.776ZM693.775 102.216C693.043 102.216 692.395 102.096 691.831 101.856C691.279 101.604 690.811 101.262 690.427 100.83C690.055 100.386 689.767 99.864 689.563 99.264C689.371 98.652 689.275 97.992 689.275 97.284C689.275 96.516 689.395 95.826 689.635 95.214C689.875 94.602 690.205 94.092 690.625 93.684C691.045 93.264 691.543 92.946 692.119 92.73C692.695 92.502 693.319 92.388 693.991 92.388C695.059 92.388 695.887 92.61 696.475 93.054C697.063 93.498 697.357 94.062 697.357 94.746C697.357 95.178 697.237 95.52 696.997 95.772C696.769 96.024 696.445 96.15 696.025 96.15C695.605 96.15 695.281 96.036 695.053 95.808C694.837 95.58 694.729 95.286 694.729 94.926C694.729 94.638 694.801 94.392 694.945 94.188C695.101 93.984 695.287 93.834 695.503 93.738V93.648C695.371 93.588 695.209 93.54 695.017 93.504C694.837 93.468 694.591 93.45 694.279 93.45C693.523 93.45 692.923 93.702 692.479 94.206C692.035 94.71 691.813 95.394 691.813 96.258V97.968C691.813 98.82 692.017 99.48 692.425 99.948C692.833 100.416 693.397 100.65 694.117 100.65C694.801 100.65 695.341 100.494 695.737 100.182C696.145 99.87 696.451 99.492 696.655 99.048L697.519 99.588C697.411 99.888 697.255 100.194 697.051 100.506C696.859 100.818 696.607 101.1 696.295 101.352C695.995 101.604 695.635 101.814 695.215 101.982C694.795 102.138 694.315 102.216 693.775 102.216ZM701.772 102.162C701.064 102.162 700.554 102.012 700.242 101.712C699.942 101.412 699.792 100.95 699.792 100.326V93.756H698.55V92.604H698.946C699.366 92.604 699.666 92.526 699.846 92.37C700.026 92.202 700.182 91.956 700.314 91.632L700.962 90.066H702.15V92.604H704.31V93.756H702.15V100.884H704.31V101.802C704.118 101.898 703.788 101.982 703.32 102.054C702.852 102.126 702.336 102.162 701.772 102.162Z" fill="#263368"/>
<path d="M567.81 100.92H569.088V90.516H567.81V89.436H574.164C574.824 89.436 575.4 89.514 575.892 89.67C576.396 89.814 576.81 90.018 577.134 90.282C577.458 90.534 577.698 90.84 577.854 91.2C578.022 91.56 578.106 91.956 578.106 92.388C578.106 92.832 578.034 93.222 577.89 93.558C577.746 93.894 577.548 94.182 577.296 94.422C577.056 94.662 576.78 94.86 576.468 95.016C576.156 95.16 575.832 95.268 575.496 95.34V95.43C575.844 95.466 576.204 95.556 576.576 95.7C576.948 95.832 577.284 96.024 577.584 96.276C577.884 96.528 578.13 96.84 578.322 97.212C578.514 97.584 578.61 98.016 578.61 98.508C578.61 99.612 578.262 100.47 577.566 101.082C576.882 101.694 575.886 102 574.578 102H567.81V100.92ZM571.608 100.83H573.93C574.602 100.83 575.118 100.662 575.478 100.326C575.838 99.978 576.018 99.498 576.018 98.886V98.076C576.018 97.464 575.838 96.99 575.478 96.654C575.118 96.306 574.602 96.132 573.93 96.132H571.608V100.83ZM571.608 94.962H573.624C574.248 94.962 574.716 94.812 575.028 94.512C575.352 94.2 575.514 93.756 575.514 93.18V92.388C575.514 91.812 575.352 91.374 575.028 91.074C574.716 90.762 574.248 90.606 573.624 90.606H571.608V94.962ZM580.038 100.92H581.19V90.174L580.038 89.94V89.04L583.548 88.32V100.92H584.7V102H580.038V100.92ZM590.413 101.028C591.061 101.028 591.541 100.83 591.853 100.434C592.177 100.038 592.339 99.48 592.339 98.76V95.844C592.339 95.124 592.177 94.566 591.853 94.17C591.541 93.774 591.061 93.576 590.413 93.576C589.765 93.576 589.279 93.774 588.955 94.17C588.643 94.566 588.487 95.124 588.487 95.844V98.76C588.487 99.48 588.643 100.038 588.955 100.434C589.279 100.83 589.765 101.028 590.413 101.028ZM590.413 102.216C589.741 102.216 589.129 102.108 588.577 101.892C588.037 101.664 587.569 101.34 587.173 100.92C586.789 100.488 586.489 99.972 586.273 99.372C586.057 98.76 585.949 98.07 585.949 97.302C585.949 96.534 586.057 95.85 586.273 95.25C586.489 94.638 586.789 94.122 587.173 93.702C587.569 93.27 588.037 92.946 588.577 92.73C589.129 92.502 589.741 92.388 590.413 92.388C591.085 92.388 591.691 92.502 592.231 92.73C592.783 92.946 593.251 93.27 593.635 93.702C594.031 94.122 594.337 94.638 594.553 95.25C594.769 95.85 594.877 96.534 594.877 97.302C594.877 98.07 594.769 98.76 594.553 99.372C594.337 99.972 594.031 100.488 593.635 100.92C593.251 101.34 592.783 101.664 592.231 101.892C591.691 102.108 591.085 102.216 590.413 102.216ZM600.514 105.816C599.674 105.816 598.972 105.768 598.408 105.672C597.856 105.576 597.406 105.432 597.058 105.24C596.722 105.06 596.482 104.838 596.338 104.574C596.194 104.31 596.122 104.016 596.122 103.692C596.122 103.236 596.32 102.858 596.716 102.558C597.112 102.258 597.58 102.06 598.12 101.964V101.892C597.712 101.796 597.388 101.604 597.148 101.316C596.908 101.016 596.788 100.638 596.788 100.182C596.788 99.654 596.962 99.24 597.31 98.94C597.658 98.64 598.078 98.436 598.57 98.328V98.238C597.97 97.998 597.502 97.65 597.166 97.194C596.842 96.738 596.68 96.168 596.68 95.484C596.68 94.992 596.77 94.554 596.95 94.17C597.142 93.786 597.406 93.462 597.742 93.198C598.09 92.934 598.498 92.736 598.966 92.604C599.446 92.46 599.974 92.388 600.55 92.388C601.018 92.388 601.444 92.436 601.828 92.532C602.212 92.628 602.566 92.766 602.89 92.946C602.938 92.274 603.1 91.788 603.376 91.488C603.664 91.176 604.054 91.02 604.546 91.02C604.87 91.02 605.14 91.116 605.356 91.308C605.572 91.488 605.68 91.752 605.68 92.1C605.68 92.412 605.578 92.67 605.374 92.874C605.17 93.066 604.894 93.162 604.546 93.162C604.354 93.162 604.174 93.126 604.006 93.054C603.838 92.982 603.7 92.874 603.592 92.73H603.52V93.378C603.796 93.618 604.018 93.906 604.186 94.242C604.366 94.578 604.456 94.992 604.456 95.484C604.456 95.976 604.36 96.42 604.168 96.816C603.976 97.2 603.706 97.524 603.358 97.788C603.022 98.052 602.614 98.256 602.134 98.4C601.654 98.532 601.126 98.598 600.55 98.598C600.13 98.598 599.71 98.55 599.29 98.454C599.086 98.55 598.918 98.682 598.786 98.85C598.654 99.006 598.588 99.18 598.588 99.372C598.588 99.636 598.684 99.834 598.876 99.966C599.08 100.086 599.41 100.146 599.866 100.146H601.972C603.208 100.146 604.096 100.374 604.636 100.83C605.176 101.286 605.446 101.91 605.446 102.702C605.446 103.674 605.038 104.436 604.222 104.988C603.406 105.54 602.17 105.816 600.514 105.816ZM600.568 97.5C601.6 97.5 602.116 96.924 602.116 95.772V95.232C602.116 94.08 601.6 93.504 600.568 93.504C599.536 93.504 599.02 94.08 599.02 95.232V95.772C599.02 96.924 599.536 97.5 600.568 97.5ZM598.066 103.512C598.066 104.328 598.75 104.736 600.118 104.736H601.18C601.936 104.736 602.506 104.622 602.89 104.394C603.286 104.166 603.484 103.83 603.484 103.386C603.484 102.966 603.34 102.672 603.052 102.504C602.776 102.348 602.344 102.27 601.756 102.27H598.768C598.528 102.414 598.348 102.582 598.228 102.774C598.12 102.978 598.066 103.224 598.066 103.512Z" fill="#263368"/>
<path d="M488.224 90.516H487.306V89.436H492.274V90.516H490.78L492.85 99.678H492.94L495.586 89.436H497.764L500.41 99.678H500.5L502.57 90.516H501.076V89.436H504.892V90.516H503.974L501.13 102H498.718L496.144 92.496H496.054L493.48 102H491.068L488.224 90.516ZM509.551 101.028C510.199 101.028 510.679 100.83 510.991 100.434C511.315 100.038 511.477 99.48 511.477 98.76V95.844C511.477 95.124 511.315 94.566 510.991 94.17C510.679 93.774 510.199 93.576 509.551 93.576C508.903 93.576 508.417 93.774 508.093 94.17C507.781 94.566 507.625 95.124 507.625 95.844V98.76C507.625 99.48 507.781 100.038 508.093 100.434C508.417 100.83 508.903 101.028 509.551 101.028ZM509.551 102.216C508.879 102.216 508.267 102.108 507.715 101.892C507.175 101.664 506.707 101.34 506.311 100.92C505.927 100.488 505.627 99.972 505.411 99.372C505.195 98.76 505.087 98.07 505.087 97.302C505.087 96.534 505.195 95.85 505.411 95.25C505.627 94.638 505.927 94.122 506.311 93.702C506.707 93.27 507.175 92.946 507.715 92.73C508.267 92.502 508.879 92.388 509.551 92.388C510.223 92.388 510.829 92.502 511.369 92.73C511.921 92.946 512.389 93.27 512.773 93.702C513.169 94.122 513.475 94.638 513.691 95.25C513.907 95.85 514.015 96.534 514.015 97.302C514.015 98.07 513.907 98.76 513.691 99.372C513.475 99.972 513.169 100.488 512.773 100.92C512.389 101.34 511.921 101.664 511.369 101.892C510.829 102.108 510.223 102.216 509.551 102.216ZM515.476 100.92H516.628V94.242L515.476 94.008V93.108L518.95 92.388V94.134H519.04C519.124 93.906 519.232 93.69 519.364 93.486C519.496 93.27 519.652 93.084 519.832 92.928C520.024 92.76 520.24 92.628 520.48 92.532C520.72 92.436 520.99 92.388 521.29 92.388C521.866 92.388 522.316 92.538 522.64 92.838C522.976 93.138 523.144 93.552 523.144 94.08C523.144 94.536 523.03 94.89 522.802 95.142C522.574 95.394 522.256 95.52 521.848 95.52C521.44 95.52 521.128 95.412 520.912 95.196C520.696 94.98 520.588 94.716 520.588 94.404C520.588 94.236 520.624 94.086 520.696 93.954C520.768 93.822 520.852 93.738 520.948 93.702V93.63C520.9 93.618 520.816 93.612 520.696 93.612C520.492 93.612 520.288 93.672 520.084 93.792C519.88 93.9 519.694 94.044 519.526 94.224C519.37 94.392 519.238 94.584 519.13 94.8C519.034 95.016 518.986 95.232 518.986 95.448V100.92H520.498V102H515.476V100.92ZM523.856 100.92H525.008V90.174L523.856 89.94V89.04L527.366 88.32V97.41H527.456L528.68 96.006L530.858 93.684H529.724V92.604H533.738V93.684H532.46L530.228 95.934L533.342 100.92H534.206V102H529.778V100.92H530.678L528.644 97.392L527.366 98.742V100.92H528.464V102H523.856V100.92Z" fill="#263368"/>
<path d="M402.81 100.92H404.088V90.516H402.81V89.436H407.886V90.516H406.608V94.98H411.864V90.516H410.586V89.436H415.662V90.516H414.384V100.92H415.662V102H410.586V100.92H411.864V96.15H406.608V100.92H407.886V102H402.81V100.92ZM421.651 101.028C422.299 101.028 422.779 100.83 423.091 100.434C423.415 100.038 423.577 99.48 423.577 98.76V95.844C423.577 95.124 423.415 94.566 423.091 94.17C422.779 93.774 422.299 93.576 421.651 93.576C421.003 93.576 420.517 93.774 420.193 94.17C419.881 94.566 419.725 95.124 419.725 95.844V98.76C419.725 99.48 419.881 100.038 420.193 100.434C420.517 100.83 421.003 101.028 421.651 101.028ZM421.651 102.216C420.979 102.216 420.367 102.108 419.815 101.892C419.275 101.664 418.807 101.34 418.411 100.92C418.027 100.488 417.727 99.972 417.511 99.372C417.295 98.76 417.187 98.07 417.187 97.302C417.187 96.534 417.295 95.85 417.511 95.25C417.727 94.638 418.027 94.122 418.411 93.702C418.807 93.27 419.275 92.946 419.815 92.73C420.367 92.502 420.979 92.388 421.651 92.388C422.323 92.388 422.929 92.502 423.469 92.73C424.021 92.946 424.489 93.27 424.873 93.702C425.269 94.122 425.575 94.638 425.791 95.25C426.007 95.85 426.115 96.534 426.115 97.302C426.115 98.07 426.007 98.76 425.791 99.372C425.575 99.972 425.269 100.488 424.873 100.92C424.489 101.34 424.021 101.664 423.469 101.892C422.929 102.108 422.323 102.216 421.651 102.216ZM427.576 100.92H428.728V94.242L427.576 94.008V93.108L431.05 92.388V94.134H431.14C431.224 93.906 431.338 93.69 431.482 93.486C431.638 93.27 431.824 93.084 432.04 92.928C432.256 92.76 432.508 92.628 432.796 92.532C433.096 92.436 433.432 92.388 433.804 92.388C434.596 92.388 435.214 92.538 435.658 92.838C436.102 93.138 436.408 93.588 436.576 94.188H436.648C436.744 93.96 436.87 93.738 437.026 93.522C437.194 93.306 437.392 93.114 437.62 92.946C437.86 92.778 438.13 92.646 438.43 92.55C438.742 92.442 439.096 92.388 439.492 92.388C440.596 92.388 441.376 92.682 441.832 93.27C442.3 93.846 442.534 94.716 442.534 95.88V100.92H443.686V102H439.132V100.92H440.176V95.988C440.176 95.28 440.05 94.77 439.798 94.458C439.546 94.134 439.132 93.972 438.556 93.972C438.34 93.972 438.124 94.002 437.908 94.062C437.704 94.122 437.518 94.218 437.35 94.35C437.194 94.47 437.062 94.632 436.954 94.836C436.858 95.028 436.81 95.256 436.81 95.52V100.92H437.854V102H433.408V100.92H434.452V95.988C434.452 95.28 434.326 94.77 434.074 94.458C433.834 94.134 433.432 93.972 432.868 93.972C432.64 93.972 432.418 94.002 432.202 94.062C431.986 94.122 431.794 94.218 431.626 94.35C431.47 94.47 431.338 94.632 431.23 94.836C431.134 95.028 431.086 95.256 431.086 95.52V100.92H432.13V102H427.576V100.92ZM449.425 102.216C448.705 102.216 448.063 102.096 447.499 101.856C446.947 101.616 446.479 101.28 446.095 100.848C445.711 100.404 445.417 99.882 445.213 99.282C445.021 98.67 444.925 98.004 444.925 97.284C444.925 96.54 445.027 95.868 445.231 95.268C445.447 94.656 445.747 94.14 446.131 93.72C446.515 93.288 446.971 92.958 447.499 92.73C448.039 92.502 448.633 92.388 449.281 92.388C449.929 92.388 450.511 92.496 451.027 92.712C451.555 92.916 451.999 93.21 452.359 93.594C452.731 93.978 453.013 94.44 453.205 94.98C453.409 95.508 453.511 96.102 453.511 96.762V97.32H447.463V97.968C447.463 98.832 447.685 99.498 448.129 99.966C448.585 100.422 449.179 100.65 449.911 100.65C450.583 100.65 451.123 100.5 451.531 100.2C451.939 99.9 452.239 99.528 452.431 99.084L453.313 99.624C453.205 99.924 453.043 100.23 452.827 100.542C452.623 100.842 452.359 101.118 452.035 101.37C451.723 101.622 451.351 101.826 450.919 101.982C450.487 102.138 449.989 102.216 449.425 102.216ZM447.463 96.276H451.063V96.042C451.063 95.178 450.907 94.542 450.595 94.134C450.295 93.726 449.857 93.522 449.281 93.522C448.705 93.522 448.255 93.726 447.931 94.134C447.619 94.53 447.463 95.16 447.463 96.024V96.276Z" fill="#263368"/>
<rect x="402" y="106" width="53" height="2" fill="#263368"/>
</g>
<path d="M92.216 93.4L85.976 93.016V106.264C85.976 107.992 86.232 109.24 86.744 110.008C87.32 110.776 88.344 111.16 89.816 111.16C91.352 111.16 92.504 111.224 93.272 111.352C94.104 111.416 94.968 111.704 95.864 112.216C97.336 113.048 98.072 115.192 98.072 118.648C98.072 122.68 97.176 125.144 95.384 126.04C94.424 126.488 93.56 126.776 92.792 126.904C92.088 126.968 91.032 127 89.624 127C82.968 127 77.912 125.496 74.456 122.488C71 119.48 69.272 114.392 69.272 107.224V93.016C68.056 93.208 66.744 93.304 65.336 93.304C63.928 93.304 62.744 92.76 61.784 91.672C60.888 90.584 60.44 88.728 60.44 86.104C60.44 83.48 60.6 81.592 60.92 80.44C61.24 79.224 61.688 78.36 62.264 77.848C63.288 77.016 64.568 76.6 66.104 76.6L69.272 76.984V67.096C69.272 65.624 69.304 64.536 69.368 63.832C69.496 63.128 69.816 62.36 70.328 61.528C71.16 59.928 73.624 59.128 77.72 59.128C82.072 59.128 84.664 60.312 85.496 62.68C85.816 63.704 85.976 65.336 85.976 67.576V76.984C88.792 76.728 90.904 76.6 92.312 76.6C93.784 76.6 94.872 76.664 95.576 76.792C96.344 76.856 97.208 77.144 98.168 77.656C99.832 78.488 100.664 80.952 100.664 85.048C100.664 89.08 99.8 91.544 98.072 92.44C97.112 92.888 96.248 93.176 95.48 93.304C94.776 93.368 93.688 93.4 92.216 93.4ZM127.949 126.808C121.485 126.808 116.109 124.376 111.821 119.512C107.597 114.584 105.485 108.6 105.485 101.56V84.76C105.485 83.224 105.517 82.104 105.581 81.4C105.709 80.696 105.997 79.864 106.445 78.904C107.341 77.176 109.837 76.312 113.933 76.312C118.413 76.312 121.037 77.528 121.805 79.96C122.189 80.984 122.381 82.616 122.381 84.856V101.656C122.381 104.28 123.117 106.328 124.589 107.8C126.125 109.272 128.141 110.008 130.637 110.008C133.197 110.008 135.245 109.24 136.781 107.704C138.381 106.168 139.181 104.152 139.181 101.656V84.664C139.181 83.192 139.213 82.104 139.277 81.4C139.405 80.632 139.725 79.768 140.237 78.808C141.069 77.144 143.533 76.312 147.629 76.312C151.661 76.312 154.125 77.176 155.021 78.904C155.469 79.864 155.725 80.728 155.789 81.496C155.917 82.2 155.981 83.288 155.981 84.76V118.744C155.981 120.152 155.917 121.24 155.789 122.008C155.725 122.712 155.437 123.512 154.925 124.408C153.965 126.072 151.501 126.904 147.533 126.904C143.629 126.904 141.229 126.136 140.333 124.6C139.693 123.512 139.373 122.2 139.373 120.664C139.117 121.112 138.541 121.752 137.645 122.584C136.749 123.416 135.885 124.12 135.053 124.696C132.877 126.104 130.509 126.808 127.949 126.808ZM163.608 122.488C162.392 121.72 161.784 120.504 161.784 118.84C161.784 117.176 163 114.648 165.432 111.256C166.136 110.168 167.256 109.624 168.792 109.624C170.392 109.624 172.536 110.424 175.224 112.024C177.912 113.56 180.344 114.328 182.52 114.328C186.424 114.328 188.376 113.56 188.376 112.024C188.376 110.808 186.232 109.912 181.944 109.336C177.912 108.76 173.912 107.256 169.944 104.824C168.088 103.672 166.552 101.88 165.336 99.448C164.12 96.952 163.512 94.008 163.512 90.616C163.512 80.504 170.456 75.448 184.344 75.448C188.888 75.448 193.56 76.536 198.36 78.712C200.6 79.736 201.72 81.016 201.72 82.552C201.72 84.088 201.016 85.976 199.608 88.216C198.2 90.456 196.76 91.576 195.288 91.576C194.52 91.576 193.08 91.096 190.968 90.136C188.92 89.176 186.68 88.696 184.248 88.696C180.472 88.696 178.584 89.4 178.584 90.808C178.584 92.728 180.76 93.976 185.112 94.552C189.336 95 193.432 96.216 197.4 98.2C199.256 99.096 200.792 100.664 202.008 102.904C203.288 105.08 203.928 107.832 203.928 111.16C203.928 114.488 203.288 117.336 202.008 119.704C200.792 122.008 199.064 123.736 196.824 124.888C192.728 126.872 187.576 127.864 181.368 127.864C175.224 127.864 169.304 126.072 163.608 122.488ZM237.84 76.408C244.24 76.408 249.552 78.872 253.776 83.8C258.065 88.664 260.209 94.616 260.209 101.656V118.552C260.209 120.024 260.145 121.144 260.016 121.912C259.952 122.616 259.697 123.416 259.249 124.312C258.353 126.04 255.857 126.904 251.76 126.904C247.216 126.904 244.592 125.72 243.889 123.352C243.504 122.264 243.312 120.632 243.312 118.456V101.56C243.312 98.936 242.544 96.888 241.009 95.416C239.536 93.944 237.52 93.208 234.96 93.208C232.464 93.208 230.416 93.976 228.816 95.512C227.28 97.048 226.512 99.064 226.512 101.56V118.552C226.512 120.024 226.448 121.144 226.32 121.912C226.256 122.616 225.968 123.416 225.456 124.312C224.624 126.04 222.16 126.904 218.064 126.904C214.032 126.904 211.568 126.04 210.672 124.312C210.224 123.352 209.936 122.52 209.808 121.816C209.744 121.048 209.712 119.928 209.712 118.456V84.472C209.712 83.064 209.744 82.008 209.808 81.304C209.936 80.536 210.256 79.704 210.768 78.808C211.664 77.208 214.128 76.408 218.16 76.408C222.064 76.408 224.464 77.144 225.36 78.616C226 79.704 226.32 81.016 226.32 82.552C226.576 82.104 227.152 81.464 228.048 80.632C228.944 79.8 229.808 79.128 230.64 78.616C232.816 77.144 235.216 76.408 237.84 76.408ZM266.011 101.752C266.011 94.072 268.699 87.736 274.075 82.744C279.451 77.752 285.595 75.256 292.507 75.256C299.419 75.256 305.531 77.752 310.843 82.744C316.155 87.672 318.811 93.976 318.811 101.656C318.811 106.968 317.435 111.704 314.683 115.864C311.931 119.96 308.571 123 304.603 124.984C300.699 126.904 296.635 127.864 292.411 127.864C288.187 127.864 284.091 126.84 280.123 124.792C276.155 122.68 272.795 119.608 270.043 115.576C267.355 111.48 266.011 106.872 266.011 101.752ZM286.075 108.664C288.123 110.2 290.203 110.968 292.315 110.968C294.427 110.968 296.539 110.168 298.651 108.568C300.763 106.968 301.819 104.6 301.819 101.464C301.819 98.328 300.827 95.992 298.843 94.456C296.859 92.92 294.715 92.152 292.411 92.152C290.107 92.152 287.963 92.952 285.979 94.552C283.995 96.152 283.003 98.52 283.003 101.656C283.003 104.728 284.027 107.064 286.075 108.664ZM62.84 167.048C62.84 165.576 62.872 164.488 62.936 163.784C63.064 163.016 63.352 162.152 63.8 161.192C64.696 159.464 67.192 158.6 71.288 158.6C75.192 158.6 77.624 159.464 78.584 161.192C79.096 162.152 79.384 163.016 79.448 163.784C79.576 164.552 79.64 165.672 79.64 167.144V211.592C79.64 213.896 79.832 215.368 80.216 216.008C80.6 216.584 81.432 216.872 82.712 216.872C84.056 216.872 84.952 216.936 85.4 217.064C85.848 217.128 86.392 217.384 87.032 217.832C88.312 218.664 88.952 220.936 88.952 224.648C88.952 228.68 88.312 231.144 87.032 232.04C85.368 233.192 81.4 233.384 75.128 232.616C70.2 231.976 67 230.344 65.528 227.72C63.736 224.584 62.84 219.592 62.84 212.744V167.048ZM92.3263 207.752C92.3263 200.072 95.0143 193.736 100.39 188.744C105.766 183.752 111.91 181.256 118.822 181.256C125.734 181.256 131.846 183.752 137.158 188.744C142.47 193.672 145.126 199.976 145.126 207.656C145.126 212.968 143.75 217.704 140.998 221.864C138.246 225.96 134.886 229 130.918 230.984C127.014 232.904 122.95 233.864 118.726 233.864C114.502 233.864 110.406 232.84 106.438 230.792C102.47 228.68 99.1103 225.608 96.3583 221.576C93.6703 217.48 92.3263 212.872 92.3263 207.752ZM112.39 214.664C114.438 216.2 116.518 216.968 118.63 216.968C120.742 216.968 122.854 216.168 124.966 214.568C127.078 212.968 128.134 210.6 128.134 207.464C128.134 204.328 127.142 201.992 125.158 200.456C123.174 198.92 121.03 198.152 118.726 198.152C116.422 198.152 114.278 198.952 112.294 200.552C110.31 202.152 109.318 204.52 109.318 207.656C109.318 210.728 110.342 213.064 112.39 214.664ZM178.593 182.504C184.289 182.504 189.505 185.032 194.241 190.088C199.041 195.144 201.441 201.032 201.441 207.752C201.441 214.408 199.073 220.264 194.337 225.32C189.601 230.312 184.513 232.808 179.073 232.808C173.633 232.808 169.761 231.272 167.457 228.2C166.945 231.336 164.193 232.904 159.201 232.904C155.169 232.904 152.705 232.04 151.809 230.312C151.361 229.352 151.073 228.52 150.945 227.816C150.881 227.048 150.849 225.928 150.849 224.456V167.144C150.849 165.672 150.881 164.584 150.945 163.88C151.073 163.112 151.361 162.28 151.809 161.384C152.705 159.656 155.201 158.792 159.297 158.792C163.329 158.792 165.761 159.656 166.593 161.384C167.105 162.344 167.393 163.208 167.457 163.976C167.585 164.68 167.649 165.768 167.649 167.24V187.208C170.209 184.072 173.857 182.504 178.593 182.504ZM170.145 213.512C171.745 215.24 173.729 216.104 176.097 216.104C178.465 216.104 180.481 215.24 182.145 213.512C183.809 211.784 184.641 209.864 184.641 207.752C184.641 205.64 183.873 203.72 182.337 201.992C180.801 200.2 178.753 199.304 176.193 199.304C173.633 199.304 171.585 200.2 170.049 201.992C168.577 203.784 167.841 205.736 167.841 207.848C167.841 209.896 168.609 211.784 170.145 213.512ZM205.741 207.752C205.741 200.072 208.429 193.736 213.805 188.744C219.181 183.752 225.325 181.256 232.237 181.256C239.149 181.256 245.261 183.752 250.573 188.744C255.885 193.672 258.541 199.976 258.541 207.656C258.541 212.968 257.165 217.704 254.413 221.864C251.661 225.96 248.301 229 244.333 230.984C240.429 232.904 236.365 233.864 232.141 233.864C227.917 233.864 223.821 232.84 219.853 230.792C215.885 228.68 212.525 225.608 209.773 221.576C207.085 217.48 205.741 212.872 205.741 207.752ZM225.805 214.664C227.853 216.2 229.933 216.968 232.045 216.968C234.157 216.968 236.269 216.168 238.381 214.568C240.493 212.968 241.549 210.6 241.549 207.464C241.549 204.328 240.557 201.992 238.573 200.456C236.589 198.92 234.445 198.152 232.141 198.152C229.837 198.152 227.693 198.952 225.709 200.552C223.725 202.152 222.733 204.52 222.733 207.656C222.733 210.728 223.757 213.064 225.805 214.664ZM312.334 183.56C315.662 185.544 317.326 187.656 317.326 189.896C317.326 191.176 316.686 192.936 315.406 195.176L295.534 229.256C294.894 230.344 293.87 231.336 292.462 232.232C291.054 233.064 289.646 233.48 288.238 233.48C286.894 233.48 285.582 233.16 284.302 232.52C283.086 231.816 282.222 231.112 281.71 230.408L280.846 229.352L260.878 195.176C259.598 193.064 258.958 191.336 258.958 189.992C258.958 187.688 260.622 185.544 263.95 183.56C266.382 182.152 268.302 181.448 269.71 181.448C271.118 181.448 272.206 181.896 272.974 182.792C273.806 183.624 274.67 184.904 275.566 186.632L288.142 210.824L300.718 186.632C301.422 185.416 301.934 184.552 302.254 184.04C302.638 183.464 303.214 182.92 303.982 182.408C304.75 181.832 305.774 181.544 307.054 181.544C308.334 181.544 310.094 182.216 312.334 183.56ZM327.414 217.16C328.502 218.248 329.046 220.488 329.046 223.88V224.264C329.046 225.8 328.982 226.952 328.854 227.72C328.79 228.424 328.47 229.288 327.894 230.312C326.934 232.168 324.502 233.096 320.598 233.096C316.758 233.096 314.198 232.488 312.918 231.272C311.702 230.056 311.094 227.752 311.094 224.36V223.976C311.094 222.504 311.126 221.384 311.19 220.616C311.318 219.848 311.638 218.984 312.15 218.024C313.11 216.104 315.51 215.144 319.35 215.144C323.254 215.144 325.942 215.816 327.414 217.16ZM78.68 313.752C78.68 316.44 79.576 318.552 81.368 320.088C83.16 321.56 85.048 322.296 87.032 322.296C89.08 322.296 90.968 321.72 92.696 320.568C94.488 319.352 95.928 318.744 97.016 318.744C98.936 318.744 101.272 320.44 104.024 323.832C105.496 325.688 106.232 327.352 106.232 328.824C106.232 331.256 104.472 333.528 100.952 335.64C97.304 338.2 92.824 339.48 87.512 339.48C81.56 339.48 75.832 337.336 70.328 333.048C67.704 331 65.56 328.28 63.896 324.888C62.232 321.432 61.4 317.656 61.4 313.56C61.4 309.4 62.232 305.656 63.896 302.328C65.56 298.936 67.704 296.216 70.328 294.168C75.64 289.944 81.304 287.832 87.32 287.832C89.752 287.832 92.12 288.184 94.424 288.888C96.728 289.528 98.424 290.168 99.512 290.808L101.048 291.768C102.2 292.536 103.096 293.144 103.736 293.592C105.4 294.872 106.232 296.344 106.232 298.008C106.232 299.608 105.56 301.432 104.216 303.48C101.912 307 99.704 308.76 97.592 308.76C96.376 308.76 94.648 308.056 92.408 306.648C91.256 305.56 89.592 305.016 87.416 305.016C85.304 305.016 83.32 305.784 81.464 307.32C79.608 308.856 78.68 311 78.68 313.752ZM110.514 313.752C110.514 306.072 113.202 299.736 118.578 294.744C123.954 289.752 130.098 287.256 137.01 287.256C143.922 287.256 150.034 289.752 155.346 294.744C160.658 299.672 163.314 305.976 163.314 313.656C163.314 318.968 161.938 323.704 159.186 327.864C156.434 331.96 153.074 335 149.106 336.984C145.202 338.904 141.138 339.864 136.914 339.864C132.69 339.864 128.594 338.84 124.626 336.792C120.658 334.68 117.298 331.608 114.546 327.576C111.858 323.48 110.514 318.872 110.514 313.752ZM130.578 320.664C132.626 322.2 134.706 322.968 136.818 322.968C138.93 322.968 141.042 322.168 143.154 320.568C145.266 318.968 146.322 316.6 146.322 313.464C146.322 310.328 145.33 307.992 143.346 306.456C141.362 304.92 139.218 304.152 136.914 304.152C134.61 304.152 132.466 304.952 130.482 306.552C128.498 308.152 127.506 310.52 127.506 313.656C127.506 316.728 128.53 319.064 130.578 320.664ZM185.548 295.128C188.556 290.584 192.172 288.312 196.396 288.312C202.924 288.312 207.788 291.096 210.988 296.664C211.692 295.704 212.524 294.712 213.484 293.688C214.508 292.6 216.108 291.448 218.284 290.232C220.46 288.952 222.7 288.312 225.004 288.312C230.124 288.312 234.412 290.296 237.868 294.264C241.324 298.168 243.052 304.664 243.052 313.752V330.552C243.052 332.024 242.988 333.144 242.86 333.912C242.796 334.616 242.508 335.448 241.996 336.408C241.164 338.136 238.7 339 234.604 339C230.572 339 228.108 338.104 227.212 336.312C226.764 335.352 226.476 334.52 226.348 333.816C226.284 333.048 226.252 331.928 226.252 330.456V313.656C226.252 308.088 224.268 305.304 220.3 305.304C218.06 305.304 216.524 306.04 215.692 307.512C214.924 308.984 214.54 311.064 214.54 313.752V330.552C214.54 332.088 214.476 333.208 214.348 333.912C214.284 334.616 213.996 335.448 213.484 336.408C212.588 338.136 210.092 339 205.996 339C201.964 339 199.5 338.104 198.604 336.312C198.156 335.352 197.868 334.52 197.74 333.816C197.676 333.048 197.644 331.928 197.644 330.456V313.656C197.644 308.088 195.66 305.304 191.692 305.304C187.852 305.304 185.932 308.088 185.932 313.656V330.648C185.932 332.12 185.868 333.24 185.74 334.008C185.676 334.712 185.388 335.544 184.876 336.504C183.916 338.168 181.42 339 177.388 339C173.356 339 170.892 338.136 169.996 336.408C169.548 335.448 169.26 334.616 169.132 333.912C169.068 333.208 169.036 332.088 169.036 330.552V296.76C169.036 295.288 169.068 294.2 169.132 293.496C169.26 292.728 169.58 291.896 170.092 291C171.052 289.272 173.324 288.408 176.908 288.408C180.492 288.408 182.828 288.984 183.916 290.136C185.004 291.288 185.548 292.952 185.548 295.128Z" fill="#F2DA79"/>
</g>
<defs>
<filter id="filter0_d" x="350" y="46" width="900" height="104" filterUnits="userSpaceOnUse" color-interpolation-filters="sRGB">
<feFlood flood-opacity="0" result="BackgroundImageFix"/>
<feColorMatrix in="SourceAlpha" type="matrix" values="0 0 0 0 0 0 0 0 0 0 0 0 0 0 0 0 0 0 127 0"/>
<feOffset dy="3"/>
<feGaussianBlur stdDeviation="10"/>
<feColorMatrix type="matrix" values="0 0 0 0 0 0 0 0 0 0 0 0 0 0 0 0 0 0 0.3 0"/>
<feBlend mode="normal" in2="BackgroundImageFix" result="effect1_dropShadow"/>
<feBlend mode="normal" in="SourceGraphic" in2="effect1_dropShadow" result="shape"/>
</filter>
<linearGradient id="paint0_linear" x1="822.502" y1="567.088" x2="477.614" y2="322.089" gradientUnits="userSpaceOnUse">
<stop stop-color="white" stop-opacity="0.25"/>
<stop offset="1" stop-color="#F8F8F8" stop-opacity="0"/>
</linearGradient>
<clipPath id="clip0">
<rect width="800" height="600" fill="white"/>
</clipPath>
</defs>
</svg>
